SplineFontDB: 3.0
FontName: SquareAntiqua-Bold
FullName: Square Antiqua Bold
FamilyName: Square Antiqua
Weight: Bold
Copyright: Copyright (c) 2011, wmk69 (wmk69@o2.pl)\nwith Reserved Font Names 'SquareAntiqua' and 'Square Antiqua Bold'.\n\nThis Font Software is licensed under the SIL Open Font License, Version 1.1.\nThis license is available with a FAQ at:\nhttp://scripts.sil.org/OFL
Version: 1.000
ItalicAngle: 0
UnderlinePosition: -81
UnderlineWidth: 122
Ascent: 1638
Descent: 410
LayerCount: 2
Layer: 0 1 "Warstwa t+AUIA-a"  1
Layer: 1 1 "Plan pierwszy"  0
XUID: [1021 783 23647091 10727182]
FSType: 0
OS2Version: 3
OS2_WeightWidthSlopeOnly: 0
OS2_UseTypoMetrics: 1
CreationTime: 1260698820
ModificationTime: 1313129889
PfmFamily: 17
TTFWeight: 700
TTFWidth: 5
LineGap: 0
VLineGap: 0
Panose: 2 1 8 4 2 4 4 6 2 4
OS2TypoAscent: 1937
OS2TypoAOffset: 0
OS2TypoDescent: -491
OS2TypoDOffset: 0
OS2TypoLinegap: 0
OS2WinAscent: 1937
OS2WinAOffset: 0
OS2WinDescent: 491
OS2WinDOffset: 0
HheadAscent: 1937
HheadAOffset: 0
HheadDescent: -491
HheadDOffset: 0
OS2SubXSize: 1434
OS2SubYSize: 1331
OS2SubXOff: 0
OS2SubYOff: 287
OS2SupXSize: 1434
OS2SupYSize: 1331
OS2SupXOff: 0
OS2SupYOff: 977
OS2StrikeYSize: 102
OS2StrikeYPos: 512
OS2Vendor: '    '
OS2CodePages: 20000093.00000000
OS2UnicodeRanges: 8000002f.4000204b.00000000.00000000
Lookup: 258 0 0 "'kern' Kerning poziomy w tablicy 0"  {"Podtablica 'kern' Kerning poziomy w tablicy 0-0"  } ['kern' ('DFLT' <'dflt' > 'grek' <'dflt' > 'latn' <'dflt' > ) ]
DEI: 91125
KernClass2: 14 9 "Podtablica 'kern' Kerning poziomy w tablicy 0-0" 
 33 L Lacute Lcommaaccent Lcaron Ldot
 9 P uni1E56
 42 T Tcommaaccent Tcaron Tbar uni021A uni1E6A
 1 V
 5 Thorn
 5 longs
 14 r rcommaaccent
 13 racute rcaron
 189 a b c e g h k m n o p q s agrave ae ccedilla egrave ograve oslash thorn aogonek eogonek dotlessi kcommaaccent kgreenlandic ncommaaccent napostrophe eng scedilla uni01E5 scommaaccent uni0237

StartChar: .notdef
Encoding: 65536 -1 0
Width: 1044
Flags: W
HStem: 0 268<418 626> 1243 267<418 626>
VStem: 150 268<268 1243> 626 268<268 1243>
LayerCount: 2
Fore
SplineSet
150 0 m 1,0,-1
 150 1510 l 1,1,-1
 894 1510 l 1,2,-1
 894 0 l 1,3,-1
 150 0 l 1,0,-1
418 268 m 1,4,-1
 626 268 l 1,5,-1
 626 1243 l 1,6,-1
 418 1243 l 1,7,-1
 418 268 l 1,4,-1
EndSplineSet
Validated: 3073
EndChar

StartChar: exclam
Encoding: 33 33 4
Width: 892
GlyphClass: 2
Flags: W
HStem: -20 406<301.728 590.272> 1490 20G<268 623>
VStem: 245 402<37.292 328.426> 268 355<1188.24 1510> 313 265<500 821.764>
LayerCount: 2
Fore
SplineSet
313 500 m 1,0,-1
 268 1510 l 1,1,-1
 623 1510 l 1,2,-1
 578 500 l 1,3,-1
 313 500 l 1,0,-1
245 182 m 0,4,5
 245 386 245 386 446 386 c 128,-1,6
 647 386 647 386 647 183 c 128,-1,7
 647 -20 647 -20 446 -20 c 128,-1,8
 245 -20 245 -20 245 182 c 0,4,5
EndSplineSet
Validated: 1
EndChar

StartChar: quotedbl
Encoding: 34 34 5
Width: 1186
GlyphClass: 2
Flags: W
HStem: 843 667<209 500 686 977>
VStem: 209 291<843 1088.18> 686 291<843 1088.18>
LayerCount: 2
Fore
SplineSet
686 843 m 1,0,-1
 647 1510 l 1,1,-1
 1016 1510 l 1,2,-1
 977 843 l 1,3,-1
 686 843 l 1,0,-1
209 843 m 1,4,-1
 170 1510 l 1,5,-1
 539 1510 l 1,6,-1
 500 843 l 1,7,-1
 209 843 l 1,4,-1
EndSplineSet
Validated: 1
EndChar

StartChar: numbersign
Encoding: 35 35 6
Width: 1633
GlyphClass: 2
Flags: W
HStem: 403 277<150 461 738 895 1172 1483> 837 277<150 461 738 895 1172 1483>
VStem: 461 277<92 403 680 837 1114 1425> 895 277<92 403 680 837 1114 1425>
LayerCount: 2
Fore
SplineSet
150 403 m 1,0,-1
 150 680 l 1,1,-1
 461 680 l 1,2,-1
 461 837 l 1,3,-1
 150 837 l 1,4,-1
 150 1114 l 1,5,-1
 461 1114 l 1,6,-1
 461 1425 l 1,7,-1
 738 1425 l 1,8,-1
 738 1114 l 1,9,-1
 895 1114 l 1,10,-1
 895 1425 l 1,11,-1
 1172 1425 l 1,12,-1
 1172 1114 l 1,13,-1
 1483 1114 l 1,14,-1
 1483 837 l 1,15,-1
 1172 837 l 1,16,-1
 1172 680 l 1,17,-1
 1483 680 l 1,18,-1
 1483 403 l 1,19,-1
 1172 403 l 1,20,-1
 1172 92 l 1,21,-1
 895 92 l 1,22,-1
 895 403 l 1,23,-1
 738 403 l 1,24,-1
 738 92 l 1,25,-1
 461 92 l 1,26,-1
 461 403 l 1,27,-1
 150 403 l 1,0,-1
895 680 m 1,28,-1
 895 837 l 1,29,-1
 738 837 l 1,30,-1
 738 680 l 1,31,-1
 895 680 l 1,28,-1
EndSplineSet
Validated: 1
EndChar

StartChar: dollar
Encoding: 36 36 7
Width: 1538
GlyphClass: 2
Flags: W
VStem: 200 350<1018.46 1204.24> 670 198<-186 -20 268 663 988 1242 1530 1695> 1028 350<353.447 618.48>
LayerCount: 2
Fore
SplineSet
160 440 m 1,0,1
 510 536 l 1,2,3
 510 311 510 311 670 266 c 1,4,-1
 670 675 l 1,5,6
 200 711 200 711 200 1024 c 2,7,-1
 200 1027 l 2,8,9
 200 1446 200 1446 670 1516 c 1,10,-1
 670 1695 l 1,11,-1
 868 1695 l 1,12,-1
 868 1530 l 17,13,14
 1329 1530 1329 1530 1337 1108 c 1,15,-1
 987 1012 l 1,16,17
 985 1198 985 1198 868 1242 c 1,18,-1
 868 966 l 1,19,20
 1378 918 1378 918 1378 577 c 2,21,-1
 1378 575 l 2,22,23
 1378 74 1378 74 868 -5 c 1,24,-1
 868 -186 l 1,25,-1
 670 -186 l 1,26,-1
 670 -20 l 17,27,28
 160 -20 160 -20 160 440 c 1,0,1
670 988 m 1,29,-1
 670 1243 l 1,30,31
 550 1211 550 1211 550 1097 c 2,32,-1
 550 1094 l 2,33,34
 550 1018 550 1018 670 988 c 1,29,-1
868 663 m 1,35,-1
 868 268 l 1,36,37
 1028 316 1028 316 1028 530 c 2,38,-1
 1028 532 l 2,39,40
 1028 640 1028 640 868 663 c 1,35,-1
EndSplineSet
Validated: 1
EndChar

StartChar: percent
Encoding: 37 37 8
Width: 1998
GlyphClass: 2
Flags: W
HStem: -18 232<1369.57 1575.67> 0 21G<447 798.199> 481 244<1374.12 1575.38> 787 232<415.574 621.67> 1286 244<420.123 621.377> 1490 20G<1203.84 1558>
VStem: 150 243<1045.36 1263.86> 447 341<0 341> 646 248<1041.23 1259.62> 1104 243<240.365 458.856> 1214 344<1166 1510> 1600 248<236.231 454.618>
DStem2: 447 0 788 0 0.454279 0.890859<154.909 1693.63>
LayerCount: 2
Fore
SplineSet
1347 347.5 m 128,-1,1
 1347 214 1347 214 1474 214 c 0,2,3
 1600 214 1600 214 1600 347.5 c 128,-1,4
 1600 481 1600 481 1473.5 481 c 128,-1,0
 1347 481 1347 481 1347 347.5 c 128,-1,1
1104 351 m 0,5,6
 1104 725 1104 725 1476 725 c 128,-1,7
 1848 725 1848 725 1848 353 c 0,8,9
 1847 -18 1847 -18 1477 -18 c 0,10,11
 1104 -18 1104 -18 1104 351 c 0,5,6
393 1152.5 m 128,-1,13
 393 1019 393 1019 520 1019 c 0,14,15
 646 1019 646 1019 646 1152.5 c 128,-1,16
 646 1286 646 1286 519.5 1286 c 128,-1,12
 393 1286 393 1286 393 1152.5 c 128,-1,13
150 1156 m 0,17,18
 150 1530 150 1530 522 1530 c 128,-1,19
 894 1530 894 1530 894 1158 c 0,20,21
 893 787 893 787 523 787 c 0,22,23
 150 787 150 787 150 1156 c 0,17,18
447 0 m 1,24,-1
 1214 1510 l 1,25,-1
 1558 1510 l 9,26,-1
 788 0 l 17,27,-1
 447 0 l 1,24,-1
EndSplineSet
Validated: 1
EndChar

StartChar: ampersand
Encoding: 38 38 9
Width: 1796
GlyphClass: 2
Flags: W
HStem: -20 274<568.008 949.972> 0 21G<1263.65 1696> 1244 286<634.242 1084.5>
VStem: 160 350<311.563 608.26> 260 337<1003.05 1200.58> 1192 350<639.988 928>
DStem2: 903 972 727 692 0.632152 -0.774844<76.9368 432.578 825.223 991.47>
LayerCount: 2
Fore
SplineSet
727 692 m 17,0,1
 510 692 510 692 510 412 c 2,2,-1
 510 406 l 2,3,4
 510 254 510 254 762 254 c 24,5,6
 918 254 918 254 1007 338 c 1,7,-1
 727 692 l 17,0,1
1696 0 m 1,8,-1
 1280 0 l 1,9,-1
 1177 126 l 1,10,11
 962 -20 962 -20 660 -20 c 0,12,13
 160 -20 160 -20 160 398 c 2,14,-1
 160 404 l 2,15,16
 160 665 160 665 333 803 c 1,17,18
 260 888 260 888 260 1029 c 2,19,-1
 260 1031 l 2,20,21
 260 1530 260 1530 899 1530 c 0,22,23
 1270 1530 1270 1530 1272 1188 c 1,24,-1
 936 1092 l 17,25,26
 936 1244 936 1244 765 1244 c 0,27,28
 597 1244 597 1244 597 1085 c 2,29,-1
 597 1083 l 2,30,31
 597 972 597 972 778 972 c 2,32,-1
 903 972 l 1,33,-1
 1173 634 l 1,34,35
 1192 746 1192 746 1192 928 c 9,36,-1
 1542 989 l 17,37,38
 1542 552 1542 552 1417 344 c 1,39,-1
 1696 0 l 1,8,-1
EndSplineSet
Validated: 1
EndChar

StartChar: quotesingle
Encoding: 39 39 10
Width: 709
GlyphClass: 2
Flags: W
HStem: 843 667<209 500>
VStem: 209 291<843 1088.18>
LayerCount: 2
Fore
SplineSet
209 843 m 1,0,-1
 170 1510 l 1,1,-1
 539 1510 l 1,2,-1
 500 843 l 1,3,-1
 209 843 l 1,0,-1
EndSplineSet
Validated: 1
EndChar

StartChar: parenleft
Encoding: 40 40 11
Width: 1057
GlyphClass: 2
Flags: W
VStem: 250 350<409.795 1108.7>
LayerCount: 2
Fore
SplineSet
648 1797 m 1,0,-1
 957 1797 l 1,1,2
 791 1583 791 1583 686 1307 c 0,3,4
 600 1081 600 1081 600 771 c 0,5,6
 600 450 600 450 686 223 c 0,7,8
 790 -52 790 -52 957 -267 c 1,9,-1
 648 -267 l 1,10,11
 522 -119 522 -119 386 160 c 128,-1,12
 250 439 250 439 250 765 c 0,13,14
 250 1074 250 1074 386 1368 c 0,15,16
 502 1619 502 1619 648 1797 c 1,0,-1
EndSplineSet
Validated: 1
EndChar

StartChar: parenright
Encoding: 41 41 12
Width: 1057
GlyphClass: 2
Flags: W
VStem: 457 350<409.795 1108.7>
LayerCount: 2
Fore
SplineSet
409 1797 m 1,0,1
 555 1619 555 1619 671 1368 c 0,2,3
 807 1074 807 1074 807 765 c 0,4,5
 807 439 807 439 671 160 c 128,-1,6
 535 -119 535 -119 409 -267 c 1,7,-1
 100 -267 l 1,8,9
 267 -52 267 -52 371 223 c 0,10,11
 457 450 457 450 457 771 c 0,12,13
 457 1081 457 1081 371 1307 c 0,14,15
 266 1583 266 1583 100 1797 c 1,16,-1
 409 1797 l 1,0,1
EndSplineSet
Validated: 1
EndChar

StartChar: asterisk
Encoding: 42 42 13
Width: 1333
GlyphClass: 2
Flags: W
HStem: 1490 20G<528 805>
VStem: 528 277<477 754 1233 1510>
DStem2: 288 1372 150 1132 0.865912 -0.500197<0.551469 277.346 757.112 1033.59> 150 855 288 615 0.865912 0.500197<0 276.795 757.061 1033.04>
LayerCount: 2
Fore
SplineSet
528 1510 m 1,0,-1
 805 1510 l 1,1,-1
 805 1233 l 1,2,-1
 1045 1372 l 1,3,-1
 1183 1132 l 1,4,-1
 944 994 l 1,5,-1
 1183 855 l 1,6,-1
 1045 615 l 1,7,-1
 805 754 l 1,8,-1
 805 477 l 1,9,-1
 528 477 l 1,10,-1
 528 754 l 1,11,-1
 288 615 l 1,12,-1
 150 855 l 1,13,-1
 390 994 l 1,14,-1
 150 1132 l 1,15,-1
 288 1372 l 1,16,-1
 528 1233 l 1,17,-1
 528 1510 l 1,0,-1
EndSplineSet
Validated: 1
EndChar

StartChar: plus
Encoding: 43 43 14
Width: 1333
GlyphClass: 2
Flags: W
HStem: 621 277<150 528 805 1183>
VStem: 528 277<243 621 898 1276>
LayerCount: 2
Fore
SplineSet
150 621 m 1,0,-1
 150 898 l 1,1,-1
 528 898 l 1,2,-1
 528 1276 l 1,3,-1
 805 1276 l 1,4,-1
 805 898 l 1,5,-1
 1183 898 l 1,6,-1
 1183 621 l 1,7,-1
 805 621 l 1,8,-1
 805 243 l 1,9,-1
 528 243 l 1,10,-1
 528 621 l 1,11,-1
 150 621 l 1,0,-1
EndSplineSet
Validated: 1
EndChar

StartChar: comma
Encoding: 44 44 15
Width: 790
GlyphClass: 2
Flags: W
HStem: -410 21G<313.635 486.5>
VStem: 304 336<-132.665 124.543>
LayerCount: 2
Fore
SplineSet
414 437 m 1,0,1
 640 281 640 281 640 14 c 0,2,3
 640 -227 640 -227 333 -410 c 1,4,-1
 150 -221 l 1,5,6
 304 -145 304 -145 304 1 c 0,7,8
 304 127 304 127 152 213 c 1,9,-1
 414 437 l 1,0,1
EndSplineSet
Validated: 1
EndChar

StartChar: hyphen
Encoding: 45 45 16
Width: 1333
GlyphClass: 2
Flags: W
HStem: 621 277<150 1183>
LayerCount: 2
Fore
SplineSet
1183 621 m 1,0,-1
 150 621 l 1,1,-1
 150 898 l 1,2,-1
 1183 898 l 1,3,-1
 1183 621 l 1,0,-1
EndSplineSet
Validated: 1
EndChar

StartChar: period
Encoding: 46 46 17
Width: 702
GlyphClass: 2
Flags: W
HStem: -20 406<206.728 495.272>
VStem: 150 402<37.292 328.426>
LayerCount: 2
Fore
SplineSet
150 182 m 0,0,1
 150 386 150 386 351 386 c 128,-1,2
 552 386 552 386 552 183 c 128,-1,3
 552 -20 552 -20 351 -20 c 128,-1,4
 150 -20 150 -20 150 182 c 0,0,1
EndSplineSet
Validated: 1
EndChar

StartChar: slash
Encoding: 47 47 18
Width: 1263
GlyphClass: 2
Flags: W
DStem2: 50 -68 331 -200 0.445193 0.895434<6.90201 1979.82>
LayerCount: 2
Fore
SplineSet
931 1705 m 1,0,-1
 1213 1574 l 1,1,-1
 331 -200 l 1,2,-1
 50 -68 l 1,3,-1
 931 1705 l 1,0,-1
EndSplineSet
Validated: 1
EndChar

StartChar: zero
Encoding: 48 48 19
Width: 1538
GlyphClass: 2
Flags: W
HStem: -20 274<569.884 908.726> 1256 274<629.274 968.116>
VStem: 160 350<312.356 1118.06> 1028 350<391.938 1197.64>
LayerCount: 2
Fore
SplineSet
510 416 m 2,0,1
 510 254 510 254 762 254 c 0,2,3
 1028 254 1028 254 1028 611 c 2,4,-1
 1028 1094 l 2,5,6
 1028 1256 1028 1256 776 1256 c 0,7,8
 510 1256 510 1256 510 899 c 2,9,-1
 510 416 l 2,0,1
160 399 m 2,10,11
 160 906 l 2,12,13
 160 1530 160 1530 878 1530 c 0,14,15
 1378 1530 1378 1530 1378 1111 c 2,16,-1
 1378 604 l 2,17,18
 1378 -20 1378 -20 660 -20 c 0,19,20
 160 -20 160 -20 160 399 c 2,10,11
EndSplineSet
Validated: 1
EndChar

StartChar: one
Encoding: 49 49 20
Width: 855
GlyphClass: 2
Flags: W
HStem: 0 21G<255 605> 1233 277<20 255>
VStem: 255 350<0 1228.44>
LayerCount: 2
Fore
SplineSet
255 0 m 1,0,-1
 255 1233 l 17,1,-1
 20 1233 l 1,2,-1
 20 1510 l 1,3,-1
 555 1510 l 1,4,5
 605 1409 605 1409 605 1210 c 2,6,-1
 605 0 l 1,7,-1
 255 0 l 1,0,-1
EndSplineSet
Validated: 1
EndChar

StartChar: two
Encoding: 50 50 21
Width: 1428
GlyphClass: 2
Flags: W
HStem: 0 277<489 1205.75> 1253 277<332.254 872.98>
VStem: 918 350<953.195 1214.62>
LayerCount: 2
Fore
SplineSet
130 0 m 1,0,1
 132 819 132 819 631 857 c 0,2,3
 918 879 918 879 918 1076 c 2,4,5
 918 1133 l 2,6,7
 918 1253 918 1253 688 1253 c 2,8,-1
 582 1253 l 2,9,10
 399 1253 399 1253 282 1183 c 1,11,-1
 282 1480 l 1,12,13
 399 1530 399 1530 582 1530 c 2,14,-1
 770 1530 l 2,15,16
 1268 1530 1268 1530 1268 1146 c 2,17,-1
 1268 1128 l 2,18,19
 1268 658 1268 658 689 579 c 0,20,21
 521 556 521 556 489 277 c 1,22,-1
 956 277 l 2,23,24
 1144 277 1144 277 1256 347 c 1,25,-1
 1256 50 l 1,26,27
 1139 0 1139 0 956 0 c 2,28,-1
 130 0 l 1,0,1
EndSplineSet
Validated: 1
EndChar

StartChar: three
Encoding: 51 51 22
Width: 1507
GlyphClass: 2
Flags: W
HStem: -20 274<566.721 894.644> 690 277<402 782.25> 1253 277<387.254 893.508>
VStem: 997 350<364.211 642.761>
LayerCount: 2
Fore
SplineSet
337 1480 m 1,0,1
 454 1530 454 1530 637 1530 c 2,2,-1
 768 1530 l 2,3,4
 1248 1530 1248 1530 1248 1207 c 2,5,-1
 1248 1186 l 2,6,7
 1248 1002 1248 1002 1115 891 c 1,8,9
 1347 802 1347 802 1347 584 c 2,10,-1
 1347 562 l 2,11,12
 1347 -20 1347 -20 629 -20 c 0,13,14
 130 -20 130 -20 130 400 c 9,15,-1
 480 496 l 17,16,17
 482 254 482 254 731 254 c 0,18,19
 997 254 997 254 997 532 c 2,20,-1
 997 553 l 2,21,22
 997 690 997 690 745 690 c 2,23,-1
 402 690 l 1,24,-1
 402 967 l 1,25,26
 909 967 909 967 909 1144 c 2,27,-1
 909 1164 l 2,28,29
 909 1253 909 1253 743 1253 c 2,30,-1
 637 1253 l 2,31,32
 454 1253 454 1253 337 1183 c 1,33,-1
 337 1480 l 1,0,1
EndSplineSet
Validated: 1
EndChar

StartChar: four
Encoding: 52 52 23
Width: 1471
GlyphClass: 2
Flags: W
HStem: 0 21G<921 1271> 368 277<550 921> 1490 20G<200 550>
VStem: 200 350<645 1510> 921 350<0 368 645 1285>
LayerCount: 2
Fore
SplineSet
550 1510 m 1,0,-1
 550 645 l 1,1,-1
 921 645 l 1,2,-1
 921 1285 l 1,3,-1
 1271 1285 l 1,4,-1
 1271 0 l 1,5,-1
 921 0 l 1,6,-1
 921 368 l 1,7,-1
 200 368 l 1,8,-1
 200 1510 l 1,9,-1
 550 1510 l 1,0,-1
EndSplineSet
Validated: 1
EndChar

StartChar: five
Encoding: 53 53 24
Width: 1507
GlyphClass: 2
Flags: W
HStem: -20 274<566.721 894.644> 690 277<640 948.766> 1232 278<662 1239>
VStem: 997 350<364.211 641.506>
LayerCount: 2
Fore
SplineSet
352 1510 m 1,0,-1
 1239 1510 l 1,1,-1
 1239 1232 l 1,2,-1
 662 1232 l 1,3,-1
 640 967 l 1,4,-1
 947 967 l 2,5,6
 1347 967 1347 967 1347 584 c 2,7,-1
 1347 562 l 2,8,9
 1347 -20 1347 -20 629 -20 c 0,10,11
 130 -20 130 -20 130 400 c 9,12,-1
 480 496 l 17,13,14
 482 254 482 254 731 254 c 0,15,16
 997 254 997 254 997 532 c 2,17,-1
 997 553 l 2,18,19
 997 690 997 690 745 690 c 2,20,-1
 294 690 l 1,21,-1
 352 1510 l 1,0,-1
EndSplineSet
Validated: 1
EndChar

StartChar: six
Encoding: 54 54 25
Width: 1538
GlyphClass: 2
Flags: W
HStem: -20 274<585.146 925.644> 690 274<592.863 976.375> 1256 274<629.5 939.536>
VStem: 160 350<324.12 611.031 902 1118.06> 1028 350<357.831 641.441 1113 1163.5>
LayerCount: 2
Fore
SplineSet
1371 1113 m 9,0,-1
 1028 1015 l 17,1,2
 1025 1256 1025 1256 776 1256 c 0,3,4
 511 1256 511 1256 510 902 c 1,5,6
 671 964 671 964 849 964 c 0,7,8
 1378 964 1378 964 1378 597 c 2,9,-1
 1378 575 l 2,10,11
 1378 -20 1378 -20 660 -20 c 0,12,13
 160 -20 160 -20 160 399 c 2,14,-1
 160 906 l 2,15,16
 160 1530 160 1530 878 1530 c 0,17,18
 1363 1530 1363 1530 1371 1113 c 9,0,-1
510 466 m 2,19,20
 510 460 l 2,21,22
 510 254 510 254 762 254 c 0,23,24
 1028 254 1028 254 1028 532 c 2,25,-1
 1028 553 l 2,26,27
 1028 690 1028 690 776 690 c 0,28,29
 510 690 510 690 510 466 c 2,19,20
EndSplineSet
Validated: 1
EndChar

StartChar: seven
Encoding: 55 55 26
Width: 1134
GlyphClass: 2
Flags: W
HStem: 0 21G<76 486.349> 1233 277<100.254 723>
VStem: 76 400<0 400>
DStem2: 76 0 476 0 0.464651 0.885494<185.86 1392.44>
LayerCount: 2
Fore
SplineSet
76 0 m 1,0,-1
 723 1233 l 1,1,-1
 350 1233 l 2,2,3
 166 1233 166 1233 50 1163 c 1,4,-1
 50 1460 l 1,5,6
 167 1510 167 1510 350 1510 c 2,7,-1
 1114 1510 l 1,8,-1
 1114 1233 l 1,9,-1
 476 0 l 1,10,-1
 76 0 l 1,0,-1
EndSplineSet
Validated: 1
EndChar

StartChar: eight
Encoding: 56 56 27
Width: 1538
GlyphClass: 2
Flags: W
HStem: -20 274<568.008 925.644> 690 283<624.557 897.816> 1244 286<634.242 912.212>
VStem: 160 350<311.563 589.138> 260 337<1003.05 1200.58> 938 340<1012.69 1210.92> 1028 350<352.006 643.875>
LayerCount: 2
Fore
SplineSet
510 406 m 2,0,1
 510 254 510 254 762 254 c 0,2,3
 1028 254 1028 254 1028 532 c 2,4,-1
 1028 553 l 2,5,6
 1028 690 1028 690 776 690 c 0,7,8
 510 690 510 690 510 412 c 2,9,-1
 510 406 l 2,0,1
938 1131 m 2,10,11
 938 1244 938 1244 765 1244 c 0,12,13
 597 1244 597 1244 597 1085 c 2,14,-1
 597 1083 l 2,15,16
 597 973 597 973 773 973 c 0,17,18
 938 973 938 973 938 1130 c 2,19,-1
 938 1131 l 2,10,11
160 398 m 2,20,-1
 160 404 l 2,21,22
 160 665 160 665 333 803 c 1,23,24
 260 888 260 888 260 1029 c 2,25,-1
 260 1031 l 2,26,27
 260 1530 260 1530 899 1530 c 0,28,29
 1278 1530 1278 1530 1278 1190 c 2,30,-1
 1278 1188 l 2,31,32
 1278 1006 1278 1006 1184 888 c 1,33,34
 1378 829 1378 829 1378 586 c 2,35,-1
 1378 565 l 2,36,37
 1378 -20 1378 -20 660 -20 c 0,38,39
 160 -20 160 -20 160 398 c 2,20,-1
EndSplineSet
Validated: 1
EndChar

StartChar: nine
Encoding: 57 57 28
Width: 1538
GlyphClass: 2
Flags: W
HStem: -20 274<598.464 908.5> 546 274<561.625 945.137> 1256 274<612.356 952.854>
VStem: 160 350<346.504 397 868.559 1152.17> 1028 350<391.938 608 898.969 1185.88>
LayerCount: 2
Fore
SplineSet
167 397 m 9,0,-1
 510 495 l 17,1,2
 513 254 513 254 762 254 c 0,3,4
 1027 254 1027 254 1028 608 c 1,5,6
 867 546 867 546 689 546 c 0,7,8
 160 546 160 546 160 913 c 2,9,-1
 160 935 l 2,10,11
 160 1530 160 1530 878 1530 c 0,12,13
 1378 1530 1378 1530 1378 1111 c 2,14,-1
 1378 604 l 2,15,16
 1378 -20 1378 -20 660 -20 c 0,17,18
 175 -20 175 -20 167 397 c 9,0,-1
1028 1044 m 2,19,20
 1028 1050 l 2,21,22
 1028 1256 1028 1256 776 1256 c 0,23,24
 510 1256 510 1256 510 978 c 2,25,-1
 510 957 l 2,26,27
 510 820 510 820 762 820 c 0,28,29
 1028 820 1028 820 1028 1044 c 2,19,20
EndSplineSet
Validated: 1
EndChar

StartChar: colon
Encoding: 58 58 29
Width: 702
GlyphClass: 2
Flags: W
HStem: -20 406<206.728 495.272> 558 406<206.728 495.272>
VStem: 150 402<37.292 328.426 615.292 906.426>
LayerCount: 2
Fore
SplineSet
150 760 m 0,0,1
 150 964 150 964 351 964 c 128,-1,2
 552 964 552 964 552 761 c 128,-1,3
 552 558 552 558 351 558 c 128,-1,4
 150 558 150 558 150 760 c 0,0,1
150 182 m 0,5,6
 150 386 150 386 351 386 c 128,-1,7
 552 386 552 386 552 183 c 128,-1,8
 552 -20 552 -20 351 -20 c 128,-1,9
 150 -20 150 -20 150 182 c 0,5,6
EndSplineSet
Validated: 1
EndChar

StartChar: semicolon
Encoding: 59 59 30
Width: 790
GlyphClass: 2
Flags: W
HStem: -410 21G<313.635 486.5> 558 406<266.728 555.272>
VStem: 210 402<615.292 906.426> 304 336<-132.665 124.543>
LayerCount: 2
Fore
SplineSet
414 437 m 1,0,1
 640 281 640 281 640 14 c 0,2,3
 640 -227 640 -227 333 -410 c 1,4,-1
 150 -221 l 1,5,6
 304 -145 304 -145 304 1 c 0,7,8
 304 127 304 127 152 213 c 1,9,-1
 414 437 l 1,0,1
210 760 m 0,10,11
 210 964 210 964 411 964 c 128,-1,12
 612 964 612 964 612 761 c 128,-1,13
 612 558 612 558 411 558 c 128,-1,14
 210 558 210 558 210 760 c 0,10,11
EndSplineSet
Validated: 1
EndChar

StartChar: less
Encoding: 60 60 31
Width: 1356
GlyphClass: 2
Flags: W
HStem: 41 396<760 1156> 1149 328<828 1156>
DStem2: 150 889 541 798 0.863343 0.504618<291.647 999.724> 541 798 150 630 0.862969 -0.505257<0 713.124>
LayerCount: 2
Fore
SplineSet
150 630 m 1,0,-1
 150 889 l 1,1,-1
 1156 1477 l 1,2,-1
 1156 1149 l 1,3,-1
 541 798 l 1,4,-1
 1156 437 l 1,5,-1
 1156 41 l 1,6,-1
 150 630 l 1,0,-1
EndSplineSet
Validated: 1
EndChar

StartChar: equal
Encoding: 61 61 32
Width: 1333
GlyphClass: 2
Flags: W
HStem: 394 277<150 1183> 848 277<150 1183>
LayerCount: 2
Fore
SplineSet
1183 394 m 1,0,-1
 150 394 l 1,1,-1
 150 671 l 1,2,-1
 1183 671 l 1,3,-1
 1183 394 l 1,0,-1
1183 848 m 1,4,-1
 150 848 l 1,5,-1
 150 1125 l 1,6,-1
 1183 1125 l 1,7,-1
 1183 848 l 1,4,-1
EndSplineSet
Validated: 1
EndChar

StartChar: greater
Encoding: 62 62 33
Width: 1356
GlyphClass: 2
Flags: W
HStem: 43 327<200 527> 1082 396<200 596>
DStem2: 200 1478 200 1082 0.862969 -0.505257<200.082 913.206> 200 370 200 43 0.863717 0.503978<0 708.082>
LayerCount: 2
Fore
SplineSet
1206 889 m 1,0,-1
 1206 630 l 1,1,-1
 200 43 l 1,2,-1
 200 370 l 1,3,-1
 815 721 l 1,4,-1
 200 1082 l 1,5,-1
 200 1478 l 1,6,-1
 1206 889 l 1,0,-1
EndSplineSet
Validated: 1
EndChar

StartChar: question
Encoding: 63 63 34
Width: 1538
GlyphClass: 2
Flags: W
HStem: -20 406<573.728 862.272> 1256 274<615.245 968.116>
VStem: 160 350<942 1129.05> 517 402<37.292 328.426> 1028 350<930.155 1198.44>
LayerCount: 2
Fore
SplineSet
517 182 m 0,0,1
 517 386 517 386 718 386 c 128,-1,2
 919 386 919 386 919 183 c 128,-1,3
 919 -20 919 -20 718 -20 c 128,-1,4
 517 -20 517 -20 517 182 c 0,0,1
160 846 m 17,5,6
 162 1530 162 1530 878 1530 c 0,7,8
 1378 1530 1378 1530 1378 1112 c 2,9,-1
 1378 1109 l 2,10,11
 1378 619 1378 619 998 619 c 0,12,13
 894 619 894 619 894 490 c 9,14,-1
 544 427 l 17,15,16
 546 866 546 866 855 866 c 0,17,18
 1028 866 1028 866 1028 1093 c 2,19,-1
 1028 1095 l 2,20,21
 1028 1256 1028 1256 776 1256 c 0,22,23
 510 1256 510 1256 510 942 c 9,24,-1
 160 846 l 17,5,6
EndSplineSet
Validated: 1
EndChar

StartChar: at
Encoding: 64 64 35
Width: 1616
GlyphClass: 2
Flags: W
HStem: -430 273<589.884 974.221> -20 720<579 949> 0 21G<1108.5 1486> 863 257<734.418 1045.57>
VStem: 180 350<-97.6438 675.766> 1066 350<691.606 851.101>
LayerCount: 2
Fore
SplineSet
937 -113 m 9,0,1
 1339 -114 l 17,2,3
 1193 -430 1193 -430 680 -430 c 0,4,5
 180 -430 180 -430 180 -11 c 2,6,-1
 180 496 l 2,7,8
 180 1120 180 1120 1032 1120 c 0,9,10
 1416 1120 1416 1120 1416 781 c 2,11,-1
 1416 300 l 2,12,13
 1416 142 1416 142 1486 0 c 1,14,-1
 1116 0 l 1,15,16
 1101 41 1101 41 1086 108 c 1,17,18
 949 -20 949 -20 799 -20 c 0,19,20
 579 -20 579 -20 579 248 c 2,21,-1
 579 255 l 2,22,23
 579 617 579 617 1066 700 c 1,24,25
 1066 863 1066 863 986 863 c 0,26,27
 530 863 530 863 530 489 c 2,28,-1
 530 5 l 2,29,30
 530 -157 530 -157 782 -157 c 0,31,32
 883 -157 883 -157 937 -113 c 9,0,1
1032 460 m 1,33,34
 884 405 884 405 884 315 c 2,35,-1
 884 310 l 2,36,37
 884 270 884 270 935 275 c 0,38,39
 984 279 984 279 1008 347 c 0,40,41
 1021 385 1021 385 1032 460 c 1,33,34
EndSplineSet
Validated: 1
EndChar

StartChar: B
Encoding: 66 66 36
Width: 1486
GlyphClass: 2
Flags: W
HStem: 0 277<550 890.063> 690 277<550 860.095> 1233 277<550 892.508>
VStem: 200 350<277 690 967 1232.38> 908 339<1014.82 1211.56> 996 350<384.211 639.532>
LayerCount: 2
Fore
SplineSet
200 0 m 1,0,-1
 200 1210 l 2,1,2
 200 1391 200 1391 130 1510 c 1,3,-1
 767 1510 l 2,4,5
 1247 1510 1247 1510 1247 1192 c 2,6,-1
 1247 1190 l 2,7,8
 1247 1006 1247 1006 1113 894 c 1,9,10
 1346 850 1346 850 1346 584 c 2,11,-1
 1346 582 l 2,12,13
 1346 0 1346 0 628 0 c 2,14,-1
 200 0 l 1,0,-1
550 277 m 1,15,-1
 730 277 l 2,16,17
 996 277 996 277 996 550 c 2,18,-1
 996 552 l 2,19,20
 996 690 996 690 744 690 c 2,21,-1
 550 690 l 1,22,-1
 550 277 l 1,15,-1
550 967 m 1,23,-1
 716 967 l 2,24,25
 908 967 908 967 908 1136 c 2,26,-1
 908 1146 l 2,27,28
 908 1233 908 1233 742 1233 c 2,29,-1
 550 1233 l 25,30,-1
 550 967 l 1,23,-1
EndSplineSet
Validated: 1
EndChar

StartChar: C
Encoding: 67 67 37
Width: 1538
GlyphClass: 2
Flags: W
HStem: -20 274<569.884 930.579> 1256 274<629.274 938.854>
VStem: 160 350<312.356 1118.06> 1028 350<345.777 507 1084 1163.71>
LayerCount: 2
Fore
SplineSet
1378 604 m 1,0,1
 1378 -20 1378 -20 660 -20 c 0,2,3
 160 -20 160 -20 160 399 c 2,4,-1
 160 906 l 2,5,6
 160 1530 160 1530 878 1530 c 0,7,8
 1378 1530 1378 1530 1378 1084 c 1,9,-1
 1028 988 l 1,10,11
 1028 1256 1028 1256 776 1256 c 0,12,13
 510 1256 510 1256 510 899 c 2,14,-1
 510 416 l 2,15,16
 510 254 510 254 762 254 c 0,17,18
 1028 254 1028 254 1028 507 c 1,19,-1
 1378 604 l 1,0,1
EndSplineSet
Validated: 1
EndChar

StartChar: D
Encoding: 68 68 38
Width: 1538
GlyphClass: 2
Flags: W
HStem: 0 277<550 904.668> 1233 277<550 967.355>
VStem: 200 350<277 1232.38> 1028 350<410.617 1178.44>
LayerCount: 2
Fore
SplineSet
200 0 m 1,0,-1
 200 1210 l 2,1,2
 200 1391 200 1391 130 1510 c 1,3,-1
 878 1510 l 2,4,5
 1378 1510 1378 1510 1378 1092 c 2,6,-1
 1378 622 l 2,7,8
 1378 0 1378 0 661 0 c 2,9,-1
 200 0 l 1,0,-1
550 277 m 1,10,-1
 763 277 l 2,11,12
 1028 277 1028 277 1028 629 c 2,13,-1
 1028 1075 l 2,14,15
 1028 1233 1028 1233 775 1233 c 2,16,-1
 550 1233 l 9,17,-1
 550 277 l 1,10,-1
EndSplineSet
Validated: 1
EndChar

StartChar: E
Encoding: 69 69 39
Width: 1334
GlyphClass: 2
Flags: W
HStem: 0 277<550 1203.75> 621 277<550 1115> 1233 277<550 1115>
VStem: 200 350<277 621 898 1232.27>
LayerCount: 2
Fore
SplineSet
200 0 m 1,0,-1
 200 1210 l 2,1,2
 200 1390 200 1390 130 1510 c 1,3,-1
 1115 1510 l 1,4,-1
 1115 1233 l 1,5,-1
 550 1233 l 25,6,-1
 550 898 l 1,7,-1
 1115 898 l 1,8,-1
 1115 621 l 1,9,-1
 550 621 l 1,10,-1
 550 277 l 1,11,-1
 954 277 l 2,12,13
 1137 277 1137 277 1254 347 c 1,14,-1
 1254 50 l 1,15,16
 1137 0 1137 0 954 0 c 2,17,-1
 200 0 l 1,0,-1
EndSplineSet
Validated: 1
EndChar

StartChar: F
Encoding: 70 70 40
Width: 1237
GlyphClass: 2
Flags: W
HStem: 0 21G<200 550> 621 277<550 1117> 1233 277<550 1117>
VStem: 200 350<0 621 898 1232.27>
LayerCount: 2
Fore
SplineSet
200 0 m 1,0,-1
 200 1210 l 2,1,2
 200 1390 200 1390 130 1510 c 1,3,-1
 1117 1510 l 1,4,-1
 1117 1233 l 1,5,-1
 550 1233 l 9,6,-1
 550 898 l 1,7,-1
 1117 898 l 1,8,-1
 1117 621 l 1,9,-1
 550 621 l 1,10,-1
 550 0 l 1,11,-1
 200 0 l 1,0,-1
EndSplineSet
Validated: 1
EndChar

StartChar: G
Encoding: 71 71 41
Width: 1538
GlyphClass: 2
Flags: W
HStem: -20 274<569.884 930.579> 621 277<749.341 1028> 1256 274<629.274 938.854>
VStem: 160 350<312.356 1118.06> 1028 350<345.777 621 1084 1163.71>
LayerCount: 2
Fore
SplineSet
1378 898 m 1,0,-1
 1378 604 l 18,1,2
 1378 -20 1378 -20 660 -20 c 0,3,4
 160 -20 160 -20 160 399 c 2,5,-1
 160 906 l 2,6,7
 160 1530 160 1530 878 1530 c 0,8,9
 1378 1530 1378 1530 1378 1084 c 1,10,-1
 1028 988 l 1,11,12
 1028 1256 1028 1256 776 1256 c 0,13,14
 510 1256 510 1256 510 899 c 2,15,-1
 510 416 l 2,16,17
 510 254 510 254 762 254 c 0,18,19
 1028 254 1028 254 1028 507 c 10,20,-1
 1028 621 l 1,21,-1
 1002 621 l 2,22,23
 810 621 810 621 702 551 c 1,24,-1
 702 848 l 1,25,26
 821 898 821 898 1002 898 c 2,27,-1
 1378 898 l 1,0,-1
EndSplineSet
Validated: 1
EndChar

StartChar: H
Encoding: 72 72 42
Width: 1556
GlyphClass: 2
Flags: W
HStem: 0 21G<200 550 1031 1426> 621 277<550 1006> 1490 20G<130 525 1006 1356>
VStem: 200 350<0 621 898 1457.27> 1006 350<52.7271 621 898 1510>
LayerCount: 2
Fore
SplineSet
200 0 m 1,0,-1
 200 1210 l 2,1,2
 200 1391 200 1391 130 1510 c 1,3,-1
 500 1510 l 1,4,5
 550 1409 550 1409 550 1210 c 2,6,-1
 550 898 l 1,7,-1
 1006 898 l 1,8,-1
 1006 1510 l 1,9,-1
 1356 1510 l 1,10,-1
 1356 300 l 2,11,12
 1356 119 1356 119 1426 0 c 1,13,-1
 1056 0 l 1,14,15
 1006 101 1006 101 1006 300 c 2,16,-1
 1006 621 l 1,17,-1
 550 621 l 1,18,-1
 550 0 l 1,19,-1
 200 0 l 1,0,-1
EndSplineSet
Validated: 1
EndChar

StartChar: I
Encoding: 73 73 43
Width: 750
GlyphClass: 2
Flags: W
HStem: 0 21G<200 550> 1490 20G<130 525>
VStem: 200 350<0 1457.27>
LayerCount: 2
Fore
SplineSet
200 0 m 1,0,-1
 200 1210 l 2,1,2
 200 1391 200 1391 130 1510 c 1,3,-1
 500 1510 l 1,4,5
 550 1409 550 1409 550 1210 c 2,6,-1
 550 0 l 1,7,-1
 200 0 l 1,0,-1
EndSplineSet
Validated: 1
EndChar

StartChar: J
Encoding: 74 74 44
Width: 1278
GlyphClass: 2
Flags: W
HStem: -20 278<249.5 662.643> 1233 277<326.328 728>
VStem: 728 350<324.81 1233>
LayerCount: 2
Fore
SplineSet
278 1460 m 1,0,1
 402 1510 402 1510 578 1510 c 2,2,-1
 1078 1510 l 1,3,-1
 1078 523 l 2,4,5
 1078 -20 1078 -20 439 -20 c 0,6,7
 60 -20 60 -20 60 411 c 9,8,-1
 410 507 l 17,9,10
 411 258 411 258 561 258 c 0,11,12
 728 258 728 258 728 518 c 2,13,-1
 728 1233 l 1,14,-1
 578 1233 l 2,15,16
 386 1233 386 1233 278 1163 c 1,17,-1
 278 1460 l 1,0,1
EndSplineSet
Validated: 1
EndChar

StartChar: K
Encoding: 75 75 45
Width: 1428
GlyphClass: 2
Flags: W
HStem: 0 21G<200 550 903 1298> 621 277<550 795.485> 1490 20G<130 525 860 1210>
VStem: 200 350<0 621 898 1457.27> 860 350<980.073 1510> 878 350<53.0859 534.921>
LayerCount: 2
Fore
SplineSet
200 0 m 1,0,-1
 200 1210 l 2,1,2
 200 1391 200 1391 130 1510 c 1,3,-1
 500 1510 l 1,4,5
 550 1409 550 1409 550 1210 c 2,6,-1
 550 898 l 1,7,-1
 677 898 l 2,8,9
 860 898 860 898 860 1162 c 2,10,-1
 860 1510 l 1,11,-1
 1210 1510 l 1,12,-1
 1210 1250 l 2,13,14
 1210 922 1210 922 1017 765 c 1,15,16
 1228 617 1228 617 1228 317 c 2,17,-1
 1228 300 l 2,18,19
 1228 119 1228 119 1298 0 c 1,20,-1
 928 0 l 1,21,22
 878 102 878 102 878 300 c 2,23,-1
 878 316 l 2,24,25
 878 621 878 621 677 621 c 2,26,-1
 550 621 l 1,27,-1
 550 0 l 1,28,-1
 200 0 l 1,0,-1
EndSplineSet
Validated: 1
EndChar

StartChar: L
Encoding: 76 76 46
Width: 1191
GlyphClass: 2
Flags: W
HStem: 0 277<550 1130.75> 1490 20G<130 525>
VStem: 200 350<277 1458.05>
LayerCount: 2
Fore
SplineSet
1181 347 m 1,0,1
 1181 50 l 1,2,3
 1064 0 1064 0 881 0 c 2,4,-1
 200 0 l 1,5,-1
 200 1210 l 2,6,7
 200 1390 200 1390 130 1510 c 1,8,-1
 500 1510 l 1,9,10
 550 1400 550 1400 550 1210 c 2,11,-1
 550 277 l 1,12,-1
 881 277 l 2,13,14
 1064 277 1064 277 1181 347 c 1,0,1
EndSplineSet
Validated: 1
EndChar

StartChar: O
Encoding: 79 79 47
Width: 1538
GlyphClass: 2
Flags: W
HStem: -20 274<569.884 908.726> 1256 274<629.274 968.116>
VStem: 160 350<312.356 1118.06> 1028 350<391.938 1197.64>
LayerCount: 2
Fore
SplineSet
510 416 m 2,0,1
 510 254 510 254 762 254 c 0,2,3
 1028 254 1028 254 1028 611 c 2,4,-1
 1028 1094 l 2,5,6
 1028 1256 1028 1256 776 1256 c 0,7,8
 510 1256 510 1256 510 899 c 2,9,-1
 510 416 l 2,0,1
160 399 m 2,10,11
 160 906 l 2,12,13
 160 1530 160 1530 878 1530 c 0,14,15
 1378 1530 1378 1530 1378 1111 c 2,16,-1
 1378 604 l 2,17,18
 1378 -20 1378 -20 660 -20 c 0,19,20
 160 -20 160 -20 160 399 c 2,10,11
EndSplineSet
Validated: 1
EndChar

StartChar: P
Encoding: 80 80 48
Width: 1424
GlyphClass: 2
Flags: W
HStem: 0 21G<200 550> 433 277<550 830.668> 1233 277<550 893.355>
VStem: 200 350<0 433 710 1232.38> 954 350<838.771 1168.92>
LayerCount: 2
Fore
SplineSet
200 0 m 1,0,-1
 200 1210 l 2,1,2
 200 1391 200 1391 130 1510 c 1,3,-1
 804 1510 l 2,4,5
 1304 1510 1304 1510 1304 1080 c 2,6,-1
 1304 1072 l 2,7,8
 1304 433 1304 433 587 433 c 2,9,-1
 550 433 l 1,10,-1
 550 0 l 1,11,-1
 200 0 l 1,0,-1
550 710 m 1,12,-1
 689 710 l 2,13,14
 954 710 954 710 954 1066 c 2,15,-1
 954 1073 l 2,16,17
 954 1233 954 1233 701 1233 c 2,18,-1
 550 1233 l 9,19,-1
 550 710 l 1,12,-1
EndSplineSet
Validated: 1
EndChar

StartChar: Q
Encoding: 81 81 49
Width: 1538
GlyphClass: 2
Flags: W
HStem: -20 274<569.884 825.082> 0 21G<1020.87 1458> 1256 274<629.274 968.116>
VStem: 160 350<312.356 1118.06> 1028 350<539.666 1197.64>
LayerCount: 2
Fore
SplineSet
1458 0 m 1,0,-1
 1037 0 l 1,1,-1
 1012 31 l 1,2,3
 866 -20 866 -20 660 -20 c 0,4,5
 160 -20 160 -20 160 399 c 2,6,-1
 160 906 l 2,7,8
 160 1530 160 1530 878 1530 c 0,9,10
 1378 1530 1378 1530 1378 1111 c 2,11,-1
 1378 604 l 2,12,13
 1378 369 1378 369 1277 223 c 1,14,-1
 1458 0 l 1,0,-1
510 416 m 2,15,16
 510 254 510 254 762 254 c 0,17,18
 797 254 797 254 828 260 c 1,19,-1
 536 623 l 1,20,-1
 951 623 l 1,21,-1
 1024 533 l 1,22,23
 1028 569 1028 569 1028 611 c 2,24,-1
 1028 1094 l 2,25,26
 1028 1256 1028 1256 776 1256 c 0,27,28
 510 1256 510 1256 510 899 c 2,29,-1
 510 416 l 2,15,16
EndSplineSet
Validated: 1
EndChar

StartChar: R
Encoding: 82 82 50
Width: 1490
GlyphClass: 2
Flags: W
HStem: 0 21G<200 550 935 1330> 433 277<550 839.874> 1233 277<550 893.355>
VStem: 200 350<0 433 710 1232.38> 910 350<52.7271 395.98> 954 350<839.701 1168.92>
LayerCount: 2
Fore
SplineSet
200 0 m 1,0,-1
 200 1210 l 2,1,2
 200 1391 200 1391 130 1510 c 1,3,-1
 804 1510 l 2,4,5
 1304 1510 1304 1510 1304 1080 c 2,6,-1
 1304 1072 l 2,7,8
 1304 754 1304 754 1126 594 c 1,9,10
 1260 502 1260 502 1260 322 c 2,11,-1
 1260 300 l 2,12,13
 1260 119 1260 119 1330 0 c 1,14,-1
 960 0 l 1,15,16
 910 101 910 101 910 300 c 2,17,-1
 910 316 l 2,18,19
 910 433 910 433 689 433 c 2,20,-1
 550 433 l 1,21,-1
 550 0 l 1,22,-1
 200 0 l 1,0,-1
550 710 m 1,23,-1
 689 710 l 2,24,25
 954 710 954 710 954 1066 c 2,26,-1
 954 1073 l 2,27,28
 954 1233 954 1233 701 1233 c 2,29,-1
 550 1233 l 1,30,-1
 550 710 l 1,23,-1
EndSplineSet
Validated: 1
EndChar

StartChar: S
Encoding: 83 83 51
Width: 1538
GlyphClass: 2
Flags: W
HStem: -20 274<608.9 925.644> 1256 274<607.617 918.742>
VStem: 200 350<1018.45 1197.94> 1028 350<357.831 621.195>
LayerCount: 2
Fore
SplineSet
160 440 m 9,0,-1
 510 536 l 17,1,2
 510 254 510 254 762 254 c 0,3,4
 1028 254 1028 254 1028 530 c 2,5,-1
 1028 532 l 2,6,7
 1028 667 1028 667 776 670 c 0,8,9
 200 677 200 677 200 1024 c 2,10,-1
 200 1027 l 2,11,12
 200 1530 200 1530 878 1530 c 0,13,14
 1329 1530 1329 1530 1337 1108 c 9,15,-1
 987 1012 l 17,16,17
 985 1256 985 1256 784 1256 c 0,18,19
 550 1256 550 1256 550 1097 c 2,20,-1
 550 1094 l 2,21,22
 550 984 550 984 799 971 c 0,23,24
 1378 941 1378 941 1378 577 c 2,25,-1
 1378 575 l 2,26,27
 1378 -20 1378 -20 660 -20 c 0,28,29
 160 -20 160 -20 160 440 c 9,0,-1
EndSplineSet
Validated: 1
EndChar

StartChar: T
Encoding: 84 84 52
Width: 1190
GlyphClass: 2
Flags: W
HStem: 0 21G<420 770> 1233 277<59.2188 420 770 1180>
VStem: 420 350<0 1233>
LayerCount: 2
Fore
SplineSet
420 0 m 1,0,-1
 420 1233 l 1,1,-1
 310 1233 l 2,2,3
 122 1233 122 1233 10 1163 c 1,4,5
 10 1460 l 1,6,7
 112 1510 112 1510 310 1510 c 2,8,-1
 1180 1510 l 1,9,-1
 1180 1233 l 1,10,-1
 770 1233 l 1,11,-1
 770 0 l 1,12,-1
 420 0 l 1,0,-1
EndSplineSet
Validated: 1
EndChar

StartChar: U
Encoding: 85 85 53
Width: 1556
GlyphClass: 2
Flags: W
HStem: -20 270<595.825 893.444> 1490 20G<130 525 1006 1356>
VStem: 200 350<295.35 1459.1> 1006 350<375.611 1510>
LayerCount: 2
Fore
SplineSet
130 1510 m 1,0,1
 500 1510 l 1,2,3
 550 1418 550 1418 550 1210 c 2,4,-1
 550 406 l 2,5,6
 550 250 550 250 755 250 c 0,7,8
 1006 250 1006 250 1006 602 c 2,9,-1
 1006 1510 l 1,10,-1
 1356 1510 l 1,11,-1
 1356 603 l 2,12,13
 1356 -20 1356 -20 700 -20 c 0,14,15
 200 -20 200 -20 200 407 c 2,16,-1
 200 1210 l 2,17,18
 200 1391 200 1391 130 1510 c 1,0,1
EndSplineSet
Validated: 1
EndChar

StartChar: V
Encoding: 86 86 54
Width: 1508
GlyphClass: 2
Flags: W
HStem: 0 21G<373 1118> 1490 20G<80 475 1018 1368>
VStem: 150 350<780.99 1457.27> 1018 350<967.046 1510>
LayerCount: 2
Fore
SplineSet
596 0 m 1,0,1
 150 486 150 486 150 1210 c 0,2,3
 150 1391 150 1391 80 1510 c 1,4,-1
 450 1510 l 1,5,6
 500 1409 500 1409 500 1210 c 0,7,8
 500 622 500 622 735 233 c 1,9,10
 1018 689 1018 689 1018 1510 c 1,11,-1
 1368 1510 l 1,12,13
 1367 505 1367 505 869 -0 c 9,14,-1
 596 0 l 1,0,1
EndSplineSet
Validated: 1
EndChar

StartChar: X
Encoding: 88 88 55
Width: 1424
GlyphClass: 2
Flags: W
HStem: 0 21G<138 488.5 909 1304> 1490 20G<120 514 936 1286>
VStem: 138 350<0 278.932> 190 348<1070 1457.63> 884 350<52.7271 468.062> 936 350<1248.45 1510>
LayerCount: 2
Fore
SplineSet
138 0 m 1,0,1
 140 467 140 467 461 740 c 1,2,3
 190 915 190 915 190 1210 c 0,4,5
 190 1391 190 1391 120 1510 c 1,6,-1
 490 1510 l 1,7,8
 538 1410 538 1410 538 1210 c 0,9,10
 538 1067 538 1067 703 948 c 1,11,12
 936 1185 936 1185 936 1510 c 1,13,-1
 1286 1510 l 1,14,15
 1286 1087 1286 1087 959 813 c 1,16,17
 1234 638 1234 638 1234 300 c 0,18,19
 1234 119 1234 119 1304 0 c 1,20,-1
 934 0 l 1,21,22
 884 101 884 101 884 300 c 0,23,24
 884 488 884 488 723 597 c 1,25,26
 489 354 489 354 488 0 c 1,27,-1
 138 0 l 1,0,1
EndSplineSet
Validated: 1
EndChar

StartChar: Y
Encoding: 89 89 56
Width: 1486
GlyphClass: 2
Flags: W
HStem: 0 740<565.044 867.903> 1490 20G<100 495 976 1326>
VStem: 170 350<786.605 1449.06> 558 350<0 480.854> 976 350<868.875 1510>
LayerCount: 2
Fore
SplineSet
558 0 m 1,0,-1
 558 476 l 1,1,2
 170 520 170 520 170 896 c 2,3,-1
 170 1210 l 2,4,5
 170 1361 170 1361 100 1510 c 1,6,-1
 470 1510 l 1,7,8
 520 1360 520 1360 520 1210 c 2,9,-1
 520 895 l 2,10,11
 520 740 520 740 725 740 c 0,12,13
 976 740 976 740 976 1092 c 2,14,-1
 976 1510 l 1,15,-1
 1326 1510 l 1,16,-1
 1326 1093 l 2,17,18
 1326 595 1326 595 908 495 c 1,19,-1
 908 0 l 1,20,-1
 558 0 l 1,0,-1
EndSplineSet
Validated: 1
EndChar

StartChar: Z
Encoding: 90 90 57
Width: 1297
GlyphClass: 2
Flags: W
HStem: 0 277<518 1166.42> 1233 277<201.254 786>
DStem2: 80 277 518 277 0.59406 0.804421<260.198 1188.43>
LayerCount: 2
Fore
SplineSet
80 0 m 1,0,-1
 80 277 l 1,1,-1
 786 1233 l 1,2,-1
 451 1233 l 2,3,4
 267 1233 267 1233 151 1163 c 1,5,-1
 151 1460 l 1,6,7
 268 1510 268 1510 451 1510 c 2,8,-1
 1215 1510 l 1,9,-1
 1215 1233 l 1,10,-1
 518 277 l 1,11,-1
 917 277 l 2,12,13
 1099 277 1099 277 1217 347 c 1,14,-1
 1217 50 l 1,15,16
 1100 0 1100 0 917 0 c 2,17,-1
 80 0 l 1,0,-1
EndSplineSet
Validated: 1
EndChar

StartChar: bracketleft
Encoding: 91 91 58
Width: 1003
GlyphClass: 2
Flags: W
HStem: -289 300<550 953> 1518 300<550 953>
VStem: 200 753<-289 11 1518 1818> 200 350<11 1518>
LayerCount: 2
Fore
SplineSet
200 -289 m 1,0,-1
 200 1818 l 1,1,-1
 953 1818 l 1,2,-1
 953 1518 l 1,3,-1
 550 1518 l 1,4,-1
 550 11 l 1,5,-1
 953 11 l 1,6,-1
 953 -289 l 1,7,-1
 200 -289 l 1,0,-1
EndSplineSet
Validated: 1
EndChar

StartChar: backslash
Encoding: 92 92 59
Width: 1263
GlyphClass: 2
Flags: W
DStem2: 332 1705 50 1574 0.445193 -0.895434<0 1972.92>
LayerCount: 2
Fore
SplineSet
332 1705 m 1,0,-1
 1213 -68 l 1,1,-1
 932 -200 l 1,2,-1
 50 1574 l 1,3,-1
 332 1705 l 1,0,-1
EndSplineSet
Validated: 1
EndChar

StartChar: bracketright
Encoding: 93 93 60
Width: 1003
GlyphClass: 2
Flags: W
HStem: -289 300<50 453> 1518 300<50 453>
VStem: 50 753<-289 11 1518 1818> 453 350<11 1518>
LayerCount: 2
Fore
SplineSet
50 -289 m 1,0,-1
 50 11 l 1,1,-1
 453 11 l 1,2,-1
 453 1518 l 1,3,-1
 50 1518 l 1,4,-1
 50 1818 l 1,5,-1
 803 1818 l 1,6,-1
 803 -289 l 1,7,-1
 50 -289 l 1,0,-1
EndSplineSet
Validated: 1
EndChar

StartChar: asciicircum
Encoding: 94 94 61
Width: 1478
GlyphClass: 2
Flags: W
HStem: 837 673
LayerCount: 2
Fore
SplineSet
100 837 m 1,0,-1
 611 1510 l 1,1,-1
 867 1510 l 1,2,-1
 1378 837 l 1,3,-1
 925 837 l 1,4,-1
 710 1129 l 1,5,-1
 494 837 l 1,6,-1
 100 837 l 1,0,-1
EndSplineSet
Validated: 1
EndChar

StartChar: underscore
Encoding: 95 95 62
Width: 1333
GlyphClass: 2
Flags: W
HStem: -410 277<150 1183>
LayerCount: 2
Fore
SplineSet
1183 -410 m 1,0,-1
 150 -410 l 1,1,-1
 150 -133 l 1,2,-1
 1183 -133 l 1,3,-1
 1183 -410 l 1,0,-1
EndSplineSet
Validated: 1
EndChar

StartChar: grave
Encoding: 96 96 63
Width: 1004
GlyphClass: 2
Flags: W
HStem: 1510 20G<390 427.796>
LayerCount: 2
Fore
SplineSet
648 825 m 1,0,-1
 150 1270 l 1,1,-1
 410 1530 l 1,2,-1
 854 1031 l 1,3,-1
 648 825 l 1,0,-1
EndSplineSet
Validated: 1
EndChar

StartChar: a
Encoding: 97 97 64
Width: 1318
GlyphClass: 2
Flags: W
HStem: -20 289<452.341 642.571> 0 21G<810.5 1188> 850 270<552.638 746.161>
VStem: 768 350<694.542 831.742>
LayerCount: 2
Fore
SplineSet
192 850 m 17,0,1
 350 1120 350 1120 734 1120 c 128,-1,2
 1118 1120 1118 1120 1118 781 c 2,3,-1
 1118 300 l 2,4,5
 1118 142 1118 142 1188 0 c 1,6,-1
 818 0 l 1,7,8
 803 41 803 41 788 108 c 1,9,10
 652 -20 652 -20 479 -20 c 0,11,12
 100 -20 100 -20 100 251 c 2,13,-1
 100 257 l 2,14,15
 100 617 100 617 768 700 c 1,16,17
 768 846 768 846 676 846 c 0,18,19
 514 846 514 846 471 724 c 9,20,-1
 192 850 l 17,0,1
734 460 m 1,21,22
 449 405 449 405 449 314 c 2,23,-1
 449 309 l 2,24,25
 449 269 449 269 540 269 c 0,26,27
 611 269 611 269 668 340 c 0,28,29
 719 404 719 404 734 460 c 1,21,22
EndSplineSet
Validated: 1
EndChar

StartChar: b
Encoding: 98 98 65
Width: 1378
GlyphClass: 2
Flags: W
HStem: -20 286<386.461 815.593> 820 300<687.186 854.649> 1490 20G<130 525>
VStem: 200 350<300.737 616.86 1015 1457.27> 868 350<320.641 809.364>
LayerCount: 2
Fore
SplineSet
130 1510 m 1,0,-1
 500 1510 l 1,1,2
 550 1409 550 1409 550 1210 c 2,3,-1
 550 1015 l 1,4,5
 662 1120 662 1120 839 1120 c 0,6,7
 1218 1120 1218 1120 1218 789 c 2,8,-1
 1218 496 l 2,9,10
 1218 -20 1218 -20 579 -20 c 0,11,12
 200 -20 200 -20 200 311 c 2,13,-1
 200 1210 l 2,14,15
 200 1391 200 1391 130 1510 c 1,0,-1
868 501 m 2,16,-1
 868 718 l 2,17,18
 868 820 868 820 788 820 c 0,19,20
 692 820 692 820 626 688 c 0,21,22
 550 536 550 536 550 386 c 2,23,-1
 550 379 l 2,24,25
 550 266 550 266 713 266 c 0,26,27
 868 266 868 266 868 501 c 2,16,-1
EndSplineSet
Validated: 1
EndChar

StartChar: c
Encoding: 99 99 66
Width: 1338
GlyphClass: 2
Flags: W
HStem: -20 274<521.693 795.539> 846 274<561.701 792.805>
VStem: 150 350<287.647 779.359>
LayerCount: 2
Fore
SplineSet
1188 496 m 1,0,1
 1188 -20 1188 -20 560 -20 c 0,2,3
 150 -20 150 -20 150 342 c 2,4,-1
 150 604 l 2,5,6
 150 1120 150 1120 778 1120 c 0,7,8
 1187 1120 1187 1120 1188 758 c 1,9,-1
 838 660 l 1,10,11
 838 846 838 846 676 846 c 0,12,13
 500 846 500 846 500 599 c 2,14,-1
 500 363 l 2,15,16
 500 254 500 254 662 254 c 0,17,18
 838 254 838 254 838 398 c 1,19,-1
 1188 496 l 1,0,1
EndSplineSet
Validated: 1
EndChar

StartChar: d
Encoding: 100 100 67
Width: 1378
GlyphClass: 2
Flags: W
HStem: -20 300<523.351 686.095> 0 21G<871 1248> 834 286<564.022 803.917> 1490 20G<758 1153>
VStem: 160 350<290.636 779.359> 828 350<474.472 807.019 1098 1458.45>
LayerCount: 2
Fore
SplineSet
510 599 m 2,0,-1
 510 382 l 2,1,2
 510 280 510 280 590 280 c 0,3,4
 675 280 675 280 752 412 c 0,5,6
 828 540 828 540 828 713 c 2,7,-1
 828 719 l 2,8,9
 828 834 828 834 665 834 c 0,10,11
 510 834 510 834 510 599 c 2,0,-1
1248 0 m 1,12,-1
 878 0 l 1,13,14
 864 35 864 35 848 108 c 1,15,16
 699 -20 699 -20 539 -20 c 0,17,18
 160 -20 160 -20 160 311 c 2,19,-1
 160 604 l 2,20,21
 160 1120 160 1120 658 1120 c 0,22,23
 748 1120 748 1120 828 1098 c 1,24,-1
 828 1210 l 2,25,26
 828 1391 828 1391 758 1510 c 1,27,-1
 1128 1510 l 1,28,29
 1178 1389 1178 1389 1178 1210 c 2,30,-1
 1178 300 l 2,31,32
 1178 105 1178 105 1248 0 c 1,12,-1
EndSplineSet
Validated: 1
EndChar

StartChar: e
Encoding: 101 101 68
Width: 1338
GlyphClass: 2
Flags: W
HStem: -20 274<521.693 804.506> 846 274<558.932 805.063>
VStem: 150 350<287.647 411 654 779.359>
DStem2: 500 654 500 411 0.956049 0.293207<0 346.359>
LayerCount: 2
Fore
SplineSet
1188 496 m 1,0,1
 1188 -20 1188 -20 560 -20 c 0,2,3
 150 -20 150 -20 150 342 c 2,4,-1
 150 604 l 2,5,6
 150 1120 150 1120 778 1120 c 0,7,8
 1188 1120 1188 1120 1188 622 c 1,9,-1
 500 411 l 1,10,-1
 500 363 l 2,11,12
 500 254 500 254 662 254 c 0,13,14
 838 254 838 254 838 393 c 1,15,-1
 1188 496 l 1,0,1
500 654 m 1,16,-1
 831 756 l 1,17,18
 806 846 806 846 676 846 c 0,19,20
 513 846 513 846 500 654 c 1,16,-1
EndSplineSet
Validated: 1
EndChar

StartChar: f
Encoding: 102 102 69
Width: 1028
GlyphClass: 2
Flags: W
HStem: 0 21G<220 570> 630 277<570 870> 1256 274<631.701 940.703>
VStem: 220 350<0 579 907 1189.36>
LayerCount: 2
Fore
SplineSet
220 0 m 1,0,-1
 220 579 l 9,1,2
 164 570 164 570 113 534 c 1,3,-1
 113 819 l 1,4,5
 164 848 164 848 220 855 c 1,6,-1
 220 1014 l 2,7,8
 220 1530 220 1530 848 1530 c 0,9,10
 935 1530 935 1530 1018 1512 c 9,11,-1
 929 1211 l 17,12,13
 840 1256 840 1256 746 1256 c 0,14,15
 570 1256 570 1256 570 1009 c 2,16,-1
 570 907 l 1,17,-1
 870 907 l 1,18,-1
 870 630 l 1,19,-1
 570 630 l 1,20,-1
 570 0 l 1,21,-1
 220 0 l 1,0,-1
EndSplineSet
Validated: 3073
EndChar

StartChar: g
Encoding: 103 103 70
Width: 1338
GlyphClass: 2
Flags: W
HStem: -430 257<422.573 696.319> -20 300<513.351 680.113> 834 286<552.407 981.539>
VStem: 150 350<290.636 779.359> 818 350<483.14 799.263>
LayerCount: 2
Fore
SplineSet
500 599 m 2,0,-1
 500 382 l 2,1,2
 500 280 500 280 580 280 c 0,3,4
 675 280 675 280 742 412 c 0,5,6
 818 564 818 564 818 714 c 2,7,-1
 818 721 l 2,8,9
 818 834 818 834 655 834 c 0,10,11
 500 834 500 834 500 599 c 2,0,-1
173 -220 m 9,12,-1
 516 -122 l 17,13,14
 536 -173 536 -173 580 -173 c 0,15,16
 746 -173 746 -173 801 96 c 1,17,18
 686 -20 686 -20 529 -20 c 0,19,20
 150 -20 150 -20 150 311 c 2,21,-1
 150 604 l 2,22,23
 150 1120 150 1120 789 1120 c 0,24,25
 1168 1120 1168 1120 1168 789 c 2,26,-1
 1168 412 l 2,27,28
 1168 -430 1168 -430 529 -430 c 0,29,30
 268 -430 268 -430 173 -220 c 9,12,-1
EndSplineSet
Validated: 1
EndChar

StartChar: h
Encoding: 104 104 71
Width: 1418
GlyphClass: 2
Flags: W
HStem: 0 21G<200 550 893 1288> 820 300<685.112 853.751> 1490 20G<130 525>
VStem: 200 350<0 589.048 992 1457.27> 868 350<56.4053 810.219>
LayerCount: 2
Fore
SplineSet
200 0 m 1,0,-1
 200 1210 l 2,1,2
 200 1391 200 1391 130 1510 c 1,3,-1
 500 1510 l 1,4,5
 550 1409 550 1409 550 1210 c 2,6,-1
 550 992 l 1,7,8
 660 1120 660 1120 839 1120 c 0,9,10
 1218 1120 1218 1120 1218 779 c 2,11,-1
 1218 300 l 2,12,13
 1218 129 1218 129 1288 0 c 1,14,-1
 918 0 l 1,15,16
 868 136 868 136 868 300 c 2,17,-1
 868 705 l 2,18,19
 868 820 868 820 788 820 c 0,20,21
 550 820 550 820 550 129 c 2,22,-1
 550 0 l 1,23,-1
 200 0 l 1,0,-1
EndSplineSet
Validated: 1
EndChar

StartChar: i
Encoding: 105 105 72
Width: 750
GlyphClass: 2
Flags: W
HStem: 0 21G<225 620> 1080 20G<130 525> 1169 381<200.341 470.224>
VStem: 147 376<1220.84 1499.48> 200 350<55.7578 1041.33>
LayerCount: 2
Fore
SplineSet
336 1550 m 0,0,1
 523 1550 523 1550 523 1360 c 0,2,3
 523 1169 523 1169 334 1169 c 0,4,5
 147 1169 147 1169 147 1364 c 0,6,7
 147 1550 147 1550 336 1550 c 0,0,1
250 0 m 1,8,9
 200 134 200 134 200 300 c 2,10,-1
 200 800 l 2,11,12
 200 957 200 957 130 1100 c 1,13,-1
 500 1100 l 1,14,15
 550 959 550 959 550 800 c 2,16,-1
 550 300 l 2,17,18
 550 127 550 127 620 0 c 1,19,-1
 250 0 l 1,8,9
EndSplineSet
Validated: 1
EndChar

StartChar: j
Encoding: 106 106 73
Width: 750
GlyphClass: 2
Flags: W
HStem: -430 21G<10 280> 1080 20G<130 525> 1169 381<200.341 470.224>
VStem: 147 376<1220.84 1499.48> 200 350<29 1041.33>
LayerCount: 2
Fore
SplineSet
336 1550 m 0,0,1
 523 1550 523 1550 523 1360 c 0,2,3
 523 1169 523 1169 334 1169 c 0,4,5
 147 1169 147 1169 147 1364 c 0,6,7
 147 1550 147 1550 336 1550 c 0,0,1
130 1100 m 1,8,-1
 500 1100 l 1,9,10
 550 959 550 959 550 800 c 2,11,-1
 550 300 l 2,12,13
 550 -301 550 -301 10 -430 c 1,14,-1
 10 -164 l 1,15,16
 200 -30 200 -30 200 300 c 2,17,-1
 200 800 l 2,18,19
 200 957 200 957 130 1100 c 1,8,-1
EndSplineSet
Validated: 3073
EndChar

StartChar: k
Encoding: 107 107 74
Width: 1402
GlyphClass: 2
Flags: W
HStem: 0 21G<200 556.553 845 1240> 853 267<822.812 1111> 1490 20G<130 525>
VStem: 200 350<0 43.7513 715 1457.27> 820 350<44.25 383.383>
LayerCount: 2
Fore
SplineSet
200 0 m 1,0,-1
 200 1210 l 2,1,2
 200 1391 200 1391 130 1510 c 1,3,-1
 500 1510 l 1,4,5
 550 1409 550 1409 550 1210 c 2,6,-1
 550 715 l 1,7,8
 579 841 579 841 659 965 c 0,9,10
 760 1120 760 1120 971 1120 c 0,11,12
 1251 1120 1251 1120 1252 787 c 1,13,-1
 926 696 l 1,14,15
 925 853 925 853 886 853 c 0,16,17
 815 853 815 853 749 638 c 1,18,19
 1170 599 1170 599 1170 306 c 2,20,-1
 1170 300 l 2,21,22
 1170 95 1170 95 1240 0 c 1,23,-1
 870 0 l 1,24,25
 820 68 820 68 820 300 c 2,26,-1
 820 308 l 2,27,28
 820 396 820 396 685 412 c 1,29,-1
 550 0 l 1,30,-1
 200 0 l 1,0,-1
EndSplineSet
Validated: 1
EndChar

StartChar: l
Encoding: 108 108 75
Width: 750
GlyphClass: 2
Flags: W
HStem: 0 21G<225 620> 1490 20G<130 525>
VStem: 200 350<46.3696 1457.27>
LayerCount: 2
Fore
SplineSet
250 0 m 1,0,1
 200 80 200 80 200 300 c 2,2,-1
 200 1210 l 2,3,4
 200 1391 200 1391 130 1510 c 1,5,-1
 500 1510 l 1,6,7
 550 1409 550 1409 550 1210 c 2,8,-1
 550 300 l 2,9,10
 550 105 550 105 620 0 c 1,11,-1
 250 0 l 1,0,1
EndSplineSet
Validated: 1
EndChar

StartChar: m
Encoding: 109 109 76
Width: 2086
GlyphClass: 2
Flags: W
HStem: 0 21G<200 550 868 1218 1561 1956> 820 300<684.16 855.306 1351.06 1521.75> 1080 20G<130 508>
VStem: 200 350<0 589.048> 868 350<0 589.048> 1536 350<56.4053 810.219>
CounterMasks: 1 1c
LayerCount: 2
Fore
SplineSet
200 0 m 1,0,-1
 200 800 l 2,1,2
 200 958 200 958 130 1100 c 1,3,-1
 500 1100 l 1,4,5
 516 1058 516 1058 530 992 c 1,6,7
 665 1120 665 1120 839 1120 c 0,8,9
 1079 1120 1079 1120 1178 972 c 1,10,11
 1327 1120 1327 1120 1507 1120 c 0,12,13
 1886 1120 1886 1120 1886 779 c 2,14,-1
 1886 300 l 2,15,16
 1886 129 1886 129 1956 0 c 1,17,-1
 1586 0 l 1,18,19
 1536 136 1536 136 1536 300 c 2,20,-1
 1536 705 l 2,21,22
 1536 820 1536 820 1456 820 c 0,23,24
 1218 820 1218 820 1218 129 c 2,25,-1
 1218 0 l 1,26,-1
 868 0 l 1,27,-1
 868 705 l 2,28,29
 868 820 868 820 788 820 c 0,30,31
 550 820 550 820 550 129 c 2,32,-1
 550 0 l 1,33,-1
 200 0 l 1,0,-1
EndSplineSet
Validated: 1
EndChar

StartChar: n
Encoding: 110 110 77
Width: 1418
GlyphClass: 2
Flags: W
HStem: 0 21G<200 550 893 1288> 820 300<684.658 853.751> 1080 20G<130 507.5>
VStem: 200 350<0 589.048> 868 350<56.4053 810.219>
LayerCount: 2
Fore
SplineSet
200 0 m 9,0,-1
 200 800 l 2,1,2
 200 958 200 958 130 1100 c 1,3,-1
 500 1100 l 1,4,5
 515 1059 515 1059 530 992 c 1,6,7
 667 1120 667 1120 839 1120 c 0,8,9
 1218 1120 1218 1120 1218 779 c 2,10,-1
 1218 300 l 2,11,12
 1218 129 1218 129 1288 0 c 1,13,-1
 918 0 l 1,14,15
 868 136 868 136 868 300 c 2,16,-1
 868 705 l 2,17,18
 868 820 868 820 788 820 c 0,19,20
 550 820 550 820 550 129 c 2,21,-1
 550 0 l 1,22,-1
 200 0 l 9,0,-1
EndSplineSet
Validated: 1
EndChar

StartChar: o
Encoding: 111 111 78
Width: 1338
GlyphClass: 2
Flags: W
HStem: -20 274<521.693 776.299> 846 274<561.701 816.307>
VStem: 150 350<287.647 779.359> 838 350<320.641 812.353>
LayerCount: 2
Fore
SplineSet
500 599 m 2,0,1
 500 363 l 2,2,3
 500 254 500 254 662 254 c 0,4,5
 838 254 838 254 838 501 c 2,6,-1
 838 737 l 2,7,8
 838 846 838 846 676 846 c 0,9,10
 500 846 500 846 500 599 c 2,0,1
150 604 m 2,11,12
 150 1120 150 1120 778 1120 c 0,13,14
 1188 1120 1188 1120 1188 758 c 2,15,-1
 1188 496 l 2,16,17
 1188 -20 1188 -20 560 -20 c 0,18,19
 150 -20 150 -20 150 342 c 2,20,-1
 150 604 l 2,11,12
EndSplineSet
Validated: 1
EndChar

StartChar: p
Encoding: 112 112 79
Width: 1378
GlyphClass: 2
Flags: W
HStem: -410 21G<200 550> -20 285<572.931 813.978> 819 301<692.591 854.649> 1080 20G<130 507>
VStem: 200 350<-410 1 291.981 624.528> 868 350<319.98 808.426>
LayerCount: 2
Fore
SplineSet
868 500 m 2,0,-1
 868 717 l 2,1,2
 868 819 868 819 788 819 c 0,3,4
 703 819 703 819 626 687 c 0,5,6
 550 559 550 559 550 386 c 2,7,-1
 550 380 l 2,8,9
 550 265 550 265 713 265 c 0,10,11
 868 265 868 265 868 500 c 2,0,-1
130 1100 m 1,12,-1
 500 1100 l 1,13,14
 514 1065 514 1065 530 992 c 1,15,16
 672 1120 672 1120 839 1120 c 0,17,18
 1218 1120 1218 1120 1218 788 c 2,19,-1
 1218 495 l 2,20,21
 1218 -20 1218 -20 720 -20 c 0,22,23
 631 -20 631 -20 550 1 c 1,24,-1
 550 -410 l 25,25,-1
 200 -410 l 25,26,-1
 200 799 l 2,27,28
 200 1000 200 1000 130 1100 c 1,12,-1
EndSplineSet
Validated: 1
EndChar

StartChar: q
Encoding: 113 113 80
Width: 1378
GlyphClass: 2
Flags: W
HStem: -410 21G<853 1248> -20 300<523.351 690.814> 834 286<562.407 991.539>
VStem: 160 350<290.636 779.359> 828 350<-357.273 85 483.14 799.263>
LayerCount: 2
Fore
SplineSet
1248 -410 m 1,0,-1
 878 -410 l 1,1,2
 828 -309 828 -309 828 -110 c 2,3,-1
 828 85 l 1,4,5
 716 -20 716 -20 539 -20 c 0,6,7
 160 -20 160 -20 160 311 c 2,8,-1
 160 604 l 2,9,10
 160 1120 160 1120 799 1120 c 0,11,12
 1178 1120 1178 1120 1178 789 c 2,13,-1
 1178 -110 l 2,14,15
 1178 -291 1178 -291 1248 -410 c 1,0,-1
510 599 m 2,16,-1
 510 382 l 2,17,18
 510 280 510 280 590 280 c 0,19,20
 686 280 686 280 752 412 c 0,21,22
 828 564 828 564 828 714 c 2,23,-1
 828 721 l 2,24,25
 828 834 828 834 665 834 c 0,26,27
 510 834 510 834 510 599 c 2,16,-1
EndSplineSet
Validated: 1
EndChar

StartChar: r
Encoding: 114 114 81
Width: 1228
GlyphClass: 2
Flags: W
HStem: 0 21G<200 550> 820 300<684.658 851.719> 1080 20G<130 507.5>
VStem: 200 350<0 589.048>
LayerCount: 2
Fore
SplineSet
200 0 m 9,0,-1
 200 800 l 2,1,2
 200 958 200 958 130 1100 c 1,3,-1
 500 1100 l 1,4,5
 515 1059 515 1059 530 992 c 1,6,7
 667 1120 667 1120 839 1120 c 0,8,9
 1218 1120 1218 1120 1218 779 c 9,10,-1
 868 681 l 17,11,12
 868 820 868 820 788 820 c 0,13,14
 550 820 550 820 550 129 c 2,15,-1
 550 0 l 1,16,-1
 200 0 l 9,0,-1
EndSplineSet
Validated: 1
EndChar

StartChar: t
Encoding: 116 116 82
Width: 969
GlyphClass: 2
Flags: W
HStem: 0 21G<335 730> 823 277<62.7271 310 660 959> 1490 20G<240 635>
VStem: 310 350<46.3696 823 1100 1457.27>
LayerCount: 2
Fore
SplineSet
360 0 m 1,0,1
 310 80 310 80 310 300 c 2,2,-1
 310 823 l 1,3,4
 129 823 129 823 10 753 c 1,5,-1
 10 1050 l 1,6,7
 111 1100 111 1100 310 1100 c 1,8,-1
 310 1210 l 2,9,10
 310 1391 310 1391 240 1510 c 1,11,-1
 610 1510 l 1,12,13
 660 1409 660 1409 660 1210 c 2,14,-1
 660 1100 l 1,15,-1
 959 1100 l 1,16,-1
 959 823 l 1,17,-1
 660 823 l 1,18,-1
 660 300 l 2,19,20
 660 105 660 105 730 0 c 1,21,-1
 360 0 l 1,0,1
EndSplineSet
Validated: 1
EndChar

StartChar: u
Encoding: 117 117 83
Width: 1418
GlyphClass: 2
Flags: W
HStem: -20 300<564.249 733.342> 0 21G<910.5 1288> 1080 20G<130 525 868 1218>
VStem: 200 350<289.781 1043.59> 868 350<510.952 1100>
LayerCount: 2
Fore
SplineSet
130 1100 m 1,0,-1
 500 1100 l 1,1,2
 550 964 550 964 550 800 c 2,3,-1
 550 395 l 2,4,5
 550 280 550 280 630 280 c 0,6,7
 868 280 868 280 868 971 c 2,8,-1
 868 1100 l 1,9,-1
 1218 1100 l 9,10,-1
 1218 300 l 2,11,12
 1218 142 1218 142 1288 0 c 1,13,-1
 918 0 l 1,14,15
 903 41 903 41 888 108 c 1,16,17
 751 -20 751 -20 579 -20 c 0,18,19
 200 -20 200 -20 200 321 c 2,20,-1
 200 800 l 2,21,22
 200 971 200 971 130 1100 c 1,0,-1
EndSplineSet
Validated: 1
EndChar

StartChar: v
Encoding: 118 118 84
Width: 1232
GlyphClass: 2
Flags: W
HStem: 0 21G<277 939.5> 1080 20G<30 424.5 801 1152>
VStem: 100 349<529.512 1041.33> 802 350<704.688 1100>
LayerCount: 2
Fore
SplineSet
454 0 m 1,0,1
 100 410 100 410 100 800 c 0,2,3
 100 957 100 957 30 1100 c 1,4,-1
 400 1100 l 1,5,6
 449 960 449 960 449 800 c 0,7,8
 449 517 449 517 594 252 c 1,9,10
 800 621 800 621 802 1100 c 1,11,-1
 1152 1100 l 1,12,13
 1150 430 1150 430 729 0 c 9,14,-1
 454 0 l 1,0,1
EndSplineSet
Validated: 1
EndChar

StartChar: w
Encoding: 119 119 85
Width: 2046
GlyphClass: 2
Flags: W
HStem: -20 300<564.249 734.178 1231.03 1413.57> 1080 20G<130 525 868 1218 1466 1861>
VStem: 200 350<289.781 1043.59> 868 350<510.952 1100> 1536 350<457.152 1043.59>
CounterMasks: 1 38
LayerCount: 2
Fore
SplineSet
130 1100 m 1,0,-1
 500 1100 l 1,1,2
 550 964 550 964 550 800 c 2,3,-1
 550 395 l 2,4,5
 550 280 550 280 630 280 c 0,6,7
 868 280 868 280 868 971 c 2,8,-1
 868 1100 l 1,9,-1
 1218 1100 l 1,10,-1
 1218 395 l 2,11,12
 1218 280 1218 280 1298 280 c 0,13,14
 1536 280 1536 280 1536 796 c 2,15,-1
 1536 800 l 2,16,17
 1536 971 1536 971 1466 1100 c 1,18,-1
 1836 1100 l 1,19,20
 1886 964 1886 964 1886 800 c 10,21,-1
 1886 794 l 18,22,23
 1886 -20 1886 -20 1247 -20 c 0,24,25
 1018 -20 1018 -20 914 136 c 1,26,27
 775 -20 775 -20 579 -20 c 0,28,29
 200 -20 200 -20 200 321 c 2,30,-1
 200 800 l 2,31,32
 200 971 200 971 130 1100 c 1,0,-1
EndSplineSet
Validated: 1
EndChar

StartChar: x
Encoding: 120 120 86
Width: 1229
GlyphClass: 2
Flags: W
HStem: 0 21G<100 450 744 1139> 1080 20G<90 485 778 1128>
VStem: 100 350<0 200.391 972.195 1100> 160 350<740.281 1041.33> 719 350<58.6714 380.203> 769 370<0 113.855 898.728 1100>
LayerCount: 2
Fore
SplineSet
100 0 m 17,0,1
 100 316 100 316 354 513 c 1,2,3
 160 620 160 620 160 800 c 0,4,5
 160 957 160 957 90 1100 c 1,6,-1
 460 1100 l 1,7,8
 510 958 510 958 510 800 c 0,9,10
 510 756 510 756 593 712 c 1,11,12
 778 871 778 871 778 1100 c 9,13,-1
 1128 1100 l 17,14,15
 1128 802 1128 802 885 604 c 1,16,17
 1069 509 1069 509 1069 300 c 0,18,19
 1069 143 1069 143 1139 0 c 1,20,-1
 769 0 l 1,21,22
 719 141 719 141 719 300 c 0,23,24
 719 359 719 359 643 402 c 1,25,26
 450 225 450 225 450 0 c 9,27,-1
 100 0 l 17,0,1
EndSplineSet
Validated: 1
EndChar

StartChar: y
Encoding: 121 121 87
Width: 1418
GlyphClass: 2
Flags: W
HStem: -430 257<472.821 736.937> -20 300<564.249 734.042> 1080 20G<130 525 868 1218>
VStem: 200 350<289.781 1043.59> 868 350<510.952 1100>
LayerCount: 2
Fore
SplineSet
130 1100 m 1,0,-1
 500 1100 l 1,1,2
 550 964 550 964 550 800 c 2,3,-1
 550 395 l 2,4,5
 550 280 550 280 630 280 c 0,6,7
 868 280 868 280 868 971 c 2,8,-1
 868 1100 l 1,9,-1
 1218 1100 l 1,10,-1
 1218 412 l 2,11,12
 1218 -430 1218 -430 579 -430 c 0,13,14
 319 -430 319 -430 223 -220 c 9,15,-1
 566 -122 l 17,16,17
 586 -173 586 -173 630 -173 c 0,18,19
 793 -173 793 -173 851 96 c 1,20,21
 736 -20 736 -20 579 -20 c 0,22,23
 200 -20 200 -20 200 321 c 2,24,-1
 200 800 l 2,25,26
 200 971 200 971 130 1100 c 1,0,-1
EndSplineSet
Validated: 1
EndChar

StartChar: z
Encoding: 122 122 88
Width: 1118
GlyphClass: 2
Flags: W
HStem: 0 277<503 987.746> 823 277<183.139 593>
DStem2: 80 277 503 277 0.68474 0.728788<289.645 749.19>
LayerCount: 2
Fore
SplineSet
80 0 m 1,0,-1
 80 277 l 1,1,-1
 593 823 l 1,2,-1
 429 823 l 2,3,4
 250 823 250 823 129 753 c 1,5,-1
 129 1050 l 1,6,7
 258 1100 258 1100 429 1100 c 2,8,-1
 1013 1100 l 1,9,-1
 1013 823 l 1,10,-1
 503 277 l 1,11,-1
 738 277 l 2,12,13
 921 277 921 277 1038 347 c 1,14,-1
 1038 50 l 1,15,16
 921 0 921 0 738 0 c 2,17,-1
 80 0 l 1,0,-1
EndSplineSet
Validated: 1
EndChar

StartChar: braceleft
Encoding: 123 123 89
Width: 988
GlyphClass: 2
Flags: W
HStem: -288 257<752.761 938> 1561 257<752.761 938>
VStem: 295 345<70.8047 633.719 899.929 1459.2>
LayerCount: 2
Fore
SplineSet
938 1818 m 9,0,1
 938 1561 l 17,2,3
 640 1561 640 1561 640 1314 c 2,4,-1
 640 1058 l 2,5,6
 640 869 640 869 503 767 c 1,7,8
 640 663 640 663 640 472 c 2,9,-1
 640 216 l 2,10,11
 640 -31 640 -31 938 -31 c 9,12,-1
 938 -288 l 17,13,14
 295 -288 295 -288 295 216 c 2,15,-1
 295 472 l 2,16,17
 295 667 295 667 100 766 c 1,18,19
 295 868 295 868 295 1058 c 2,20,-1
 295 1314 l 2,21,22
 295 1818 295 1818 938 1818 c 9,0,1
EndSplineSet
Validated: 1
EndChar

StartChar: bar
Encoding: 124 124 90
Width: 810
GlyphClass: 2
Flags: W
VStem: 250 310<-186 1695>
LayerCount: 2
Fore
SplineSet
250 -186 m 1,0,-1
 250 1695 l 1,1,-1
 560 1695 l 1,2,-1
 560 -186 l 1,3,-1
 250 -186 l 1,0,-1
EndSplineSet
Validated: 1
EndChar

StartChar: braceright
Encoding: 125 125 91
Width: 988
GlyphClass: 2
Flags: W
HStem: -288 257<50 235.239> 1561 257<50 235.239>
VStem: 348 345<70.8047 633.719 899.929 1459.2>
LayerCount: 2
Fore
SplineSet
50 1818 m 17,0,1
 693 1818 693 1818 693 1314 c 2,2,-1
 693 1058 l 2,3,4
 693 868 693 868 888 766 c 1,5,6
 693 667 693 667 693 472 c 2,7,-1
 693 216 l 2,8,9
 693 -288 693 -288 50 -288 c 9,10,-1
 50 -31 l 17,11,12
 348 -31 348 -31 348 216 c 2,13,-1
 348 472 l 2,14,15
 348 663 348 663 485 767 c 1,16,17
 348 869 348 869 348 1058 c 2,18,-1
 348 1314 l 2,19,20
 348 1561 348 1561 50 1561 c 9,21,-1
 50 1818 l 17,0,1
EndSplineSet
Validated: 1
EndChar

StartChar: asciitilde
Encoding: 126 126 92
Width: 1378
GlyphClass: 2
Flags: W
HStem: 514 505
LayerCount: 2
Fore
SplineSet
160 612 m 1,0,1
 160 1019 160 1019 402 1019 c 0,2,3
 530 1019 530 1019 638 931 c 0,4,5
 783 810 783 810 815 810 c 0,6,7
 868 810 868 810 868 1019 c 1,8,-1
 1218 921 l 1,9,10
 1218 514 1218 514 976 514 c 0,11,12
 840 514 840 514 740 602 c 0,13,14
 605 723 605 723 563 723 c 0,15,16
 510 723 510 723 510 514 c 1,17,-1
 160 612 l 1,0,1
EndSplineSet
Validated: 1
EndChar

StartChar: exclamdown
Encoding: 161 161 94
Width: 892
GlyphClass: 2
Flags: W
HStem: 0 21G<269 624> 1124 406<301.728 590.272>
VStem: 245 402<1181.57 1472.71> 269 355<0 321.764> 314 265<688.236 1010>
LayerCount: 2
Fore
SplineSet
269 0 m 1,0,-1
 314 1010 l 1,1,-1
 579 1010 l 1,2,-1
 624 0 l 1,3,-1
 269 0 l 1,0,-1
647 1328 m 0,4,5
 647 1124 647 1124 446 1124 c 128,-1,6
 245 1124 245 1124 245 1327 c 128,-1,7
 245 1530 245 1530 446 1530 c 128,-1,8
 647 1530 647 1530 647 1328 c 0,4,5
EndSplineSet
Validated: 1
EndChar

StartChar: cent
Encoding: 162 162 95
Width: 1338
GlyphClass: 2
Flags: W
VStem: 150 350<287.647 782.861> 570 198<-188 -20 274 812 1120 1282>
LayerCount: 2
Fore
SplineSet
1188 496 m 1,0,1
 1188 74 1188 74 768 -3 c 1,2,-1
 768 -188 l 1,3,-1
 570 -188 l 1,4,-1
 570 -20 l 17,5,6
 150 -20 150 -20 150 342 c 2,7,-1
 150 604 l 2,8,9
 150 1026 150 1026 570 1103 c 1,10,-1
 570 1282 l 1,11,-1
 768 1282 l 1,12,-1
 768 1120 l 17,13,14
 1187 1120 1187 1120 1188 758 c 1,15,-1
 838 660 l 1,16,17
 838 782 838 782 768 824 c 1,18,-1
 768 274 l 1,19,20
 838 307 838 307 838 398 c 1,21,-1
 1188 496 l 1,0,1
570 267 m 1,22,-1
 570 812 l 1,23,24
 500 755 500 755 500 599 c 2,25,-1
 500 363 l 2,26,27
 500 291 500 291 570 267 c 1,22,-1
EndSplineSet
Validated: 1
EndChar

StartChar: sterling
Encoding: 163 163 96
Width: 1429
GlyphClass: 2
Flags: W
HStem: 0 277<570 1230.67> 579 276<114.595 220 570 821.672> 1252 278<635.357 1048.5>
VStem: 220 350<277.148 578 855 1185.19>
LayerCount: 2
Fore
SplineSet
150 0 m 1,0,1
 220 115 220 115 220 300 c 2,2,-1
 220 579 l 17,3,4
 164 570 164 570 113 534 c 1,5,-1
 113 819 l 1,6,7
 164 848 164 848 220 855 c 1,8,-1
 220 987 l 2,9,10
 220 1530 220 1530 859 1530 c 0,11,12
 1238 1530 1238 1530 1238 1099 c 1,13,-1
 888 1003 l 1,14,15
 887 1252 887 1252 737 1252 c 0,16,17
 570 1252 570 1252 570 992 c 2,18,-1
 570 855 l 1,19,20
 762 855 762 855 870 925 c 1,21,-1
 870 628 l 1,22,23
 746 578 746 578 570 578 c 1,24,-1
 570 277 l 1,25,-1
 979 277 l 2,26,27
 1171 277 1171 277 1279 347 c 1,28,-1
 1279 50 l 1,29,30
 1155 0 1155 0 979 0 c 2,31,-1
 150 0 l 1,0,1
EndSplineSet
Validated: 1
EndChar

StartChar: currency
Encoding: 164 164 97
Width: 1647
GlyphClass: 2
Flags: W
HStem: 302 286<687.043 947.701> 934 286<700.648 958.8>
VStem: 316 335<625.359 882.922> 994 340<634.806 897.5>
DStem2: 346 1422 150 1226 0.708029 -0.706183<0 355.561 1258.2 1625.28> 150 274 346 78 0.708029 0.706183<0.361702 310.235 1328.05 1625.64>
LayerCount: 2
Fore
SplineSet
821 934 m 0,0,1
 651 934 651 934 651 735 c 2,2,-1
 651 733 l 2,3,4
 651 588 651 588 829 588 c 0,5,6
 994 588 994 588 994 787 c 2,7,-1
 994 788 l 2,8,9
 994 934 994 934 821 934 c 0,0,1
346 1422 m 1,10,-1
 608 1160 l 1,11,12
 787 1220 787 1220 955 1220 c 0,13,14
 1021 1220 1021 1220 1082 1204 c 1,15,-1
 1301 1422 l 1,16,-1
 1497 1226 l 1,17,-1
 1300 1030 l 1,18,19
 1334 955 1334 955 1334 846 c 2,20,-1
 1334 844 l 2,21,22
 1334 674 1334 674 1245 525 c 1,23,-1
 1497 274 l 1,24,-1
 1301 78 l 1,25,-1
 1023 355 l 1,26,27
 890 302 890 302 695 302 c 0,28,29
 641 302 641 302 583 315 c 1,30,-1
 346 78 l 1,31,-1
 150 274 l 1,32,-1
 358 482 l 1,33,34
 316 555 316 555 316 676 c 2,35,-1
 316 678 l 2,36,37
 316 861 316 861 393 983 c 1,38,-1
 150 1226 l 1,39,-1
 346 1422 l 1,10,-1
EndSplineSet
Validated: 1
EndChar

StartChar: yen
Encoding: 165 165 98
Width: 1723
GlyphClass: 2
Flags: W
HStem: 0 21G<687 1037> 394 277<247 559 1165 1477> 848 277<247 317 840 888 1407 1477> 1490 20G<111 512.182 1210.97 1612>
VStem: 111 391<1119 1510> 687 350<0 394> 1221 391<1119 1510>
LayerCount: 2
Fore
SplineSet
687 0 m 1,0,-1
 687 394 l 1,1,-1
 247 394 l 1,2,-1
 247 671 l 1,3,-1
 559 671 l 1,4,-1
 465 848 l 1,5,-1
 247 848 l 1,6,-1
 247 1125 l 1,7,-1
 317 1125 l 1,8,-1
 111 1510 l 1,9,-1
 502 1510 l 1,10,-1
 698 1125 l 1,11,-1
 1028 1125 l 1,12,-1
 1221 1510 l 1,13,-1
 1612 1510 l 1,14,-1
 1407 1125 l 1,15,-1
 1477 1125 l 1,16,-1
 1477 848 l 1,17,-1
 1259 848 l 1,18,-1
 1165 671 l 1,19,-1
 1477 671 l 1,20,-1
 1477 394 l 1,21,-1
 1037 394 l 1,22,-1
 1037 0 l 1,23,-1
 687 0 l 1,0,-1
888 848 m 1,24,-1
 840 848 l 1,25,-1
 864 800 l 1,26,-1
 888 848 l 1,24,-1
EndSplineSet
Validated: 1
EndChar

StartChar: brokenbar
Encoding: 166 166 99
Width: 810
GlyphClass: 2
Flags: W
VStem: 250 310<-186 687 822 1695>
LayerCount: 2
Fore
SplineSet
250 -186 m 1,0,-1
 250 687 l 1,1,-1
 560 687 l 1,2,-1
 560 -186 l 1,3,-1
 250 -186 l 1,0,-1
250 822 m 1,4,-1
 250 1695 l 1,5,-1
 560 1695 l 1,6,-1
 560 822 l 1,7,-1
 250 822 l 1,4,-1
EndSplineSet
Validated: 1
EndChar

StartChar: section
Encoding: 167 167 100
Width: 1318
GlyphClass: 2
Flags: W
HStem: -20 274<477.857 768.959> 1256 274<549.041 840.143>
LayerCount: 2
Fore
SplineSet
190 266 m 1,0,1
 246 281 246 281 540 364 c 1,2,3
 540 254 540 254 664 254 c 0,4,5
 782 254 782 254 782 330 c 2,6,-1
 782 332 l 2,7,8
 782 379 782 379 650 389 c 0,9,10
 150 428 150 428 150 705 c 2,11,-1
 150 706 l 2,12,13
 150 822 150 822 200 906 c 9,14,-1
 548 820 l 17,15,16
 500 788 500 788 500 715 c 2,17,-1
 500 713 l 2,18,19
 500 659 500 659 653 647 c 0,20,21
 1128 610 1128 610 1128 367 c 2,22,-1
 1128 366 l 2,23,24
 1128 -20 1128 -20 529 -20 c 0,25,26
 194 -20 194 -20 190 266 c 1,0,1
1128 1244 m 1,27,28
 1072 1229 1072 1229 778 1146 c 1,29,30
 778 1256 778 1256 654 1256 c 0,31,32
 536 1256 536 1256 536 1180 c 2,33,-1
 536 1178 l 2,34,35
 536 1131 536 1131 668 1121 c 0,36,37
 1168 1082 1168 1082 1168 805 c 2,38,-1
 1168 804 l 2,39,40
 1168 688 1168 688 1118 604 c 9,41,-1
 770 690 l 17,42,43
 818 722 818 722 818 795 c 2,44,-1
 818 797 l 2,45,46
 818 851 818 851 665 863 c 0,47,48
 190 900 190 900 190 1143 c 2,49,-1
 190 1144 l 2,50,51
 190 1530 190 1530 789 1530 c 0,52,53
 1124 1530 1124 1530 1128 1244 c 1,27,28
EndSplineSet
Validated: 1
EndChar

StartChar: dieresis
Encoding: 168 168 101
Width: 1021
GlyphClass: 2
Flags: W
HStem: 1195 335<191.25 436.75 584.25 829.75>
VStem: 150 328<1235.35 1491.05> 543 328<1235.35 1491.05>
LayerCount: 2
Fore
SplineSet
708 1530 m 0,0,1
 871 1530 871 1530 871 1364 c 0,2,3
 871 1196 871 1196 706 1195 c 0,4,5
 543 1195 543 1195 543 1367 c 0,6,7
 543 1530 543 1530 708 1530 c 0,0,1
315 1530 m 0,8,9
 478 1530 478 1530 478 1364 c 0,10,11
 478 1196 478 1196 313 1195 c 0,12,13
 150 1195 150 1195 150 1367 c 0,14,15
 150 1530 150 1530 315 1530 c 0,8,9
EndSplineSet
Validated: 3073
EndChar

StartChar: copyright
Encoding: 169 169 102
Width: 1601
GlyphClass: 2
Flags: W
HStem: 77 122<595.458 1010.56> 306 263<727.679 849.22> 962 262<744.959 1005.52> 1309 122<594.459 1010.45>
VStem: 150 128<526.344 977.095> 427 300<572.175 946.94> 1323 128<532.273 975.619>
LayerCount: 2
Fore
SplineSet
1323 754 m 0,0,1
 1323 974 1323 974 1170 1145 c 0,2,3
 1023 1309 1023 1309 798 1309 c 0,4,5
 585 1309 585 1309 431 1145 c 24,6,7
 278 983 278 983 278 754 c 0,8,9
 278 522 278 522 431 363 c 24,10,11
 589 199 589 199 798 199 c 0,12,13
 1025 199 1025 199 1172 364 c 0,14,15
 1323 533 1323 533 1323 754 c 0,0,1
727 599 m 2,16,17
 727 569 727 569 784 569 c 0,18,19
 859 569 859 569 859 675 c 9,20,-1
 1163 701 l 17,21,22
 1163 306 1163 306 738 306 c 0,23,24
 427 306 427 306 427 599 c 2,25,-1
 427 820 l 2,26,27
 427 1224 427 1224 848 1224 c 0,28,29
 1156 1224 1156 1224 1163 914 c 9,30,-1
 861 872 l 17,31,32
 860 962 860 962 798 962 c 0,33,34
 727 962 727 962 727 820 c 2,35,-1
 727 599 l 2,16,17
1451 754 m 128,-1,37
 1451 485 1451 485 1263 279 c 0,38,39
 1079 77 1079 77 798 77 c 0,40,41
 534 77 534 77 339 278 c 0,42,43
 150 473 150 473 150 754 c 128,-1,44
 150 1035 150 1035 339 1230 c 0,45,46
 534 1431 534 1431 798 1431 c 0,47,48
 1081 1431 1081 1431 1265 1229 c 0,49,36
 1451 1023 1451 1023 1451 754 c 128,-1,37
EndSplineSet
Validated: 1
EndChar

StartChar: ordfeminine
Encoding: 170 170 103
Width: 1333
GlyphClass: 2
Flags: W
HStem: 621 277<150 1183> 918 142<444.307 625.574> 1156 143<572.601 640> 1363 167<573.229 783.455>
VStem: 669 230<1289.32 1354.22>
LayerCount: 2
Fore
SplineSet
640 1156 m 1,0,1
 591 1148 591 1148 572 1130 c 0,2,3
 551 1110 551 1110 551 1076 c 2,4,-1
 551 1074 l 2,5,6
 551 1060 551 1060 576 1060 c 0,7,8
 608 1060 608 1060 632 1118 c 0,9,10
 640 1138 640 1138 640 1156 c 1,0,1
390 1363 m 17,11,12
 493 1530 493 1530 679 1530 c 0,13,14
 899 1530 899 1530 899 1330 c 2,15,-1
 899 1076 l 2,16,17
 899 975 899 975 958 927 c 1,18,-1
 713 927 l 1,19,-1
 696 962 l 1,20,21
 642 918 642 918 549 918 c 0,22,23
 333 918 333 918 333 1036 c 2,24,-1
 333 1040 l 2,25,26
 333 1225 333 1225 669 1299 c 1,27,28
 669 1358 669 1358 638 1358 c 0,29,30
 595 1358 595 1358 560 1311 c 9,31,-1
 390 1363 l 17,11,12
1183 621 m 1,32,-1
 150 621 l 1,33,-1
 150 898 l 1,34,-1
 1183 898 l 1,35,-1
 1183 621 l 1,32,-1
EndSplineSet
Validated: 1
EndChar

StartChar: guillemotleft
Encoding: 171 171 104
Width: 1609
GlyphClass: 2
Flags: W
HStem: 5 451<372 823 958 1409> 1122 383<440 823 1026 1409>
DStem2: 150 864 476 783 0.724112 0.689682<180.196 665.266> 476 783 150 645 0.72465 -0.689117<0 476.795> 736 864 1062 783 0.724112 0.689682<180.196 665.266> 1062 783 736 645 0.72465 -0.689117<0 476.795>
LayerCount: 2
Fore
SplineSet
1409 1505 m 1,0,-1
 1409 1122 l 1,1,-1
 1062 783 l 1,2,-1
 1409 456 l 1,3,-1
 1409 5 l 1,4,-1
 736 645 l 1,5,-1
 736 864 l 1,6,-1
 1409 1505 l 1,0,-1
823 1505 m 1,7,-1
 823 1122 l 1,8,-1
 476 783 l 1,9,-1
 823 456 l 1,10,-1
 823 5 l 1,11,-1
 150 645 l 1,12,-1
 150 864 l 1,13,-1
 823 1505 l 1,7,-1
EndSplineSet
Validated: 1
EndChar

StartChar: logicalnot
Encoding: 172 172 105
Width: 1333
GlyphClass: 2
Flags: W
HStem: 621 277<150 883>
VStem: 883 300<361 621>
LayerCount: 2
Fore
SplineSet
1183 361 m 1,0,-1
 883 361 l 1,1,-1
 883 621 l 1,2,-1
 150 621 l 1,3,-1
 150 898 l 1,4,-1
 1183 898 l 1,5,-1
 1183 361 l 1,0,-1
EndSplineSet
Validated: 1
EndChar

StartChar: uni00AD
Encoding: 173 173 106
Width: 1333
GlyphClass: 2
Flags: W
HStem: 621 277<150 1183>
LayerCount: 2
Fore
SplineSet
1183 621 m 1,0,-1
 150 621 l 1,1,-1
 150 898 l 1,2,-1
 1183 898 l 1,3,-1
 1183 621 l 1,0,-1
EndSplineSet
Validated: 1
EndChar

StartChar: registered
Encoding: 174 174 107
Width: 1601
GlyphClass: 2
Flags: W
HStem: 77 122<594.049 1009.94> 1309 122<593.043 1010.2>
VStem: 150 128<530.656 981.548> 470 300<326 558 772 946> 825 301<364.373 554.426> 847 300<779.274 943.825> 1323 129<531.493 975.523>
LayerCount: 2
Fore
SplineSet
1452 754 m 0,0,1
 1451 485 1451 485 1263 279 c 0,2,3
 1079 77 1079 77 798 77 c 0,4,5
 534 77 534 77 339 278 c 0,6,7
 150 473 150 473 150 754 c 128,-1,8
 150 1035 150 1035 339 1230 c 0,9,10
 534 1431 534 1431 798 1431 c 0,11,12
 1080 1431 1080 1431 1265 1228 c 0,13,14
 1452 1023 1452 1023 1452 754 c 0,0,1
1169 362 m 1,15,16
 1323 531 1323 531 1323 754 c 0,17,18
 1323 974 1323 974 1170 1145 c 0,19,20
 1023 1309 1023 1309 798 1309 c 0,21,22
 631 1309 631 1309 503 1210 c 1,23,-1
 835 1210 l 2,24,25
 1147 1210 1147 1210 1147 917 c 2,26,-1
 1147 913 l 2,27,28
 1147 772 1147 772 1053 688 c 1,29,30
 1126 650 1126 650 1126 509 c 2,31,-1
 1126 505 l 2,32,33
 1126 438 1126 438 1169 362 c 1,15,16
847 917 m 2,34,35
 847 946 847 946 783 946 c 2,36,-1
 770 946 l 1,37,-1
 770 772 l 1,38,-1
 777 772 l 2,39,40
 847 772 847 772 847 913 c 2,41,-1
 847 917 l 2,34,35
432 1146 m 1,42,43
 278 985 278 985 278 754 c 0,44,45
 278 524 278 524 431 363 c 0,46,47
 450 343 450 343 470 326 c 1,48,-1
 470 960 l 2,49,50
 470 1057 470 1057 432 1146 c 1,42,43
512 292 m 1,51,52
 636 199 636 199 798 199 c 0,53,54
 967 199 967 199 1092 292 c 1,55,-1
 880 292 l 1,56,57
 825 396 825 396 825 554 c 2,58,-1
 825 558 l 1,59,-1
 770 558 l 1,60,-1
 770 292 l 1,61,-1
 512 292 l 1,51,52
EndSplineSet
Validated: 1
EndChar

StartChar: macron
Encoding: 175 175 108
Width: 1333
GlyphClass: 2
Flags: W
HStem: 1233 277<150 1183>
LayerCount: 2
Fore
SplineSet
1183 1233 m 1,0,-1
 150 1233 l 1,1,-1
 150 1510 l 1,2,-1
 1183 1510 l 1,3,-1
 1183 1233 l 1,0,-1
EndSplineSet
Validated: 1
EndChar

StartChar: degree
Encoding: 176 176 109
Width: 1044
GlyphClass: 2
Flags: W
HStem: 787 232<415.574 621.67> 1286 244<420.123 621.377>
VStem: 150 243<1045.36 1263.86> 646 248<1041.23 1259.62>
LayerCount: 2
Fore
SplineSet
393 1152.5 m 128,-1,1
 393 1019 393 1019 520 1019 c 0,2,3
 646 1019 646 1019 646 1152.5 c 128,-1,4
 646 1286 646 1286 519.5 1286 c 128,-1,0
 393 1286 393 1286 393 1152.5 c 128,-1,1
150 1156 m 0,5,6
 150 1530 150 1530 522 1530 c 128,-1,7
 894 1530 894 1530 894 1158 c 0,8,9
 893 787 893 787 523 787 c 0,10,11
 150 787 150 787 150 1156 c 0,5,6
EndSplineSet
Validated: 1
EndChar

StartChar: plusminus
Encoding: 177 177 110
Width: 1333
GlyphClass: 2
Flags: W
HStem: 94 277<150 1183> 812 277<150 528 805 1183>
VStem: 528 277<434 812 1089 1467>
LayerCount: 2
Fore
SplineSet
150 812 m 1,0,-1
 150 1089 l 1,1,-1
 528 1089 l 1,2,-1
 528 1467 l 1,3,-1
 805 1467 l 1,4,-1
 805 1089 l 1,5,-1
 1183 1089 l 1,6,-1
 1183 812 l 1,7,-1
 805 812 l 1,8,-1
 805 434 l 1,9,-1
 528 434 l 1,10,-1
 528 812 l 1,11,-1
 150 812 l 1,0,-1
1183 94 m 1,12,-1
 150 94 l 1,13,-1
 150 371 l 1,14,-1
 1183 371 l 1,15,-1
 1183 94 l 1,12,-1
EndSplineSet
Validated: 1
EndChar

StartChar: uni00B2
Encoding: 178 178 111
Width: 1004
GlyphClass: 2
Flags: W
HStem: 715 225<461 803.746> 1298 232<259.898 540.705>
LayerCount: 2
Fore
SplineSet
150 715 m 17,0,1
 150 1153 150 1153 462 1187 c 0,2,3
 544 1196 544 1196 544 1257 c 2,4,-1
 544 1258 l 2,5,6
 544 1298 544 1298 481 1298 c 2,7,-1
 464 1298 l 2,8,9
 339 1298 339 1298 206 1228 c 1,10,-1
 207 1480 l 1,11,12
 346 1530 346 1530 507 1530 c 2,13,-1
 531 1530 l 2,14,15
 844 1530 844 1530 844 1306 c 2,16,-1
 844 1305 l 2,17,18
 844 1030 844 1030 496 1020 c 0,19,20
 461 1019 461 1019 461 940 c 9,21,-1
 554 940 l 2,22,23
 737 940 737 940 854 1010 c 1,24,-1
 853 765 l 1,25,26
 715 715 715 715 553 715 c 2,27,-1
 150 715 l 17,0,1
EndSplineSet
Validated: 1
EndChar

StartChar: uni00B3
Encoding: 179 179 112
Width: 1020
GlyphClass: 2
Flags: W
HStem: 705 221<362.672 576.553> 1046 163<288 524.875> 1310 220<263.121 534.531>
LayerCount: 2
Fore
SplineSet
150 940 m 9,0,-1
 407 990 l 17,1,2
 424 926 424 926 485 926 c 0,3,4
 583 926 583 926 583 1006 c 2,5,-1
 583 1016 l 2,6,7
 583 1046 583 1046 485 1046 c 2,8,-1
 288 1046 l 1,9,-1
 288 1209 l 1,10,-1
 313 1209 l 2,11,12
 539 1209 539 1209 539 1286 c 2,13,-1
 539 1290 l 2,14,15
 539 1310 539 1310 482 1310 c 2,16,-1
 467 1310 l 2,17,18
 361 1310 361 1310 253 1261 c 1,19,-1
 253 1497 l 1,20,21
 331 1530 331 1530 497 1530 c 2,22,-1
 519 1530 l 2,23,24
 821 1530 821 1530 821 1342 c 2,25,-1
 821 1332 l 2,26,27
 821 1266 821 1266 774 1179 c 1,28,29
 870 1126 870 1126 870 1031 c 2,30,-1
 870 1020 l 2,31,32
 870 705 870 705 425 705 c 0,33,34
 150 705 150 705 150 940 c 9,0,-1
EndSplineSet
Validated: 1
EndChar

StartChar: acute
Encoding: 180 180 113
Width: 1004
GlyphClass: 2
Flags: W
HStem: 1510 20G<576.204 614>
LayerCount: 2
Fore
SplineSet
356 825 m 1,0,-1
 150 1031 l 1,1,-1
 594 1530 l 1,2,-1
 854 1270 l 1,3,-1
 356 825 l 1,0,-1
EndSplineSet
Validated: 1
EndChar

StartChar: uni00B5
Encoding: 181 181 114
Width: 1418
GlyphClass: 2
Flags: W
HStem: -410 21G<200 550> -20 300<561.25 734.125> 0 21G<910.5 1288> 1080 20G<130 525 868 1218>
VStem: 200 350<-410 -20 287.188 1043.59> 868 350<510.952 1100>
LayerCount: 2
Fore
SplineSet
1218 1100 m 1,0,-1
 1218 300 l 2,1,2
 1218 142 1218 142 1288 0 c 1,3,-1
 918 0 l 1,4,5
 903 41 903 41 888 108 c 1,6,7
 751 -20 751 -20 550 -20 c 1,8,-1
 550 -410 l 1,9,-1
 200 -410 l 1,10,-1
 200 321 l 1,11,-1
 200 800 l 2,12,13
 200 971 200 971 130 1100 c 1,14,-1
 500 1100 l 1,15,16
 550 964 550 964 550 800 c 2,17,-1
 550 395 l 2,18,19
 550 280 550 280 630 280 c 0,20,21
 868 280 868 280 868 971 c 2,22,-1
 868 1100 l 1,23,-1
 1218 1100 l 1,0,-1
EndSplineSet
Validated: 1
EndChar

StartChar: paragraph
Encoding: 182 182 115
Width: 1333
GlyphClass: 2
Flags: W
HStem: 0 21G<726 897 960 1133> 1490 20G<380 1203>
VStem: 726 171<0 464> 960 173<0 1275.7>
LayerCount: 2
Fore
SplineSet
1203 1510 m 1,0,1
 1133 1391 1133 1391 1133 1210 c 2,2,-1
 1133 0 l 1,3,-1
 960 0 l 1,4,-1
 960 1278 l 1,5,-1
 897 1278 l 1,6,-1
 897 0 l 1,7,-1
 726 0 l 1,8,-1
 726 464 l 1,9,10
 130 478 130 478 130 1084 c 2,11,-1
 130 1092 l 2,12,13
 130 1510 130 1510 630 1510 c 2,14,-1
 1203 1510 l 1,0,1
EndSplineSet
Validated: 1
EndChar

StartChar: periodcentered
Encoding: 183 183 116
Width: 702
GlyphClass: 2
Flags: W
HStem: 558 406<206.728 495.272>
VStem: 150 402<615.292 906.426>
LayerCount: 2
Fore
SplineSet
150 760 m 0,0,1
 150 964 150 964 351 964 c 128,-1,2
 552 964 552 964 552 761 c 128,-1,3
 552 558 552 558 351 558 c 128,-1,4
 150 558 150 558 150 760 c 0,0,1
EndSplineSet
Validated: 1
EndChar

StartChar: cedilla
Encoding: 184 184 117
Width: 778
GlyphClass: 2
Flags: W
HStem: -430 21G<367.678 510>
VStem: 308 320<-168.312 52.4822>
LayerCount: 2
Fore
SplineSet
317 260 m 17,0,1
 628 180 628 180 628 -78 c 0,2,3
 628 -312 628 -312 392 -430 c 1,4,-1
 150 -231 l 17,5,6
 308 -178 308 -178 308 -66 c 0,7,8
 308 62 308 62 177 100 c 9,9,-1
 317 260 l 17,0,1
EndSplineSet
Validated: 1
EndChar

StartChar: uni00B9
Encoding: 185 185 118
Width: 818
GlyphClass: 2
Flags: W
HStem: 1246 264<150 268>
VStem: 150 418<1246 1483.55>
LayerCount: 2
Fore
SplineSet
268 705 m 1,0,-1
 268 1246 l 1,1,-1
 150 1246 l 1,2,-1
 150 1510 l 1,3,-1
 500 1510 l 1,4,5
 568 1448 568 1448 568 1295 c 2,6,-1
 568 705 l 1,7,-1
 268 705 l 1,0,-1
EndSplineSet
Validated: 1
EndChar

StartChar: ordmasculine
Encoding: 186 186 119
Width: 1333
GlyphClass: 2
Flags: W
HStem: 621 277<150 1183> 936 192<494 712.33> 1338 192<622.017 839.5>
VStem: 379 230<1129.36 1331.95> 723 230<1133.39 1335.76>
LayerCount: 2
Fore
SplineSet
1183 621 m 1,0,-1
 150 621 l 1,1,-1
 150 898 l 1,2,-1
 1183 898 l 1,3,-1
 1183 621 l 1,0,-1
723 1303 m 2,4,5
 723 1338 723 1338 673 1338 c 0,6,7
 609 1338 609 1338 609 1228 c 2,8,-1
 609 1164 l 2,9,10
 609 1128 609 1128 662 1128 c 0,11,12
 723 1128 723 1128 723 1239 c 2,13,-1
 723 1303 l 2,4,5
953 1309 m 2,14,-1
 953 1235 l 2,15,16
 953 936 953 936 612 936 c 0,17,18
 379 936 379 936 379 1156 c 2,19,-1
 379 1230 l 2,20,21
 379 1530 379 1530 726 1530 c 0,22,23
 953 1530 953 1530 953 1309 c 2,14,-1
EndSplineSet
Validated: 1
EndChar

StartChar: guillemotright
Encoding: 187 187 120
Width: 1609
GlyphClass: 2
Flags: W
HStem: 5 383<200 583 786 1169> 1054 451<200 651 786 1237>
DStem2: 200 1505 200 1054 0.72465 -0.689117<310.792 787.587> 200 388 200 5 0.724112 0.689682<0 485.069> 786 1505 786 1054 0.72465 -0.689117<310.792 787.587> 786 388 786 5 0.724112 0.689682<0 485.069>
LayerCount: 2
Fore
SplineSet
200 1505 m 1,0,-1
 873 865 l 1,1,-1
 873 646 l 1,2,-1
 200 5 l 1,3,-1
 200 388 l 1,4,-1
 547 727 l 1,5,-1
 200 1054 l 1,6,-1
 200 1505 l 1,0,-1
786 1505 m 1,7,-1
 1459 865 l 1,8,-1
 1459 646 l 1,9,-1
 786 5 l 1,10,-1
 786 388 l 1,11,-1
 1133 727 l 1,12,-1
 786 1054 l 1,13,-1
 786 1505 l 1,7,-1
EndSplineSet
Validated: 1
EndChar

StartChar: questiondown
Encoding: 191 191 121
Width: 1538
GlyphClass: 2
Flags: W
HStem: -20 274<569.884 922.755> 1124 406<675.728 964.272>
VStem: 160 350<311.563 579.845> 619 402<1181.57 1472.71> 1028 350<380.948 568>
LayerCount: 2
Fore
SplineSet
1021 1328 m 0,0,1
 1021 1124 1021 1124 820 1124 c 128,-1,2
 619 1124 619 1124 619 1327 c 128,-1,3
 619 1530 619 1530 820 1530 c 128,-1,4
 1021 1530 1021 1530 1021 1328 c 0,0,1
1378 664 m 17,5,6
 1376 -20 1376 -20 660 -20 c 0,7,8
 160 -20 160 -20 160 398 c 2,9,-1
 160 401 l 2,10,11
 160 891 160 891 540 891 c 0,12,13
 644 891 644 891 644 1020 c 9,14,-1
 994 1083 l 17,15,16
 992 644 992 644 683 644 c 0,17,18
 510 644 510 644 510 417 c 2,19,-1
 510 415 l 2,20,21
 510 254 510 254 762 254 c 0,22,23
 1028 254 1028 254 1028 568 c 9,24,-1
 1378 664 l 17,5,6
EndSplineSet
Validated: 1
EndChar

StartChar: multiply
Encoding: 215 215 122
Width: 1226
GlyphClass: 2
Flags: W
DStem2: 346 1223 150 1027 0.706623 -0.707591<0.189724 377.785 654.97 1033.08> 150 492 346 296 0.706623 0.707591<0 378.113 655.299 1032.89>
LayerCount: 2
Fore
SplineSet
346 296 m 1,0,-1
 150 492 l 1,1,-1
 417 760 l 1,2,-1
 150 1027 l 1,3,-1
 346 1223 l 1,4,-1
 613 955 l 1,5,-1
 880 1223 l 1,6,-1
 1076 1027 l 1,7,-1
 809 760 l 1,8,-1
 1076 492 l 1,9,-1
 880 296 l 1,10,-1
 613 564 l 1,11,-1
 346 296 l 1,0,-1
EndSplineSet
Validated: 1
EndChar

StartChar: divide
Encoding: 247 247 123
Width: 1333
GlyphClass: 2
Flags: W
HStem: 107 406<521.728 810.272> 621 277<150 1183> 994 406<521.728 810.272>
VStem: 465 402<164.292 455.426 1051.29 1342.43>
LayerCount: 2
Fore
SplineSet
1183 621 m 1,0,-1
 150 621 l 1,1,-1
 150 898 l 1,2,-1
 1183 898 l 1,3,-1
 1183 621 l 1,0,-1
465 1196 m 0,4,5
 465 1400 465 1400 666 1400 c 128,-1,6
 867 1400 867 1400 867 1197 c 128,-1,7
 867 994 867 994 666 994 c 128,-1,8
 465 994 465 994 465 1196 c 0,4,5
465 309 m 0,9,10
 465 513 465 513 666 513 c 128,-1,11
 867 513 867 513 867 310 c 128,-1,12
 867 107 867 107 666 107 c 128,-1,13
 465 107 465 107 465 309 c 0,9,10
EndSplineSet
Validated: 1
EndChar

StartChar: florin
Encoding: 402 402 124
Width: 1028
GlyphClass: 2
Flags: W
HStem: -430 21G<30 300> 630 277<570 870> 1256 274<631.701 940.703>
VStem: 220 350<29 579 907 1189.36>
LayerCount: 2
Fore
SplineSet
30 -164 m 1,0,1
 220 -30 220 -30 220 300 c 2,2,-1
 220 579 l 9,3,4
 164 570 164 570 113 534 c 1,5,-1
 113 819 l 1,6,7
 164 848 164 848 220 855 c 1,8,-1
 220 1014 l 2,9,10
 220 1530 220 1530 848 1530 c 0,11,12
 935 1530 935 1530 1018 1512 c 9,13,-1
 929 1211 l 17,14,15
 840 1256 840 1256 746 1256 c 0,16,17
 570 1256 570 1256 570 1009 c 2,18,-1
 570 907 l 1,19,-1
 870 907 l 1,20,-1
 870 630 l 1,21,-1
 570 630 l 1,22,-1
 570 300 l 2,23,24
 570 -301 570 -301 30 -430 c 1,25,-1
 30 -164 l 1,0,1
EndSplineSet
Validated: 3073
EndChar

StartChar: Delta
Encoding: 916 916 125
Width: 1446
GlyphClass: 2
Flags: W
HStem: 0 267<417 957> 1490 20G<564.556 881.444>
DStem2: 10 0 417 267 0.34881 0.937194<392.196 1195.35>
LayerCount: 2
Fore
SplineSet
10 0 m 1,0,-1
 572 1510 l 1,1,-1
 874 1510 l 1,2,-1
 1436 0 l 1,3,-1
 10 0 l 1,0,-1
417 267 m 1,4,-1
 957 267 l 1,5,-1
 691 1022 l 1,6,-1
 417 267 l 1,4,-1
EndSplineSet
Validated: 3073
EndChar

StartChar: Pi
Encoding: 928 928 126
Width: 1556
GlyphClass: 2
Flags: W
HStem: 0 21G<200 550 1031 1426> 1233 277<550 1006>
VStem: 200 350<0 1232.38> 1006 350<52.0093 1233>
LayerCount: 2
Fore
SplineSet
200 0 m 1,0,-1
 200 1210 l 2,1,2
 200 1391 200 1391 130 1510 c 1,3,-1
 1356 1510 l 1,4,-1
 1356 300 l 2,5,6
 1356 117 1356 117 1426 0 c 1,7,-1
 1056 0 l 1,8,9
 1006 99 1006 99 1006 300 c 2,10,-1
 1006 1233 l 1,11,-1
 550 1233 l 1,12,-1
 550 0 l 1,13,-1
 200 0 l 1,0,-1
EndSplineSet
Validated: 3073
EndChar

StartChar: Sigma
Encoding: 931 931 127
Width: 1561
GlyphClass: 2
Flags: W
HStem: 0 277<790 1360.75> 1233 277<789 1361>
LayerCount: 2
Fore
SplineSet
153 0 m 1,0,-1
 755 763 l 1,1,-1
 150 1510 l 1,2,-1
 1361 1510 l 1,3,-1
 1361 1233 l 1,4,-1
 789 1233 l 1,5,-1
 1186 760 l 1,6,-1
 790 277 l 1,7,-1
 1111 277 l 2,8,9
 1294 277 1294 277 1411 347 c 1,10,-1
 1411 50 l 1,11,12
 1294 0 1294 0 1111 0 c 2,13,-1
 153 0 l 1,0,-1
EndSplineSet
Validated: 3073
EndChar

StartChar: Omega
Encoding: 937 937 128
Width: 1700
GlyphClass: 2
Flags: W
HStem: 0 269<258.875 498 1202 1441.12> 50 297<160 457 1243 1540> 1256 274<710.274 1049.12>
VStem: 160 615<34.2896 269> 241 350<499.751 1120.7> 1109 350<554.192 1199.23>
LayerCount: 2
Fore
SplineSet
160 347 m 1,0,1
 374 269 374 269 458 269 c 10,2,-1
 498 269 l 17,3,-1
 498 289 l 17,4,5
 241 390 241 390 241 630 c 2,6,-1
 241 910 l 2,7,8
 241 1530 241 1530 959 1530 c 0,9,10
 1459 1530 1459 1530 1459 1113 c 2,11,-1
 1459 807 l 2,12,13
 1459 442 1459 442 1202 289 c 1,14,-1
 1202 269 l 9,15,-1
 1242 269 l 18,16,17
 1326 269 1326 269 1540 347 c 1,18,-1
 1540 50 l 1,19,20
 1423 0 1423 0 1240 0 c 2,21,-1
 925 0 l 1,22,-1
 925 424 l 1,23,24
 1109 488 1109 488 1109 788 c 2,25,-1
 1109 1090 l 2,26,27
 1109 1256 1109 1256 857 1256 c 0,28,29
 591 1256 591 1256 591 890 c 2,30,-1
 591 614 l 2,31,32
 591 468 591 468 775 432 c 9,33,-1
 775 0 l 1,34,-1
 460 0 l 2,35,36
 277 0 277 0 160 50 c 1,37,-1
 160 347 l 1,0,1
EndSplineSet
Validated: 3073
EndChar

StartChar: mu
Encoding: 956 956 129
Width: 1418
GlyphClass: 2
Flags: W
HStem: -410 21G<200 550> -20 300<561.25 734.125> 0 21G<910.5 1288> 1080 20G<130 525 868 1218>
VStem: 200 350<-410 -20 287.188 1043.59> 868 350<510.952 1100>
LayerCount: 2
Fore
SplineSet
1218 1100 m 1,0,-1
 1218 300 l 2,1,2
 1218 142 1218 142 1288 0 c 1,3,-1
 918 0 l 1,4,5
 903 41 903 41 888 108 c 1,6,7
 751 -20 751 -20 550 -20 c 1,8,-1
 550 -410 l 1,9,-1
 200 -410 l 1,10,-1
 200 321 l 1,11,-1
 200 800 l 2,12,13
 200 971 200 971 130 1100 c 1,14,-1
 500 1100 l 1,15,16
 550 964 550 964 550 800 c 2,17,-1
 550 395 l 2,18,19
 550 280 550 280 630 280 c 0,20,21
 868 280 868 280 868 971 c 2,22,-1
 868 1100 l 1,23,-1
 1218 1100 l 1,0,-1
EndSplineSet
Validated: 3073
EndChar

StartChar: pi
Encoding: 960 960 130
Width: 1418
GlyphClass: 2
Flags: W
HStem: 0 21G<200 550 893 1288> 823 277<550 868>
VStem: 200 350<0 819.922> 868 350<60.1562 823>
LayerCount: 2
Fore
SplineSet
200 0 m 9,0,-1
 200 800 l 2,1,2
 200 960 200 960 130 1100 c 1,3,-1
 1218 1100 l 9,4,-1
 1218 300 l 2,5,6
 1218 140 1218 140 1288 0 c 1,7,8
 918 0 l 1,9,10
 868 134 868 134 868 300 c 2,11,-1
 868 823 l 25,12,-1
 550 823 l 25,13,-1
 550 0 l 1,14,-1
 200 0 l 9,0,-1
EndSplineSet
Validated: 3073
EndChar

StartChar: uni2010
Encoding: 8208 8208 131
Width: 1283
GlyphClass: 2
Flags: W
HStem: 621 277<185 1098>
LayerCount: 2
Fore
SplineSet
1098 621 m 1,0,-1
 185 621 l 1,1,-1
 185 898 l 1,2,-1
 1098 898 l 1,3,-1
 1098 621 l 1,0,-1
EndSplineSet
Validated: 3073
EndChar

StartChar: uni2011
Encoding: 8209 8209 132
Width: 1283
GlyphClass: 2
Flags: W
HStem: 621 277<185 1098>
LayerCount: 2
Fore
SplineSet
1098 621 m 1,0,-1
 185 621 l 1,1,-1
 185 898 l 1,2,-1
 1098 898 l 1,3,-1
 1098 621 l 1,0,-1
EndSplineSet
Validated: 3073
EndChar

StartChar: figuredash
Encoding: 8210 8210 133
Width: 1333
GlyphClass: 2
Flags: W
HStem: 621 277<150 1183>
LayerCount: 2
Fore
SplineSet
1183 621 m 1,0,-1
 150 621 l 1,1,-1
 150 898 l 1,2,-1
 1183 898 l 1,3,-1
 1183 621 l 1,0,-1
EndSplineSet
Validated: 3073
EndChar

StartChar: endash
Encoding: 8211 8211 134
Width: 1333
GlyphClass: 2
Flags: W
HStem: 621 277<150 1183>
LayerCount: 2
Fore
SplineSet
1183 621 m 1,0,-1
 150 621 l 1,1,-1
 150 898 l 1,2,-1
 1183 898 l 1,3,-1
 1183 621 l 1,0,-1
EndSplineSet
Validated: 3073
EndChar

StartChar: emdash
Encoding: 8212 8212 135
Width: 1283
GlyphClass: 2
Flags: W
HStem: 621 277<25 1258>
LayerCount: 2
Fore
SplineSet
1258 621 m 1,0,-1
 25 621 l 1,1,-1
 25 898 l 1,2,-1
 1258 898 l 1,3,-1
 1258 621 l 1,0,-1
EndSplineSet
Validated: 3073
EndChar

StartChar: afii00208
Encoding: 8213 8213 136
Width: 1283
GlyphClass: 2
Flags: W
HStem: 621 277<25 1258>
LayerCount: 2
Fore
SplineSet
1258 621 m 1,0,-1
 25 621 l 1,1,-1
 25 898 l 1,2,-1
 1258 898 l 1,3,-1
 1258 621 l 1,0,-1
EndSplineSet
Validated: 3073
EndChar

StartChar: underscoredbl
Encoding: 8215 8215 137
Width: 1333
GlyphClass: 2
Flags: W
HStem: -410 179<150 1183> -199 179<150 1183>
LayerCount: 2
Fore
SplineSet
1183 -410 m 1,0,-1
 150 -410 l 1,1,-1
 150 -231 l 1,2,-1
 1183 -231 l 1,3,-1
 1183 -410 l 1,0,-1
1183 -199 m 1,4,-1
 150 -199 l 1,5,-1
 150 -20 l 1,6,-1
 1183 -20 l 1,7,-1
 1183 -199 l 1,4,-1
EndSplineSet
Validated: 1
EndChar

StartChar: quoteleft
Encoding: 8216 8216 138
Width: 790
GlyphClass: 2
Flags: W
HStem: 1510 20G<303.5 476.365>
VStem: 150 336<995.457 1252.67>
LayerCount: 2
Fore
SplineSet
457 1530 m 1,0,-1
 640 1341 l 1,1,2
 486 1265 486 1265 486 1119 c 0,3,4
 486 993 486 993 638 907 c 1,5,-1
 376 683 l 1,6,7
 150 839 150 839 150 1106 c 0,8,9
 150 1347 150 1347 457 1530 c 1,0,-1
EndSplineSet
Validated: 3073
EndChar

StartChar: quoteright
Encoding: 8217 8217 139
Width: 790
GlyphClass: 2
Flags: W
HStem: 1510 20G<390.607 527>
VStem: 304 336<960.335 1217.54>
LayerCount: 2
Fore
SplineSet
414 1530 m 1,0,1
 640 1374 640 1374 640 1107 c 0,2,3
 640 866 640 866 333 683 c 1,4,-1
 150 872 l 1,5,6
 304 948 304 948 304 1094 c 0,7,8
 304 1220 304 1220 152 1306 c 1,9,-1
 414 1530 l 1,0,1
EndSplineSet
Validated: 3073
EndChar

StartChar: quotesinglbase
Encoding: 8218 8218 140
Width: 790
GlyphClass: 2
Flags: W
HStem: -410 21G<313.635 486.5>
VStem: 304 336<-132.665 124.543>
LayerCount: 2
Fore
SplineSet
414 437 m 1,0,1
 640 281 640 281 640 14 c 0,2,3
 640 -227 640 -227 333 -410 c 1,4,-1
 150 -221 l 1,5,6
 304 -145 304 -145 304 1 c 0,7,8
 304 127 304 127 152 213 c 1,9,-1
 414 437 l 1,0,1
EndSplineSet
Validated: 3073
EndChar

StartChar: quotereversed
Encoding: 8219 8219 141
Width: 790
GlyphClass: 2
Flags: W
HStem: 1510 20G<263 399.393>
VStem: 150 336<960.335 1217.54>
LayerCount: 2
Fore
SplineSet
376 1530 m 1,0,1
 638 1306 l 1,2,3
 486 1220 486 1220 486 1094 c 0,4,5
 486 948 486 948 640 872 c 1,6,-1
 457 683 l 1,7,8
 150 866 150 866 150 1107 c 0,9,10
 150 1374 150 1374 376 1530 c 1,0,1
EndSplineSet
Validated: 3073
EndChar

StartChar: quotedblleft
Encoding: 8220 8220 142
Width: 1285
GlyphClass: 2
Flags: W
HStem: 1510 20G<303.5 476.365 798.5 971.365>
VStem: 150 336<995.457 1252.67> 645 336<995.457 1252.67>
LayerCount: 2
Fore
SplineSet
457 1530 m 1,0,-1
 640 1341 l 1,1,2
 486 1265 486 1265 486 1119 c 0,3,4
 486 993 486 993 638 907 c 1,5,-1
 376 683 l 1,6,7
 150 839 150 839 150 1106 c 0,8,9
 150 1347 150 1347 457 1530 c 1,0,-1
952 1530 m 1,10,-1
 1135 1341 l 1,11,12
 981 1265 981 1265 981 1119 c 0,13,14
 981 993 981 993 1133 907 c 1,15,-1
 871 683 l 1,16,17
 645 839 645 839 645 1106 c 0,18,19
 645 1347 645 1347 952 1530 c 1,10,-1
EndSplineSet
Validated: 3073
EndChar

StartChar: quotedblright
Encoding: 8221 8221 143
Width: 1285
GlyphClass: 2
Flags: W
HStem: 1510 20G<390.607 527 885.607 1022>
VStem: 304 336<960.335 1217.54> 799 336<960.335 1217.54>
LayerCount: 2
Fore
SplineSet
909 1530 m 1,0,1
 1135 1374 1135 1374 1135 1107 c 0,2,3
 1135 866 1135 866 828 683 c 1,4,-1
 645 872 l 1,5,6
 799 948 799 948 799 1094 c 0,7,8
 799 1220 799 1220 647 1306 c 1,9,-1
 909 1530 l 1,0,1
414 1530 m 1,10,11
 640 1374 640 1374 640 1107 c 0,12,13
 640 866 640 866 333 683 c 1,14,-1
 150 872 l 1,15,16
 304 948 304 948 304 1094 c 0,17,18
 304 1220 304 1220 152 1306 c 1,19,-1
 414 1530 l 1,10,11
EndSplineSet
Validated: 3073
EndChar

StartChar: quotedblbase
Encoding: 8222 8222 144
Width: 1285
GlyphClass: 2
Flags: W
HStem: -410 21G<313.635 486.5 808.635 981.5>
VStem: 304 336<-132.665 124.543> 799 336<-132.665 124.543>
LayerCount: 2
Fore
SplineSet
909 437 m 1,0,1
 1135 281 1135 281 1135 14 c 0,2,3
 1135 -227 1135 -227 828 -410 c 1,4,-1
 645 -221 l 1,5,6
 799 -145 799 -145 799 1 c 0,7,8
 799 127 799 127 647 213 c 1,9,-1
 909 437 l 1,0,1
414 437 m 1,10,11
 640 281 640 281 640 14 c 0,12,13
 640 -227 640 -227 333 -410 c 1,14,-1
 150 -221 l 1,15,16
 304 -145 304 -145 304 1 c 0,17,18
 304 127 304 127 152 213 c 1,19,-1
 414 437 l 1,10,11
EndSplineSet
Validated: 3073
EndChar

StartChar: uni201F
Encoding: 8223 8223 145
Width: 1285
GlyphClass: 2
Flags: W
HStem: 1510 20G<263 399.393 758 894.393>
VStem: 150 336<960.335 1217.54> 645 336<960.335 1217.54>
LayerCount: 2
Fore
SplineSet
376 1530 m 1,0,1
 638 1306 l 1,2,3
 486 1220 486 1220 486 1094 c 0,4,5
 486 948 486 948 640 872 c 1,6,-1
 457 683 l 1,7,8
 150 866 150 866 150 1107 c 0,9,10
 150 1374 150 1374 376 1530 c 1,0,1
871 1530 m 1,11,-1
 1133 1306 l 1,12,13
 981 1220 981 1220 981 1094 c 0,14,15
 981 948 981 948 1135 872 c 1,16,-1
 952 683 l 1,17,18
 645 866 645 866 645 1107 c 0,19,20
 645 1374 645 1374 871 1530 c 1,11,-1
EndSplineSet
Validated: 3073
EndChar

StartChar: dagger
Encoding: 8224 8224 146
Width: 1333
GlyphClass: 2
Flags: W
HStem: 0 21G<511 821> 855 277<150 511 821 1183> 1490 20G<511 821>
VStem: 511 310<0 855 1132 1510>
LayerCount: 2
Fore
SplineSet
511 0 m 1,0,-1
 511 855 l 1,1,-1
 150 855 l 1,2,-1
 150 1132 l 1,3,-1
 511 1132 l 1,4,-1
 511 1510 l 1,5,-1
 821 1510 l 1,6,-1
 821 1132 l 1,7,-1
 1183 1132 l 1,8,-1
 1183 855 l 1,9,-1
 821 855 l 1,10,-1
 821 0 l 1,11,-1
 511 0 l 1,0,-1
EndSplineSet
Validated: 3073
EndChar

StartChar: daggerdbl
Encoding: 8225 8225 147
Width: 1334
GlyphClass: 2
Flags: W
HStem: 0 21G<512 822> 328 277<150 512 822 1183> 905 277<151 512 822 1184> 1490 20G<512 822>
VStem: 512 310<0 328 605 905 1182 1510>
LayerCount: 2
Fore
SplineSet
512 0 m 1,0,-1
 512 328 l 1,1,-1
 150 328 l 1,2,-1
 150 605 l 1,3,-1
 512 605 l 1,4,-1
 512 905 l 1,5,-1
 151 905 l 1,6,-1
 151 1182 l 1,7,-1
 512 1182 l 1,8,-1
 512 1510 l 1,9,-1
 822 1510 l 1,10,-1
 822 1182 l 1,11,-1
 1184 1182 l 1,12,-1
 1184 905 l 1,13,-1
 822 905 l 1,14,-1
 822 605 l 1,15,-1
 1183 605 l 1,16,-1
 1183 328 l 1,17,-1
 822 328 l 1,18,-1
 822 0 l 1,19,-1
 512 0 l 1,0,-1
EndSplineSet
Validated: 3073
EndChar

StartChar: bullet
Encoding: 8226 8226 148
Width: 1144
GlyphClass: 2
Flags: W
HStem: 394 743<360.638 783.772>
VStem: 200 744<553.776 975.932>
LayerCount: 2
Fore
SplineSet
200 763 m 0,0,1
 200 1137 200 1137 572 1137 c 128,-1,2
 944 1137 944 1137 944 765 c 0,3,4
 943 394 943 394 573 394 c 0,5,6
 200 394 200 394 200 763 c 0,0,1
EndSplineSet
Validated: 1
EndChar

StartChar: uni2023
Encoding: 8227 8227 149
Width: 1107
GlyphClass: 2
Flags: W
LayerCount: 2
Fore
SplineSet
150 236 m 1,0,-1
 150 1222 l 1,1,-1
 1007 764 l 1,2,-1
 150 236 l 1,0,-1
EndSplineSet
Validated: 3073
EndChar

StartChar: onedotenleader
Encoding: 8228 8228 150
Width: 702
GlyphClass: 2
Flags: W
HStem: -20 406<206.728 495.272>
VStem: 150 402<37.292 328.426>
LayerCount: 2
Fore
SplineSet
150 182 m 0,0,1
 150 386 150 386 351 386 c 128,-1,2
 552 386 552 386 552 183 c 128,-1,3
 552 -20 552 -20 351 -20 c 128,-1,4
 150 -20 150 -20 150 182 c 0,0,1
EndSplineSet
Validated: 3073
EndChar

StartChar: twodotenleader
Encoding: 8229 8229 151
Width: 1193
GlyphClass: 2
Flags: W
HStem: -20 406<206.728 495.272 697.728 986.272>
VStem: 150 402<37.292 328.426> 641 402<37.292 328.426>
LayerCount: 2
Fore
SplineSet
641 182 m 0,0,1
 641 386 641 386 842 386 c 128,-1,2
 1043 386 1043 386 1043 183 c 128,-1,3
 1043 -20 1043 -20 842 -20 c 128,-1,4
 641 -20 641 -20 641 182 c 0,0,1
150 182 m 0,5,6
 150 386 150 386 351 386 c 128,-1,7
 552 386 552 386 552 183 c 128,-1,8
 552 -20 552 -20 351 -20 c 128,-1,9
 150 -20 150 -20 150 182 c 0,5,6
EndSplineSet
Validated: 3073
EndChar

StartChar: ellipsis
Encoding: 8230 8230 152
Width: 1684
GlyphClass: 2
Flags: W
HStem: -20 406<206.728 495.272 697.728 986.272 1188.73 1477.27>
VStem: 150 402<37.292 328.426> 641 402<37.292 328.426> 1132 402<37.292 328.426>
CounterMasks: 1 70
LayerCount: 2
Fore
SplineSet
1132 182 m 0,0,1
 1132 386 1132 386 1333 386 c 128,-1,2
 1534 386 1534 386 1534 183 c 128,-1,3
 1534 -20 1534 -20 1333 -20 c 128,-1,4
 1132 -20 1132 -20 1132 182 c 0,0,1
641 182 m 0,5,6
 641 386 641 386 842 386 c 128,-1,7
 1043 386 1043 386 1043 183 c 128,-1,8
 1043 -20 1043 -20 842 -20 c 128,-1,9
 641 -20 641 -20 641 182 c 0,5,6
150 182 m 0,10,11
 150 386 150 386 351 386 c 128,-1,12
 552 386 552 386 552 183 c 128,-1,13
 552 -20 552 -20 351 -20 c 128,-1,14
 150 -20 150 -20 150 182 c 0,10,11
EndSplineSet
Validated: 3073
EndChar

StartChar: uni2027
Encoding: 8231 8231 153
Width: 702
GlyphClass: 2
Flags: W
HStem: 558 406<206.728 495.272>
VStem: 150 402<615.292 906.426>
LayerCount: 2
Fore
SplineSet
150 760 m 0,0,1
 150 964 150 964 351 964 c 128,-1,2
 552 964 552 964 552 761 c 128,-1,3
 552 558 552 558 351 558 c 128,-1,4
 150 558 150 558 150 760 c 0,0,1
EndSplineSet
Validated: 3073
EndChar

StartChar: perthousand
Encoding: 8240 8240 154
Width: 2814
GlyphClass: 2
Flags: W
HStem: -18 232<1369.57 1575.67 2185.57 2391.67> 0 21G<447 798.199> 481 244<1374.12 1575.38 2190.97 2390.53> 787 232<415.574 621.67> 1286 244<420.123 621.377> 1490 20G<1203.84 1558>
VStem: 150 243<1045.36 1263.86> 447 341<0 341> 646 248<1041.23 1259.62> 1104 243<240.365 458.856> 1214 344<1166 1510> 1600 248<236.231 454.618> 1920 243<238.365 456.856> 2416 248<234.231 452.618>
DStem2: 447 0 788 0 0.454279 0.890859<154.909 1693.63>
LayerCount: 2
Fore
SplineSet
2163 345.5 m 128,-1,1
 2163 212 2163 212 2290 212 c 0,2,3
 2416 212 2416 212 2416 345.5 c 128,-1,4
 2416 479 2416 479 2289.5 479 c 128,-1,0
 2163 479 2163 479 2163 345.5 c 128,-1,1
1920 349 m 0,5,6
 1920 723 1920 723 2292 723 c 128,-1,7
 2664 723 2664 723 2664 351 c 0,8,9
 2663 -20 2663 -20 2293 -20 c 0,10,11
 1920 -20 1920 -20 1920 349 c 0,5,6
1347 347.5 m 128,-1,13
 1347 214 1347 214 1474 214 c 0,14,15
 1600 214 1600 214 1600 347.5 c 128,-1,16
 1600 481 1600 481 1473.5 481 c 128,-1,12
 1347 481 1347 481 1347 347.5 c 128,-1,13
1104 351 m 0,17,18
 1104 725 1104 725 1476 725 c 128,-1,19
 1848 725 1848 725 1848 353 c 0,20,21
 1847 -18 1847 -18 1477 -18 c 0,22,23
 1104 -18 1104 -18 1104 351 c 0,17,18
393 1152.5 m 128,-1,25
 393 1019 393 1019 520 1019 c 0,26,27
 646 1019 646 1019 646 1152.5 c 128,-1,28
 646 1286 646 1286 519.5 1286 c 128,-1,24
 393 1286 393 1286 393 1152.5 c 128,-1,25
150 1156 m 0,29,30
 150 1530 150 1530 522 1530 c 128,-1,31
 894 1530 894 1530 894 1158 c 0,32,33
 893 787 893 787 523 787 c 0,34,35
 150 787 150 787 150 1156 c 0,29,30
447 0 m 1,36,-1
 1214 1510 l 1,37,-1
 1558 1510 l 9,38,-1
 788 0 l 17,39,-1
 447 0 l 1,36,-1
EndSplineSet
Validated: 3073
EndChar

StartChar: minute
Encoding: 8242 8242 155
Width: 977
GlyphClass: 2
Flags: W
HStem: 899 611<443 469>
VStem: 150 677
LayerCount: 2
Fore
SplineSet
827 1510 m 1,0,-1
 469 899 l 1,1,-1
 150 899 l 1,2,-1
 443 1510 l 1,3,-1
 827 1510 l 1,0,-1
EndSplineSet
Validated: 3073
EndChar

StartChar: second
Encoding: 8243 8243 156
Width: 1442
GlyphClass: 2
Flags: W
HStem: 899 611<443 469 908 934>
LayerCount: 2
Fore
SplineSet
1292 1510 m 1,0,-1
 934 899 l 1,1,-1
 615 899 l 1,2,-1
 908 1510 l 1,3,-1
 1292 1510 l 1,0,-1
827 1510 m 1,4,-1
 469 899 l 1,5,-1
 150 899 l 1,6,-1
 443 1510 l 1,7,-1
 827 1510 l 1,4,-1
EndSplineSet
Validated: 3073
EndChar

StartChar: uni2034
Encoding: 8244 8244 157
Width: 1907
GlyphClass: 2
Flags: W
HStem: 899 611<443 469 908 934 1373 1399>
LayerCount: 2
Fore
SplineSet
1757 1510 m 1,0,-1
 1399 899 l 1,1,-1
 1080 899 l 1,2,-1
 1373 1510 l 1,3,-1
 1757 1510 l 1,0,-1
1292 1510 m 1,4,-1
 934 899 l 1,5,-1
 615 899 l 1,6,-1
 908 1510 l 1,7,-1
 1292 1510 l 1,4,-1
827 1510 m 1,8,-1
 469 899 l 1,9,-1
 150 899 l 1,10,-1
 443 1510 l 1,11,-1
 827 1510 l 1,8,-1
EndSplineSet
Validated: 3073
EndChar

StartChar: uni2035
Encoding: 8245 8245 158
Width: 977
GlyphClass: 2
Flags: W
HStem: 899 611<508 534>
VStem: 150 677
LayerCount: 2
Fore
SplineSet
150 1510 m 1,0,-1
 534 1510 l 1,1,-1
 827 899 l 1,2,-1
 508 899 l 1,3,-1
 150 1510 l 1,0,-1
EndSplineSet
Validated: 3073
EndChar

StartChar: uni2036
Encoding: 8246 8246 159
Width: 1442
GlyphClass: 2
Flags: W
HStem: 899 611<508 534 973 999>
LayerCount: 2
Fore
SplineSet
150 1510 m 1,0,-1
 534 1510 l 1,1,-1
 827 899 l 1,2,-1
 508 899 l 1,3,-1
 150 1510 l 1,0,-1
615 1510 m 1,4,-1
 999 1510 l 1,5,-1
 1292 899 l 1,6,-1
 973 899 l 1,7,-1
 615 1510 l 1,4,-1
EndSplineSet
Validated: 3073
EndChar

StartChar: uni2037
Encoding: 8247 8247 160
Width: 1907
GlyphClass: 2
Flags: W
HStem: 899 611<508 534 973 999 1438 1464>
LayerCount: 2
Fore
SplineSet
150 1510 m 1,0,-1
 534 1510 l 1,1,-1
 827 899 l 1,2,-1
 508 899 l 1,3,-1
 150 1510 l 1,0,-1
615 1510 m 1,4,-1
 999 1510 l 1,5,-1
 1292 899 l 1,6,-1
 973 899 l 1,7,-1
 615 1510 l 1,4,-1
1080 1510 m 1,8,-1
 1464 1510 l 1,9,-1
 1757 899 l 1,10,-1
 1438 899 l 1,11,-1
 1080 1510 l 1,8,-1
EndSplineSet
Validated: 3073
EndChar

StartChar: guilsinglleft
Encoding: 8249 8249 161
Width: 1023
GlyphClass: 2
Flags: W
HStem: 5 451<372 823> 1122 383<440 823>
VStem: 150 673
DStem2: 150 864 476 783 0.724112 0.689682<180.196 665.266> 476 783 150 645 0.72465 -0.689117<0 476.795>
LayerCount: 2
Fore
SplineSet
823 1505 m 1,0,-1
 823 1122 l 1,1,-1
 476 783 l 1,2,-1
 823 456 l 1,3,-1
 823 5 l 1,4,-1
 150 645 l 1,5,-1
 150 864 l 1,6,-1
 823 1505 l 1,0,-1
EndSplineSet
Validated: 3073
EndChar

StartChar: guilsinglright
Encoding: 8250 8250 162
Width: 1023
GlyphClass: 2
Flags: W
HStem: 5 383<200 583> 1054 451<200 651>
VStem: 200 673
DStem2: 200 1505 200 1054 0.72465 -0.689117<310.792 787.587> 200 388 200 5 0.724112 0.689682<0 485.069>
LayerCount: 2
Fore
SplineSet
200 1505 m 1,0,-1
 873 865 l 1,1,-1
 873 646 l 1,2,-1
 200 5 l 1,3,-1
 200 388 l 1,4,-1
 547 727 l 1,5,-1
 200 1054 l 1,6,-1
 200 1505 l 1,0,-1
EndSplineSet
Validated: 3073
EndChar

StartChar: uni2043
Encoding: 8259 8259 163
Width: 1333
GlyphClass: 2
Flags: W
VStem: 528 277<243 520 999 1276>
DStem2: 288 1138 150 898 0.865912 -0.500197<0.551469 277.346 757.112 1033.59> 150 621 288 381 0.865912 0.500197<0 276.795 757.061 1033.04>
LayerCount: 2
Fore
SplineSet
528 1276 m 1,0,-1
 805 1276 l 1,1,-1
 805 999 l 1,2,-1
 1045 1138 l 1,3,-1
 1183 898 l 1,4,-1
 944 760 l 1,5,-1
 1183 621 l 1,6,-1
 1045 381 l 1,7,-1
 805 520 l 1,8,-1
 805 243 l 1,9,-1
 528 243 l 1,10,-1
 528 520 l 1,11,-1
 288 381 l 1,12,-1
 150 621 l 1,13,-1
 390 760 l 1,14,-1
 150 898 l 1,15,-1
 288 1138 l 1,16,-1
 528 999 l 1,17,-1
 528 1276 l 1,0,-1
EndSplineSet
Validated: 3073
EndChar

StartChar: fraction
Encoding: 8260 8260 164
Width: 1263
GlyphClass: 2
Flags: W
DStem2: 50 -68 331 -200 0.445193 0.895434<6.90201 1979.82>
LayerCount: 2
Fore
SplineSet
931 1705 m 1,0,-1
 1213 1574 l 1,1,-1
 331 -200 l 1,2,-1
 50 -68 l 1,3,-1
 931 1705 l 1,0,-1
EndSplineSet
Validated: 3073
EndChar

StartChar: Euro
Encoding: 8364 8364 165
Width: 1678
GlyphClass: 2
Flags: W
HStem: -20 274<678.963 1030.58> 430 277<100 260 610 1039> 779 277<100 260 627 1039> 1256 274<726.214 1038.85>
VStem: 260 350<324.531 430 707 779> 1128 350<345.777 507 1084 1163.71>
LayerCount: 2
Fore
SplineSet
1478 604 m 1,0,1
 1478 -20 1478 -20 760 -20 c 0,2,3
 260 -20 260 -20 260 430 c 1,4,-1
 100 430 l 1,5,-1
 100 707 l 1,6,-1
 260 707 l 1,7,-1
 260 779 l 1,8,-1
 100 779 l 1,9,-1
 100 1056 l 1,10,-1
 272 1056 l 1,11,12
 352 1530 352 1530 978 1530 c 0,13,14
 1478 1530 1478 1530 1478 1084 c 1,15,-1
 1128 988 l 1,16,17
 1128 1256 1128 1256 876 1256 c 0,18,19
 677 1256 677 1256 627 1056 c 1,20,-1
 1039 1056 l 1,21,-1
 1039 779 l 1,22,-1
 610 779 l 1,23,-1
 610 707 l 1,24,-1
 1039 707 l 1,25,-1
 1039 430 l 1,26,-1
 610 430 l 1,27,28
 610 254 610 254 862 254 c 0,29,30
 1128 254 1128 254 1128 507 c 1,31,-1
 1478 604 l 1,0,1
EndSplineSet
Validated: 3073
EndChar

StartChar: afii61248
Encoding: 8453 8453 166
Width: 2155
GlyphClass: 2
Flags: W
HStem: -20 263<1573.68 1685.04> 0 21G<524 875.199> 612 263<450.679 572.22> 636 262<1590.96 1853> 1268 262<467.959 728.515> 1490 20G<1280.84 1635>
VStem: 150 300<878.175 1252.94> 524 341<0 341> 1273 300<246.175 620.94> 1291 344<1166 1510> 1701 304<257.06 631.825>
DStem2: 524 0 865 0 0.454279 0.890859<154.909 1693.63>
LayerCount: 2
Fore
SplineSet
1273 273 m 2,0,-1
 1273 494 l 2,1,2
 1273 898 1273 898 1694 898 c 0,3,4
 2005 898 2005 898 2005 605 c 2,5,-1
 2005 384 l 2,6,7
 2005 -20 2005 -20 1584 -20 c 0,8,9
 1273 -20 1273 -20 1273 273 c 2,0,-1
1573 273 m 2,10,11
 1573 243 1573 243 1630 243 c 0,12,13
 1701 243 1701 243 1701 385 c 2,14,-1
 1701 606 l 2,15,16
 1701 636 1701 636 1644 636 c 0,17,18
 1573 636 1573 636 1573 494 c 2,19,-1
 1573 273 l 2,10,11
524 0 m 1,20,-1
 1291 1510 l 1,21,-1
 1635 1510 l 9,22,-1
 865 0 l 17,23,-1
 524 0 l 1,20,-1
886 1007 m 17,24,25
 886 612 886 612 461 612 c 0,26,27
 150 612 150 612 150 905 c 2,28,-1
 150 1126 l 2,29,30
 150 1530 150 1530 571 1530 c 0,31,32
 879 1530 879 1530 886 1220 c 9,33,-1
 584 1178 l 17,34,35
 583 1268 583 1268 521 1268 c 0,36,37
 450 1268 450 1268 450 1126 c 2,38,-1
 450 905 l 2,39,40
 450 875 450 875 507 875 c 0,41,42
 582 875 582 875 582 981 c 9,43,-1
 886 1007 l 17,24,25
EndSplineSet
Validated: 3073
EndChar

StartChar: afii61289
Encoding: 8467 8467 167
Width: 1420
GlyphClass: 2
Flags: W
HStem: 0 21G<150 559.973 703.5 811.5> 1510 20G<833.5 1031.5>
LayerCount: 2
Fore
SplineSet
150 0 m 1,0,1
 296 171 296 171 418 348 c 1,2,3
 412 412 412 412 412 473 c 0,4,5
 412 615 412 615 500 946 c 0,6,7
 591 1287 591 1287 667 1407 c 0,8,9
 745 1530 745 1530 922 1530 c 2,10,-1
 925 1530 l 2,11,12
 1138 1530 1138 1530 1138 1269 c 2,13,-1
 1138 1263 l 2,14,15
 1138 1173 1138 1173 1107 1031 c 0,16,17
 1039 719 1039 719 757 303 c 1,18,19
 764 279 764 279 771 263 c 1,20,-1
 831 342 l 1,21,-1
 1170 342 l 1,22,23
 1071 149 1071 149 951 50 c 0,24,25
 866 -20 866 -20 757 -20 c 0,26,27
 650 -20 650 -20 571 37 c 1,28,-1
 547 0 l 1,29,-1
 150 0 l 1,0,1
EndSplineSet
Validated: 3073
EndChar

StartChar: trademark
Encoding: 8482 8482 168
Width: 1967
GlyphClass: 2
Flags: W
HStem: 715 795<355 610 900 1154.17 1470.16 1702> 1292 218<178.671 355 610 815>
VStem: 355 255<715 1292> 900 255<715 1221> 1174 254<1000 1218.89> 1447 255<739.686 1222>
LayerCount: 2
Fore
SplineSet
355 715 m 1,0,-1
 355 1292 l 1,1,-1
 340 1292 l 2,2,3
 252 1291 252 1291 150 1232 c 1,4,-1
 150 1470 l 1,5,6
 231 1510 231 1510 340 1510 c 2,7,-1
 815 1510 l 1,8,-1
 815 1292 l 1,9,-1
 610 1292 l 1,10,-1
 610 715 l 1,11,-1
 355 715 l 1,0,-1
900 715 m 1,12,-1
 900 1329 l 2,13,14
 900 1446 900 1446 835 1510 c 1,15,-1
 1052 1510 l 2,16,17
 1256 1510 1256 1510 1301 1367 c 1,18,19
 1358 1510 1358 1510 1524 1510 c 2,20,-1
 1702 1510 l 1,21,-1
 1702 896 l 2,22,23
 1702 780 1702 780 1767 715 c 1,24,-1
 1487 715 l 1,25,26
 1447 782 1447 782 1447 905 c 2,27,-1
 1447 1222 l 1,28,29
 1428 1154 1428 1154 1428 1000 c 1,30,-1
 1174 1000 l 1,31,32
 1174 1154 1174 1154 1155 1221 c 1,33,-1
 1155 715 l 1,34,-1
 900 715 l 1,12,-1
EndSplineSet
Validated: 3073
EndChar

StartChar: uni2126
Encoding: 8486 8486 169
Width: 1700
GlyphClass: 2
Flags: W
HStem: 0 269<258.875 498 1202 1441.12> 50 297<160 457 1243 1540> 1256 274<710.274 1049.12>
VStem: 160 615<34.2896 269> 241 350<499.751 1120.7> 1109 350<554.192 1199.23>
LayerCount: 2
Fore
SplineSet
160 347 m 1,0,1
 374 269 374 269 458 269 c 10,2,-1
 498 269 l 17,3,-1
 498 289 l 17,4,5
 241 390 241 390 241 630 c 2,6,-1
 241 910 l 2,7,8
 241 1530 241 1530 959 1530 c 0,9,10
 1459 1530 1459 1530 1459 1113 c 2,11,-1
 1459 807 l 2,12,13
 1459 442 1459 442 1202 289 c 1,14,-1
 1202 269 l 9,15,-1
 1242 269 l 18,16,17
 1326 269 1326 269 1540 347 c 1,18,-1
 1540 50 l 1,19,20
 1423 0 1423 0 1240 0 c 2,21,-1
 925 0 l 1,22,-1
 925 424 l 1,23,24
 1109 488 1109 488 1109 788 c 2,25,-1
 1109 1090 l 2,26,27
 1109 1256 1109 1256 857 1256 c 0,28,29
 591 1256 591 1256 591 890 c 2,30,-1
 591 614 l 2,31,32
 591 468 591 468 775 432 c 9,33,-1
 775 0 l 1,34,-1
 460 0 l 2,35,36
 277 0 277 0 160 50 c 1,37,-1
 160 347 l 1,0,1
EndSplineSet
Validated: 3073
EndChar

StartChar: estimated
Encoding: 8494 8494 170
Width: 1483
GlyphClass: 2
Flags: W
HStem: -20 238<599.593 911.488> 454 230<548 936> 894 234<599.804 886.805>
VStem: 150 398<326.5 454 684 772>
LayerCount: 2
Fore
SplineSet
1302 357 m 1,0,1
 1234 180 1234 180 1082 76 c 0,2,3
 939 -20 939 -20 748 -20 c 0,4,5
 470 -20 470 -20 320 134 c 0,6,7
 150 309 150 309 150 554 c 0,8,9
 150 784 150 784 320 966 c 0,10,11
 471 1128 471 1128 749 1128 c 0,12,13
 1006 1128 1006 1128 1168 960 c 0,14,15
 1333 786 1333 786 1333 529 c 2,16,-1
 1333 454 l 1,17,-1
 548 454 l 1,18,-1
 548 299 l 1,19,20
 638 218 638 218 751 218 c 0,21,22
 858 218 858 218 922 270 c 0,23,24
 968 308 968 308 978 357 c 1,25,-1
 1302 357 l 1,0,1
548 684 m 1,26,-1
 936 684 l 1,27,-1
 936 815 l 1,28,29
 838 894 838 894 749 894 c 0,30,31
 645 894 645 894 548 815 c 1,32,-1
 548 684 l 1,26,-1
EndSplineSet
Validated: 3073
EndChar

StartChar: partialdiff
Encoding: 8706 8706 171
Width: 1332
GlyphClass: 2
Flags: W
HStem: -20 21G<473 645.5> 678 261<551.079 687.969> 1116 349<442.241 703.289>
VStem: 150 353<308.456 625.494>
LayerCount: 2
Fore
SplineSet
503 410 m 24,0,1
 503 308 503 308 550 308 c 0,2,3
 569 308 569 308 586 324 c 0,4,5
 634 369 634 369 676 452 c 0,6,7
 705 509 705 509 721 564 c 1,8,9
 687 678 687 678 607 678 c 24,10,11
 561 678 561 678 527 579 c 0,12,13
 503 509 503 509 503 410 c 24,0,1
342 1412 m 1,14,15
 506 1465 506 1465 640 1465 c 0,16,17
 933 1465 933 1465 1076 1158 c 0,18,19
 1132 1038 1132 1038 1132 839 c 0,20,21
 1132 725 1132 725 1108 602 c 0,22,23
 1045 278 1045 278 878 118 c 0,24,25
 734 -20 734 -20 557 -20 c 0,26,27
 389 -20 389 -20 277 84 c 0,28,29
 150 202 150 202 150 405 c 0,30,31
 150 602 150 602 250 757 c 0,32,33
 367 939 367 939 585 939 c 0,34,35
 682 939 682 939 765 898 c 1,36,37
 760 963 760 963 745 1002 c 0,38,39
 723 1059 723 1059 689 1085 c 0,40,41
 650 1116 650 1116 585 1116 c 0,42,43
 493 1116 493 1116 342 1011 c 1,44,-1
 342 1412 l 1,14,15
EndSplineSet
Validated: 1
EndChar

StartChar: uni2206
Encoding: 8710 8710 172
Width: 1446
GlyphClass: 2
Flags: W
HStem: 0 267<417 957> 1490 20G<564.556 881.444>
DStem2: 10 0 417 267 0.34881 0.937194<392.196 1195.35>
LayerCount: 2
Fore
SplineSet
10 0 m 1,0,-1
 572 1510 l 1,1,-1
 874 1510 l 1,2,-1
 1436 0 l 1,3,-1
 10 0 l 1,0,-1
417 267 m 1,4,-1
 957 267 l 1,5,-1
 691 1022 l 1,6,-1
 417 267 l 1,4,-1
EndSplineSet
Validated: 3073
EndChar

StartChar: product
Encoding: 8719 8719 173
Width: 1556
GlyphClass: 2
Flags: W
HStem: -410 20G<200 550 1006 1356> 1233 277<550 1006>
VStem: 200 350<-410 1233> 1006 350<-411 1233>
LayerCount: 2
Fore
SplineSet
200 1510 m 1,0,-1
 1356 1510 l 1,1,-1
 1356 -411 l 1,2,-1
 1006 -411 l 1,3,-1
 1006 1233 l 1,4,-1
 550 1233 l 1,5,-1
 550 -410 l 1,6,-1
 200 -410 l 1,7,-1
 200 1510 l 1,0,-1
EndSplineSet
Validated: 3073
EndChar

StartChar: summation
Encoding: 8721 8721 174
Width: 1646
GlyphClass: 2
Flags: W
HStem: -410 277<722 1445.75> 1233 277<736 1378>
DStem2: 736 1233 150 1510 0.554086 -0.832459<0 572.697> 153 -410 722 -133 0.535482 0.844547<538.629 1161.57>
LayerCount: 2
Fore
SplineSet
150 1510 m 1,0,-1
 1378 1510 l 1,1,-1
 1378 1233 l 1,2,-1
 736 1233 l 1,3,-1
 1191 568 l 1,4,-1
 722 -133 l 1,5,-1
 1196 -133 l 2,6,7
 1379 -133 1379 -133 1496 -63 c 1,8,-1
 1496 -360 l 1,9,10
 1379 -410 1379 -410 1196 -410 c 2,11,-1
 153 -410 l 1,12,-1
 775 571 l 1,13,-1
 150 1510 l 1,0,-1
EndSplineSet
Validated: 3073
EndChar

StartChar: minus
Encoding: 8722 8722 175
Width: 1333
GlyphClass: 2
Flags: W
HStem: 621 277<150 1183>
LayerCount: 2
Fore
SplineSet
1183 621 m 1,0,-1
 150 621 l 1,1,-1
 150 898 l 1,2,-1
 1183 898 l 1,3,-1
 1183 621 l 1,0,-1
EndSplineSet
Validated: 3073
EndChar

StartChar: uni2215
Encoding: 8725 8725 176
Width: 1263
GlyphClass: 2
Flags: W
DStem2: 50 -68 331 -200 0.445193 0.895434<6.90201 1979.82>
LayerCount: 2
Fore
SplineSet
931 1705 m 1,0,-1
 1213 1574 l 1,1,-1
 331 -200 l 1,2,-1
 50 -68 l 1,3,-1
 931 1705 l 1,0,-1
EndSplineSet
Validated: 3073
EndChar

StartChar: asteriskmath
Encoding: 8727 8727 177
Width: 1333
GlyphClass: 2
Flags: W
VStem: 528 277<243 520 999 1276>
DStem2: 288 1138 150 898 0.865912 -0.500197<0.551469 277.346 757.112 1033.59> 150 621 288 381 0.865912 0.500197<0 276.795 757.061 1033.04>
LayerCount: 2
Fore
SplineSet
528 1276 m 1,0,-1
 805 1276 l 1,1,-1
 805 999 l 1,2,-1
 1045 1138 l 1,3,-1
 1183 898 l 1,4,-1
 944 760 l 1,5,-1
 1183 621 l 1,6,-1
 1045 381 l 1,7,-1
 805 520 l 1,8,-1
 805 243 l 1,9,-1
 528 243 l 1,10,-1
 528 520 l 1,11,-1
 288 381 l 1,12,-1
 150 621 l 1,13,-1
 390 760 l 1,14,-1
 150 898 l 1,15,-1
 288 1138 l 1,16,-1
 528 999 l 1,17,-1
 528 1276 l 1,0,-1
EndSplineSet
Validated: 3073
EndChar

StartChar: uni2218
Encoding: 8728 8728 178
Width: 1144
GlyphClass: 2
Flags: W
HStem: 394 232<465.574 671.67> 893 244<470.123 671.377>
VStem: 200 243<652.406 870.897> 696 248<648.272 866.659>
LayerCount: 2
Fore
SplineSet
200 763 m 0,0,1
 200 1137 200 1137 572 1137 c 128,-1,2
 944 1137 944 1137 944 765 c 0,3,4
 943 394 943 394 573 394 c 0,5,6
 200 394 200 394 200 763 c 0,0,1
443 760 m 0,7,8
 443 626 443 626 570 626 c 0,9,10
 696 626 696 626 696 760 c 0,11,12
 696 893 696 893 569.5 893 c 128,-1,13
 443 893 443 893 443 760 c 0,7,8
EndSplineSet
Validated: 1
EndChar

StartChar: uni2219
Encoding: 8729 8729 179
Width: 702
GlyphClass: 2
Flags: W
HStem: 558 406<206.728 495.272>
VStem: 150 402<615.292 906.426>
LayerCount: 2
Fore
SplineSet
150 760 m 0,0,1
 150 964 150 964 351 964 c 128,-1,2
 552 964 552 964 552 761 c 128,-1,3
 552 558 552 558 351 558 c 128,-1,4
 150 558 150 558 150 760 c 0,0,1
EndSplineSet
Validated: 3073
EndChar

StartChar: radical
Encoding: 8730 8730 180
Width: 1421
GlyphClass: 2
Flags: W
HStem: 0 21G<487.167 790.748> 600 255<100 260> 1263 247<1148 1321>
DStem2: 653 524 785 0 0.276228 0.961092<0 846.98>
LayerCount: 2
Fore
SplineSet
495 0 m 1,0,-1
 260 600 l 1,1,-1
 100 600 l 1,2,-1
 100 855 l 1,3,-1
 530 855 l 1,4,-1
 653 524 l 1,5,-1
 933 1510 l 1,6,-1
 1321 1510 l 1,7,-1
 1321 1263 l 1,8,-1
 1148 1263 l 1,9,-1
 785 0 l 1,10,-1
 495 0 l 1,0,-1
EndSplineSet
Validated: 3073
EndChar

StartChar: uni221B
Encoding: 8731 8731 181
Width: 1421
GlyphClass: 2
Flags: W
HStem: 0 21G<487.167 790.748> 600 255<100 260> 870 177<338.65 518.34> 1143 130<286 481.705> 1263 247<1148 1321> 1354 176<260.718 477.057>
DStem2: 653 524 785 0 0.276228 0.961092<0 846.98>
LayerCount: 2
Fore
SplineSet
176 1058 m 9,0,-1
 381 1098 l 17,1,2
 393 1047 393 1047 444 1047 c 0,3,4
 522 1047 522 1047 522 1111 c 2,5,-1
 522 1119 l 2,6,7
 522 1143 522 1143 444 1143 c 2,8,-1
 286 1143 l 1,9,-1
 286 1273 l 1,10,-1
 306 1273 l 2,11,12
 487 1273 487 1273 487 1335 c 2,13,-1
 487 1338 l 2,14,15
 487 1354 487 1354 441 1354 c 2,16,-1
 429 1354 l 2,17,18
 345 1354 345 1354 258 1315 c 1,19,-1
 258 1504 l 1,20,21
 321 1530 321 1530 453 1530 c 2,22,-1
 471 1530 l 2,23,24
 713 1530 713 1530 713 1380 c 2,25,-1
 713 1372 l 2,26,27
 713 1319 713 1319 675 1249 c 1,28,29
 752 1207 752 1207 752 1131 c 2,30,-1
 752 1122 l 2,31,32
 752 870 752 870 396 870 c 0,33,34
 176 870 176 870 176 1058 c 9,0,-1
495 0 m 1,35,-1
 260 600 l 1,36,-1
 100 600 l 1,37,-1
 100 855 l 1,38,-1
 530 855 l 1,39,-1
 653 524 l 1,40,-1
 933 1510 l 1,41,-1
 1321 1510 l 1,42,-1
 1321 1263 l 1,43,-1
 1148 1263 l 1,44,-1
 785 0 l 1,45,-1
 495 0 l 1,35,-1
EndSplineSet
Validated: 3073
EndChar

StartChar: infinity
Encoding: 8734 8734 182
Width: 1547
GlyphClass: 2
Flags: W
HStem: 394 232<415.574 621.799 918.898 1124.79> 893 244<420.123 621.803 918.713 1124.38>
VStem: 150 243<652.406 870.897> 646 250<648.115 870.967> 1149 248<648.373 866.618>
LayerCount: 2
Fore
SplineSet
150 763 m 0,0,1
 150 1137 150 1137 522 1137 c 0,2,3
 683 1137 683 1137 774 1068 c 1,4,5
 865 1137 865 1137 1025 1137 c 0,6,7
 1397 1137 1397 1137 1397 765 c 0,8,9
 1397 395 1397 395 1026 394 c 0,10,11
 865 394 865 394 773 463 c 1,12,13
 682 394 682 394 523 394 c 0,14,15
 150 394 150 394 150 763 c 0,0,1
393 760 m 0,16,17
 393 626 393 626 520 626 c 0,18,19
 646 626 646 626 646 760 c 0,20,21
 646 893 646 893 519.5 893 c 128,-1,22
 393 893 393 893 393 760 c 0,16,17
896 759.5 m 128,-1,24
 896 626 896 626 1023 626 c 0,25,26
 1149 626 1149 626 1149 759.5 c 128,-1,27
 1149 893 1149 893 1022.5 893 c 128,-1,23
 896 893 896 893 896 759.5 c 128,-1,24
EndSplineSet
Validated: 3073
EndChar

StartChar: approxequal
Encoding: 8776 8776 183
Width: 1358
GlyphClass: 2
Flags: W
VStem: 150 350<346 452.42 854 960.42> 858 350<548.58 655 1056.58 1163>
LayerCount: 2
Fore
SplineSet
150 346 m 1,0,1
 150 753 150 753 392 753 c 0,2,3
 523 753 523 753 628 665 c 0,4,5
 773 544 773 544 805 544 c 0,6,7
 858 544 858 544 858 753 c 1,8,-1
 1208 655 l 1,9,10
 1208 248 1208 248 966 248 c 0,11,12
 830 248 830 248 730 336 c 0,13,14
 595 457 595 457 553 457 c 0,15,16
 500 457 500 457 500 248 c 1,17,-1
 150 346 l 1,0,1
150 854 m 1,18,19
 150 1261 150 1261 392 1261 c 0,20,21
 523 1261 523 1261 628 1173 c 0,22,23
 773 1052 773 1052 805 1052 c 0,24,25
 858 1052 858 1052 858 1261 c 1,26,-1
 1208 1163 l 1,27,28
 1208 756 1208 756 966 756 c 0,29,30
 830 756 830 756 730 844 c 0,31,32
 595 965 595 965 553 965 c 0,33,34
 500 965 500 965 500 756 c 1,35,-1
 150 854 l 1,18,19
EndSplineSet
Validated: 1
EndChar

StartChar: notequal
Encoding: 8800 8800 184
Width: 1411
GlyphClass: 2
Flags: W
HStem: 0 21G<150 501.203> 394 277<189 350 833 1222> 848 277<189 581 1065 1222> 1490 20G<906.818 1261>
VStem: 150 341<0 341> 917 344<1166 1510>
DStem2: 150 0 491 0 0.454279 0.890859<154.909 441.854 908.039 951.243 1417.88 1693.63>
LayerCount: 2
Fore
SplineSet
150 0 m 1,0,-1
 350 394 l 1,1,-1
 189 394 l 1,2,-1
 189 671 l 1,3,-1
 491 671 l 1,4,-1
 581 848 l 1,5,-1
 189 848 l 1,6,-1
 189 1125 l 1,7,-1
 721 1125 l 1,8,-1
 917 1510 l 1,9,-1
 1261 1510 l 1,10,-1
 1065 1125 l 1,11,-1
 1222 1125 l 1,12,-1
 1222 848 l 1,13,-1
 923 848 l 1,14,-1
 833 671 l 1,15,-1
 1222 671 l 1,16,-1
 1222 394 l 1,17,-1
 692 394 l 1,18,-1
 491 0 l 1,19,-1
 150 0 l 1,0,-1
EndSplineSet
Validated: 3073
EndChar

StartChar: equivalence
Encoding: 8801 8801 185
Width: 1333
GlyphClass: 2
Flags: W
HStem: 167 277<150 1183> 621 277<150 1183> 1075 277<150 1183>
VStem: 150 1033<167 444 621 898 1075 1352>
CounterMasks: 1 e0
LayerCount: 2
Fore
SplineSet
1183 167 m 1,0,-1
 150 167 l 1,1,-1
 150 444 l 1,2,-1
 1183 444 l 1,3,-1
 1183 167 l 1,0,-1
1183 621 m 1,4,-1
 150 621 l 1,5,-1
 150 898 l 1,6,-1
 1183 898 l 1,7,-1
 1183 621 l 1,4,-1
1183 1075 m 1,8,-1
 150 1075 l 1,9,-1
 150 1352 l 1,10,-1
 1183 1352 l 1,11,-1
 1183 1075 l 1,8,-1
EndSplineSet
Validated: 3073
EndChar

StartChar: lessequal
Encoding: 8804 8804 186
Width: 1406
GlyphClass: 2
Flags: W
HStem: -20 300<200 1206> 291 396<810 1206> 1222 328<878 1206>
DStem2: 200 1023 646 933 0.885814 0.46404<353.31 983.473> 646 933 200 764 0.904961 -0.425494<0 611.45>
LayerCount: 2
Fore
SplineSet
200 764 m 1,0,-1
 200 1023 l 1,1,-1
 1206 1550 l 1,2,-1
 1206 1222 l 1,3,-1
 646 933 l 1,4,-1
 1206 687 l 1,5,-1
 1206 291 l 1,6,-1
 200 764 l 1,0,-1
1206 -20 m 1,7,-1
 200 -20 l 1,8,-1
 200 280 l 1,9,-1
 1206 280 l 1,10,-1
 1206 -20 l 1,7,-1
EndSplineSet
Validated: 3073
EndChar

StartChar: greaterequal
Encoding: 8805 8805 187
Width: 1406
GlyphClass: 2
Flags: W
HStem: -20 300<200 1206> 291 328<200 528> 1154 396<200 596>
DStem2: 200 619 200 291 0.885814 0.46404<0 630.164>
LayerCount: 2
Fore
SplineSet
1206 1077 m 1,0,-1
 1206 818 l 1,1,-1
 200 291 l 1,2,-1
 200 619 l 1,3,-1
 760 908 l 1,4,-1
 200 1154 l 1,5,-1
 200 1550 l 1,6,-1
 1206 1077 l 1,0,-1
1206 -20 m 1,7,-1
 200 -20 l 1,8,-1
 200 280 l 1,9,-1
 1206 280 l 1,10,-1
 1206 -20 l 1,7,-1
EndSplineSet
Validated: 3073
EndChar

StartChar: lozenge
Encoding: 9674 9674 188
Width: 1413
GlyphClass: 2
Flags: W
HStem: 0 21G<690.497 721.488> 1490 20G<690.456 721.612>
LayerCount: 2
Fore
SplineSet
740 493 m 1,0,-1
 903 705 l 1,1,-1
 667 998 l 1,2,-1
 499 797 l 1,3,-1
 740 493 l 1,0,-1
706 0 m 1,4,-1
 120 756 l 1,5,-1
 706 1510 l 1,6,-1
 1293 758 l 1,7,-1
 706 0 l 1,4,-1
EndSplineSet
Validated: 3073
EndChar

StartChar: s
Encoding: 115 115 190
Width: 1318
Flags: W
HStem: -20 274<339.5 784.11> 846 274<549.041 840.143>
LayerCount: 2
Fore
SplineSet
150 330 m 9,0,-1
 500 428 l 17,1,2
 500 254 500 254 662 254 c 0,3,4
 818 254 818 254 818 385 c 2,5,-1
 818 387 l 2,6,7
 818 441 818 441 665 453 c 0,8,9
 190 490 190 490 190 733 c 2,10,-1
 190 734 l 2,11,12
 190 1120 190 1120 789 1120 c 0,13,14
 1124 1120 1124 1120 1128 834 c 1,15,16
 1072 819 1072 819 778 736 c 1,17,18
 778 846 778 846 654 846 c 0,19,20
 536 846 536 846 536 770 c 2,21,-1
 536 768 l 2,22,23
 536 721 536 721 668 711 c 0,24,25
 1168 672 1168 672 1168 395 c 2,26,-1
 1168 394 l 2,27,28
 1168 -20 1168 -20 529 -20 c 0,29,30
 150 -20 150 -20 150 330 c 9,0,-1
EndSplineSet
Validated: 1
EndChar

StartChar: M
Encoding: 77 77 191
Width: 1844
Flags: W
HStem: 0 21G<200 550 1319 1714> 1490 20G<130 642.5 1184 1644>
VStem: 200 350<0 1170> 747 350<570 962.812> 1294 350<50.9019 1172>
CounterMasks: 1 38
LayerCount: 2
Fore
SplineSet
200 0 m 1,0,-1
 200 1210 l 2,1,2
 200 1391 200 1391 130 1510 c 1,3,-1
 425 1510 l 2,4,5
 860 1510 860 1510 916 1029 c 1,6,-1
 925 1029 l 17,7,8
 999 1510 999 1510 1369 1510 c 2,9,-1
 1644 1510 l 1,10,-1
 1644 300 l 2,11,12
 1644 119 1644 119 1714 0 c 1,13,-1
 1344 0 l 1,14,15
 1294 105 1294 105 1294 300 c 2,16,-1
 1294 1172 l 1,17,18
 1097 1100 1097 1100 1097 570 c 1,19,-1
 747 570 l 1,20,21
 747 1094 747 1094 550 1170 c 9,22,-1
 550 0 l 1,23,-1
 200 0 l 1,0,-1
EndSplineSet
Validated: 1
EndChar

StartChar: N
Encoding: 78 78 192
Width: 1556
Flags: W
HStem: 0 21G<200 550 1005 1355.01> 1490 20G<130 636 1006 1356>
VStem: 200 350<0 1170> 1006 350<0 490.957 1080 1510>
LayerCount: 2
Fore
SplineSet
200 0 m 1,0,-1
 200 1210 l 2,1,2
 200 1391 200 1391 130 1510 c 1,3,-1
 458 1510 l 2,4,5
 814 1510 814 1510 998 1080 c 9,6,-1
 1006 1080 l 17,7,-1
 1006 1510 l 1,8,-1
 1356 1510 l 1,9,-1
 1355 0 l 1,10,-1
 1005 0 l 1,11,12
 1005 929 1005 929 550 1170 c 9,13,-1
 550 0 l 1,14,-1
 200 0 l 1,0,-1
EndSplineSet
Validated: 1
EndChar

StartChar: W
Encoding: 87 87 193
Width: 2045
Flags: W
HStem: -20 300<563.249 726.549> -20 256<1239.54 1427.19> 1490 20G<130 525 1515 1865>
VStem: 199 350<289.781 1459.5> 867 350<553.065 1250> 1515 350<348.122 1510>
LayerCount: 2
Fore
SplineSet
130 1510 m 1,0,1
 500 1510 l 1,2,3
 550 1409 550 1409 550 1210 c 2,4,-1
 549 395 l 2,5,6
 549 280 549 280 629 280 c 0,7,8
 867 280 867 280 867 1097 c 2,9,-1
 867 1250 l 1,10,-1
 1217 1250 l 1,11,-1
 1217 410 l 2,12,13
 1217 236 1217 236 1308 236 c 0,14,15
 1515 236 1515 236 1515 583 c 2,16,-1
 1515 1510 l 1,17,-1
 1865 1510 l 1,18,-1
 1865 608 l 2,19,20
 1865 -20 1865 -20 1246 -20 c 0,21,22
 1032 -20 1032 -20 917 140 c 1,23,24
 768 -20 768 -20 578 -20 c 0,25,26
 199 -20 199 -20 199 321 c 2,27,-1
 199 1212 l 2,28,29
 199 1392 199 1392 130 1510 c 1,0,1
EndSplineSet
Validated: 1
EndChar

StartChar: A
Encoding: 65 65 194
Width: 1536
Flags: W
HStem: 0 21G<180 530 1011 1406> 621 277<530 986> 1260 270<642.556 940.175>
VStem: 180 350<0 621 898 1134.39> 986 350<52.875 621 898 1214.65>
LayerCount: 2
Fore
SplineSet
530 898 m 9,0,-1
 986 898 l 1,1,-1
 986 1104 l 2,2,3
 986 1260 986 1260 781 1260 c 0,4,5
 530 1260 530 1260 530 898 c 9,0,-1
180 0 m 1,6,-1
 180 907 l 2,7,8
 180 1530 180 1530 836 1530 c 0,9,10
 1336 1530 1336 1530 1336 1103 c 2,11,-1
 1336 300 l 2,12,13
 1336 119 1336 119 1406 0 c 1,14,-1
 1036 0 l 1,15,16
 986 91 986 91 986 300 c 2,17,-1
 986 621 l 1,18,-1
 530 621 l 1,19,-1
 530 0 l 1,20,-1
 180 0 l 1,6,-1
EndSplineSet
Validated: 1
EndChar

StartChar: onequarter
Encoding: 188 188 195
Width: 1868
Flags: W
HStem: 0 21G<228 579.199 1368 1668> 1246 263<150 268>
VStem: 150 418<1246 1483.55> 228 341<0 341> 995 344<1166 1510> 1008 300<441 805> 1368 300<0 222 441 732>
DStem2: 228 0 569 0 0.454279 0.890859<154.909 1693.63>
LayerCount: 2
Fore
SplineSet
228 0 m 1,0,-1
 995 1510 l 1,1,-1
 1339 1510 l 9,2,-1
 569 0 l 17,3,-1
 228 0 l 1,0,-1
1368 0 m 1,4,-1
 1368 222 l 1,5,-1
 1008 222 l 1,6,-1
 1008 805 l 17,7,-1
 1308 805 l 9,8,-1
 1308 441 l 1,9,-1
 1368 441 l 1,10,-1
 1368 732 l 1,11,-1
 1668 732 l 1,12,-1
 1668 0 l 1,13,-1
 1368 0 l 1,4,-1
268 705 m 1,14,-1
 268 1246 l 1,15,-1
 150 1246 l 1,16,-1
 150 1509 l 1,17,-1
 500 1510 l 1,18,19
 568 1448 568 1448 568 1295 c 2,20,-1
 568 705 l 1,21,-1
 268 705 l 1,14,-1
EndSplineSet
Validated: 1
EndChar

StartChar: onehalf
Encoding: 189 189 196
Width: 1861
Flags: W
HStem: 0 225<1268 1610.75> 583 232<1066.9 1347.7> 1246 263<150 268>
VStem: 150 418<1246 1483.55> 228 341<0 341> 995 344<1166 1510>
DStem2: 228 0 569 0 0.454279 0.890859<154.909 1693.63>
LayerCount: 2
Fore
SplineSet
957 0 m 17,0,1
 957 438 957 438 1269 472 c 0,2,3
 1351 481 1351 481 1351 542 c 2,4,-1
 1351 543 l 2,5,6
 1351 583 1351 583 1288 583 c 2,7,-1
 1271 583 l 2,8,9
 1146 583 1146 583 1013 513 c 1,10,-1
 1014 765 l 1,11,12
 1153 815 1153 815 1314 815 c 2,13,-1
 1338 815 l 2,14,15
 1651 815 1651 815 1651 591 c 2,16,-1
 1651 590 l 2,17,18
 1651 315 1651 315 1303 305 c 0,19,20
 1268 304 1268 304 1268 225 c 9,21,-1
 1361 225 l 2,22,23
 1544 225 1544 225 1661 295 c 1,24,-1
 1660 50 l 1,25,26
 1522 0 1522 0 1360 0 c 2,27,-1
 957 0 l 17,0,1
228 0 m 1,28,-1
 995 1510 l 1,29,-1
 1339 1510 l 9,30,-1
 569 0 l 17,31,-1
 228 0 l 1,28,-1
268 705 m 1,32,-1
 268 1246 l 1,33,-1
 150 1246 l 1,34,-1
 150 1509 l 1,35,-1
 500 1510 l 1,36,37
 568 1448 568 1448 568 1295 c 2,38,-1
 568 705 l 1,39,-1
 268 705 l 1,32,-1
EndSplineSet
Validated: 1
EndChar

StartChar: threequarters
Encoding: 190 190 197
Width: 2084
Flags: W
HStem: 0 21G<442 793.199 1584 1884> 705 221<362.672 576.553> 1046 163<288 524.875> 1310 220<263.121 534.531> 1490 20G<1198.84 1553>
VStem: 442 341<0 341> 1209 344<1166 1510> 1224 300<441 805> 1584 300<0 222 441 732>
DStem2: 442 0 783 0 0.454279 0.890859<154.909 1693.63>
LayerCount: 2
Fore
SplineSet
1584 0 m 1,0,-1
 1584 222 l 1,1,-1
 1224 222 l 1,2,-1
 1224 805 l 17,3,-1
 1524 805 l 9,4,-1
 1524 441 l 1,5,-1
 1584 441 l 1,6,-1
 1584 732 l 1,7,-1
 1884 732 l 1,8,-1
 1884 0 l 1,9,-1
 1584 0 l 1,0,-1
150 940 m 9,10,-1
 407 990 l 17,11,12
 424 926 424 926 485 926 c 0,13,14
 583 926 583 926 583 1006 c 2,15,-1
 583 1016 l 2,16,17
 583 1046 583 1046 485 1046 c 2,18,-1
 288 1046 l 1,19,-1
 288 1209 l 1,20,-1
 313 1209 l 2,21,22
 539 1209 539 1209 539 1286 c 2,23,-1
 539 1290 l 2,24,25
 539 1310 539 1310 482 1310 c 2,26,-1
 467 1310 l 2,27,28
 361 1310 361 1310 253 1261 c 1,29,-1
 253 1497 l 1,30,31
 331 1530 331 1530 497 1530 c 2,32,-1
 519 1530 l 2,33,34
 821 1530 821 1530 821 1342 c 2,35,-1
 821 1332 l 2,36,37
 821 1266 821 1266 774 1179 c 1,38,39
 870 1126 870 1126 870 1031 c 2,40,-1
 870 1020 l 2,41,42
 870 705 870 705 425 705 c 0,43,44
 150 705 150 705 150 940 c 9,10,-1
442 0 m 1,45,-1
 1209 1510 l 1,46,-1
 1553 1510 l 9,47,-1
 783 0 l 17,48,-1
 442 0 l 1,45,-1
EndSplineSet
Validated: 1
EndChar

StartChar: germandbls
Encoding: 223 223 198
Width: 1406
Flags: W
HStem: 0 277<644 806.637> 691 240<664 780.095> 1256 274<634.704 810.135>
VStem: 200 350<0 1145.46> 828 339<978.965 1238.1> 916 350<388.158 641.826>
LayerCount: 2
Fore
SplineSet
200 0 m 1,0,-1
 200 874 l 2,1,2
 200 1530 200 1530 756 1530 c 0,3,4
 1167 1530 1167 1530 1167 1162 c 2,5,-1
 1167 1159 l 2,6,7
 1167 979 1167 979 1033 870 c 1,8,9
 1266 796 1266 796 1266 568 c 2,10,-1
 1266 566 l 2,11,12
 1266 0 1266 0 644 0 c 9,13,-1
 644 277 l 17,14,15
 916 280 916 280 916 551 c 2,16,-1
 916 553 l 2,17,18
 916 690 916 690 664 691 c 9,19,-1
 664 931 l 17,20,21
 828 935 828 935 828 1116 c 2,22,-1
 828 1146 l 2,23,24
 828 1256 828 1256 732 1256 c 24,25,26
 550 1256 550 1256 550 876 c 2,27,-1
 550 0 l 1,28,-1
 200 0 l 1,0,-1
EndSplineSet
Validated: 3073
EndChar

StartChar: uni0191
Encoding: 401 401 199
Width: 1237
Flags: W
HStem: -430 21G<10 280> 621 277<550 1117> 1233 277<550 1117>
VStem: 200 350<29 621 898 1230.56>
LayerCount: 2
Fore
SplineSet
130 1510 m 1,0,-1
 1117 1510 l 1,1,-1
 1117 1233 l 1,2,-1
 550 1233 l 9,3,-1
 550 898 l 1,4,-1
 1117 898 l 1,5,-1
 1117 621 l 1,6,-1
 550 621 l 1,7,-1
 550 300 l 2,8,9
 550 -301 550 -301 10 -430 c 1,10,-1
 10 -164 l 1,11,12
 200 -30 200 -30 200 300 c 2,13,-1
 200 1210 l 2,14,15
 200 1340 200 1340 130 1510 c 1,0,-1
EndSplineSet
Validated: 3073
EndChar

StartChar: Oslash
Encoding: 216 216 200
Width: 1538
Flags: W
HStem: -20 274<632.901 908.726> 1256 274<629.274 908.254>
VStem: 160 350<525 1118.06> 1028 350<391.938 978>
DStem2: 510 525 631 269 0.488625 0.872494<0 648.347>
LayerCount: 2
Fore
SplineSet
216 0 m 1,0,-1
 271 98 l 1,1,2
 160 202 160 202 160 399 c 2,3,-1
 160 906 l 2,4,5
 160 1530 160 1530 878 1530 c 0,6,7
 987 1530 987 1530 1073 1510 c 1,8,-1
 1326 1510 l 1,9,-1
 1270 1410 l 1,10,11
 1378 1306 1378 1306 1378 1111 c 2,12,-1
 1378 604 l 2,13,14
 1378 -20 1378 -20 660 -20 c 0,15,16
 551 -20 551 -20 465 -0 c 1,17,-1
 216 0 l 1,0,-1
510 525 m 1,18,-1
 910 1240 l 1,19,20
 856 1256 856 1256 776 1256 c 0,21,22
 510 1256 510 1256 510 899 c 2,23,-1
 510 525 l 1,18,-1
1028 978 m 1,24,-1
 631 269 l 1,25,26
 685 254 685 254 762 254 c 0,27,28
 1028 254 1028 254 1028 611 c 2,29,-1
 1028 978 l 1,24,-1
EndSplineSet
Validated: 3073
EndChar

StartChar: eth
Encoding: 240 240 201
Width: 1388
Flags: W
HStem: -20 274<521.693 776.299> 672 274<561.041 817.156>
VStem: 150 350<287.647 605.359> 838 350<320.641 646.427 944 1000.12>
LayerCount: 2
Fore
SplineSet
150 342 m 2,0,-1
 150 430 l 2,1,2
 150 946 150 946 776 946 c 0,3,4
 793 946 793 946 825 944 c 1,5,6
 825 1034 825 1034 779 1103 c 1,7,-1
 539 966 l 1,8,-1
 401 1206 l 1,9,-1
 510 1268 l 1,10,11
 452 1284 452 1284 384 1296 c 1,12,-1
 575 1550 l 1,13,14
 728 1529 728 1529 843 1458 c 1,15,-1
 1062 1584 l 1,16,-1
 1199 1343 l 1,17,-1
 1043 1254 l 1,18,19
 1188 1016 1188 1016 1188 592 c 2,20,-1
 1188 496 l 2,21,22
 1188 -20 1188 -20 560 -20 c 0,23,24
 150 -20 150 -20 150 342 c 2,0,-1
500 363 m 2,25,26
 500 254 500 254 662 254 c 0,27,28
 838 254 838 254 838 501 c 2,29,-1
 838 563 l 2,30,31
 838 672 838 672 676 672 c 0,32,33
 500 672 500 672 500 425 c 2,34,-1
 500 363 l 2,25,26
EndSplineSet
Validated: 3073
EndChar

StartChar: oslash
Encoding: 248 248 202
Width: 1338
Flags: W
HStem: -20 274<599 773.422> 846 274<564.578 756>
VStem: 150 350<456 779.359> 838 350<320.641 634>
DStem2: 500 456 599 254 0.54875 0.835986<0 334.283>
LayerCount: 2
Fore
SplineSet
230 0 m 1,0,-1
 264 61 l 1,1,2
 150 151 150 151 150 342 c 2,3,-1
 150 604 l 2,4,5
 150 1120 150 1120 778 1120 c 0,6,7
 874 1120 874 1120 948 1100 c 1,8,-1
 1110 1100 l 1,9,-1
 1076 1038 l 1,10,11
 1188 948 1188 948 1188 758 c 2,12,-1
 1188 496 l 2,13,14
 1188 -20 1188 -20 560 -20 c 0,15,16
 464 -20 464 -20 390 -0 c 1,17,-1
 230 0 l 1,0,-1
756 846 m 1,18,19
 716 846 716 846 676 846 c 0,20,21
 500 846 500 846 500 599 c 2,22,-1
 500 456 l 1,23,-1
 756 846 l 1,18,19
838 634 m 1,24,-1
 599 254 l 1,25,26
 630 254 630 254 662 254 c 0,27,28
 838 254 838 254 838 501 c 2,29,-1
 838 634 l 1,24,-1
EndSplineSet
Validated: 19457
EndChar

StartChar: uni1E02
Encoding: 7682 7682 203
Width: 1486
Flags: W
HStem: 0 277<550 890.063> 690 277<550 860.095> 1233 277<550 892.508> 1566 381<543.341 813.224>
VStem: 200 350<277 690 967 1232.38> 490 376<1617.84 1896.48> 908 339<1014.82 1211.56> 996 350<384.211 639.532>
LayerCount: 2
Fore
SplineSet
679 1947 m 0,0,1
 866 1947 866 1947 866 1757 c 0,2,3
 866 1566 866 1566 677 1566 c 0,4,5
 490 1566 490 1566 490 1761 c 0,6,7
 490 1947 490 1947 679 1947 c 0,0,1
200 0 m 1,8,-1
 200 1210 l 2,9,10
 200 1391 200 1391 130 1510 c 1,11,-1
 767 1510 l 2,12,13
 1247 1510 1247 1510 1247 1192 c 2,14,-1
 1247 1190 l 2,15,16
 1247 1006 1247 1006 1113 894 c 1,17,18
 1346 850 1346 850 1346 584 c 2,19,-1
 1346 582 l 2,20,21
 1346 0 1346 0 628 0 c 2,22,-1
 200 0 l 1,8,-1
550 277 m 1,23,-1
 730 277 l 2,24,25
 996 277 996 277 996 550 c 2,26,-1
 996 552 l 2,27,28
 996 690 996 690 744 690 c 2,29,-1
 550 690 l 1,30,-1
 550 277 l 1,23,-1
550 967 m 1,31,-1
 716 967 l 2,32,33
 908 967 908 967 908 1136 c 2,34,-1
 908 1146 l 2,35,36
 908 1233 908 1233 742 1233 c 2,37,-1
 550 1233 l 25,38,-1
 550 967 l 1,31,-1
EndSplineSet
Validated: 3073
EndChar

StartChar: uni1E03
Encoding: 7683 7683 204
Width: 1378
Flags: W
HStem: -20 286<386.461 815.593> 820 300<687.186 854.649> 1169 381<706.341 976.224> 1490 20G<130 525>
VStem: 200 350<300.737 616.86 1015 1457.27> 653 376<1220.84 1499.48> 868 350<320.641 809.364>
LayerCount: 2
Fore
SplineSet
842 1550 m 0,0,1
 1029 1550 1029 1550 1029 1360 c 0,2,3
 1029 1169 1029 1169 840 1169 c 0,4,5
 653 1169 653 1169 653 1364 c 0,6,7
 653 1550 653 1550 842 1550 c 0,0,1
130 1510 m 1,8,-1
 500 1510 l 1,9,10
 550 1409 550 1409 550 1210 c 2,11,-1
 550 1015 l 1,12,13
 662 1120 662 1120 839 1120 c 0,14,15
 1218 1120 1218 1120 1218 789 c 2,16,-1
 1218 496 l 2,17,18
 1218 -20 1218 -20 579 -20 c 0,19,20
 200 -20 200 -20 200 311 c 2,21,-1
 200 1210 l 2,22,23
 200 1391 200 1391 130 1510 c 1,8,-1
868 501 m 2,24,-1
 868 718 l 2,25,26
 868 820 868 820 788 820 c 0,27,28
 692 820 692 820 626 688 c 0,29,30
 550 536 550 536 550 386 c 2,31,-1
 550 379 l 2,32,33
 550 266 550 266 713 266 c 0,34,35
 868 266 868 266 868 501 c 2,24,-1
EndSplineSet
Validated: 3073
EndChar

StartChar: uni1E0A
Encoding: 7690 7690 205
Width: 1538
Flags: W
HStem: 0 277<550 904.668> 1233 277<550 967.355> 1566 381<595.341 865.224>
VStem: 200 350<277 1232.38> 542 376<1617.84 1896.48> 1028 350<410.617 1178.44>
LayerCount: 2
Fore
SplineSet
731 1947 m 0,0,1
 918 1947 918 1947 918 1757 c 0,2,3
 918 1566 918 1566 729 1566 c 0,4,5
 542 1566 542 1566 542 1761 c 0,6,7
 542 1947 542 1947 731 1947 c 0,0,1
200 0 m 1,8,-1
 200 1210 l 2,9,10
 200 1391 200 1391 130 1510 c 1,11,-1
 878 1510 l 2,12,13
 1378 1510 1378 1510 1378 1092 c 2,14,-1
 1378 622 l 2,15,16
 1378 0 1378 0 661 0 c 2,17,-1
 200 0 l 1,8,-1
550 277 m 1,18,-1
 763 277 l 2,19,20
 1028 277 1028 277 1028 629 c 2,21,-1
 1028 1075 l 2,22,23
 1028 1233 1028 1233 775 1233 c 2,24,-1
 550 1233 l 9,25,-1
 550 277 l 1,18,-1
EndSplineSet
Validated: 3073
EndChar

StartChar: uni1E0B
Encoding: 7691 7691 206
Width: 1378
Flags: W
HStem: -20 300<523.351 686.095> 0 21G<871 1248> 834 286<564.022 803.917> 1169 381<380.341 650.224> 1490 20G<758 1153>
VStem: 160 350<290.636 779.359> 327 376<1220.84 1499.48> 828 350<474.472 807.019 1098 1458.45>
LayerCount: 2
Fore
SplineSet
516 1550 m 0,0,1
 703 1550 703 1550 703 1360 c 0,2,3
 703 1169 703 1169 514 1169 c 0,4,5
 327 1169 327 1169 327 1364 c 0,6,7
 327 1550 327 1550 516 1550 c 0,0,1
510 599 m 2,8,-1
 510 382 l 2,9,10
 510 280 510 280 590 280 c 0,11,12
 675 280 675 280 752 412 c 0,13,14
 828 540 828 540 828 713 c 2,15,-1
 828 719 l 2,16,17
 828 834 828 834 665 834 c 0,18,19
 510 834 510 834 510 599 c 2,8,-1
1248 0 m 1,20,-1
 878 0 l 1,21,22
 864 35 864 35 848 108 c 1,23,24
 699 -20 699 -20 539 -20 c 0,25,26
 160 -20 160 -20 160 311 c 2,27,-1
 160 604 l 2,28,29
 160 1120 160 1120 658 1120 c 0,30,31
 748 1120 748 1120 828 1098 c 1,32,-1
 828 1210 l 2,33,34
 828 1391 828 1391 758 1510 c 1,35,-1
 1128 1510 l 1,36,37
 1178 1389 1178 1389 1178 1210 c 2,38,-1
 1178 300 l 2,39,40
 1178 105 1178 105 1248 0 c 1,20,-1
EndSplineSet
Validated: 3073
EndChar

StartChar: uni1E1E
Encoding: 7710 7710 207
Width: 1237
Flags: W
HStem: 0 21G<200 550> 621 277<550 1117> 1233 277<550 1117> 1566 381<534.341 804.224>
VStem: 200 350<0 621 898 1232.27> 481 376<1617.84 1896.48>
LayerCount: 2
Fore
SplineSet
670 1947 m 0,0,1
 857 1947 857 1947 857 1757 c 0,2,3
 857 1566 857 1566 668 1566 c 0,4,5
 481 1566 481 1566 481 1761 c 0,6,7
 481 1947 481 1947 670 1947 c 0,0,1
200 0 m 1,8,-1
 200 1210 l 2,9,10
 200 1390 200 1390 130 1510 c 1,11,-1
 1117 1510 l 1,12,-1
 1117 1233 l 1,13,-1
 550 1233 l 9,14,-1
 550 898 l 1,15,-1
 1117 898 l 1,16,-1
 1117 621 l 1,17,-1
 550 621 l 1,18,-1
 550 0 l 1,19,-1
 200 0 l 1,8,-1
EndSplineSet
Validated: 3073
EndChar

StartChar: uni1E1F
Encoding: 7711 7711 208
Width: 1028
Flags: W
HStem: 0 21G<220 570> 630 277<570 870> 1256 274<631.701 940.703> 1566 381<424.341 694.224>
VStem: 220 350<0 579 907 1189.36> 371 376<1617.84 1896.48>
LayerCount: 2
Fore
SplineSet
560 1947 m 0,0,1
 747 1947 747 1947 747 1757 c 0,2,3
 747 1566 747 1566 558 1566 c 0,4,5
 371 1566 371 1566 371 1761 c 0,6,7
 371 1947 371 1947 560 1947 c 0,0,1
220 0 m 1,8,-1
 220 579 l 9,9,10
 164 570 164 570 113 534 c 1,11,-1
 113 819 l 1,12,13
 164 848 164 848 220 855 c 1,14,-1
 220 1014 l 2,15,16
 220 1530 220 1530 848 1530 c 0,17,18
 935 1530 935 1530 1018 1512 c 9,19,-1
 929 1211 l 17,20,21
 840 1256 840 1256 746 1256 c 0,22,23
 570 1256 570 1256 570 1009 c 2,24,-1
 570 907 l 1,25,-1
 870 907 l 1,26,-1
 870 630 l 1,27,-1
 570 630 l 1,28,-1
 570 0 l 1,29,-1
 220 0 l 1,8,-1
EndSplineSet
Validated: 3073
EndChar

StartChar: uni1E40
Encoding: 7744 7744 209
Width: 1844
Flags: W
HStem: 0 21G<200 550 1319 1714> 1490 20G<130 642.5 1184 1644> 1566 381<782.341 1052.22>
VStem: 200 350<0 1170> 729 376<1617.84 1896.48> 747 350<570 962.812> 1294 350<50.9019 1172>
LayerCount: 2
Fore
SplineSet
918 1947 m 0,0,1
 1105 1947 1105 1947 1105 1757 c 0,2,3
 1105 1566 1105 1566 916 1566 c 0,4,5
 729 1566 729 1566 729 1761 c 0,6,7
 729 1947 729 1947 918 1947 c 0,0,1
200 0 m 1,8,-1
 200 1210 l 2,9,10
 200 1391 200 1391 130 1510 c 1,11,-1
 425 1510 l 2,12,13
 860 1510 860 1510 916 1029 c 1,14,-1
 925 1029 l 17,15,16
 999 1510 999 1510 1369 1510 c 2,17,-1
 1644 1510 l 1,18,-1
 1644 300 l 2,19,20
 1644 119 1644 119 1714 0 c 1,21,-1
 1344 0 l 1,22,23
 1294 105 1294 105 1294 300 c 2,24,-1
 1294 1172 l 1,25,26
 1097 1100 1097 1100 1097 570 c 1,27,-1
 747 570 l 1,28,29
 747 1094 747 1094 550 1170 c 9,30,-1
 550 0 l 1,31,-1
 200 0 l 1,8,-1
EndSplineSet
Validated: 3073
EndChar

StartChar: uni1E41
Encoding: 7745 7745 210
Width: 2086
Flags: W
HStem: 0 21G<200 550 868 1218 1561 1956> 820 300<684.16 855.306 1351.06 1521.75> 1080 20G<130 508> 1169 381<886.341 1156.22>
VStem: 200 350<0 589.048> 833 376<1220.84 1499.48> 868 350<0 589.048> 1536 350<56.4053 810.219>
LayerCount: 2
Fore
SplineSet
1022 1550 m 0,0,1
 1209 1550 1209 1550 1209 1360 c 0,2,3
 1209 1169 1209 1169 1020 1169 c 0,4,5
 833 1169 833 1169 833 1364 c 0,6,7
 833 1550 833 1550 1022 1550 c 0,0,1
200 0 m 1,8,-1
 200 800 l 2,9,10
 200 958 200 958 130 1100 c 1,11,-1
 500 1100 l 1,12,13
 516 1058 516 1058 530 992 c 1,14,15
 665 1120 665 1120 839 1120 c 0,16,17
 1079 1120 1079 1120 1178 972 c 1,18,19
 1327 1120 1327 1120 1507 1120 c 0,20,21
 1886 1120 1886 1120 1886 779 c 2,22,-1
 1886 300 l 2,23,24
 1886 129 1886 129 1956 0 c 1,25,-1
 1586 0 l 1,26,27
 1536 136 1536 136 1536 300 c 2,28,-1
 1536 705 l 2,29,30
 1536 820 1536 820 1456 820 c 0,31,32
 1218 820 1218 820 1218 129 c 2,33,-1
 1218 0 l 1,34,-1
 868 0 l 1,35,-1
 868 705 l 2,36,37
 868 820 868 820 788 820 c 0,38,39
 550 820 550 820 550 129 c 2,40,-1
 550 0 l 1,41,-1
 200 0 l 1,8,-1
EndSplineSet
Validated: 3073
EndChar

StartChar: uni1E56
Encoding: 7766 7766 211
Width: 1424
Flags: W
HStem: 0 21G<200 550> 433 277<550 830.668> 1233 277<550 893.355> 1566 381<544.341 814.224>
VStem: 200 350<0 433 710 1232.38> 491 376<1617.84 1896.48> 954 350<838.771 1168.92>
LayerCount: 2
Fore
SplineSet
680 1947 m 0,0,1
 867 1947 867 1947 867 1757 c 0,2,3
 867 1566 867 1566 678 1566 c 0,4,5
 491 1566 491 1566 491 1761 c 0,6,7
 491 1947 491 1947 680 1947 c 0,0,1
200 0 m 1,8,-1
 200 1210 l 2,9,10
 200 1391 200 1391 130 1510 c 1,11,-1
 804 1510 l 2,12,13
 1304 1510 1304 1510 1304 1080 c 2,14,-1
 1304 1072 l 2,15,16
 1304 433 1304 433 587 433 c 2,17,-1
 550 433 l 1,18,-1
 550 0 l 1,19,-1
 200 0 l 1,8,-1
550 710 m 1,20,-1
 689 710 l 2,21,22
 954 710 954 710 954 1066 c 2,23,-1
 954 1073 l 2,24,25
 954 1233 954 1233 701 1233 c 2,26,-1
 550 1233 l 9,27,-1
 550 710 l 1,20,-1
EndSplineSet
Validated: 3073
EndChar

StartChar: uni1E57
Encoding: 7767 7767 212
Width: 1378
Flags: W
HStem: -410 21G<200 550> -20 285<572.931 813.978> 819 301<692.591 854.649> 1080 20G<130 507> 1169 381<570.341 840.224>
VStem: 200 350<-410 1 291.981 624.528> 517 376<1220.84 1499.48> 868 350<319.98 808.426>
LayerCount: 2
Fore
SplineSet
706 1550 m 0,0,1
 893 1550 893 1550 893 1360 c 0,2,3
 893 1169 893 1169 704 1169 c 0,4,5
 517 1169 517 1169 517 1364 c 0,6,7
 517 1550 517 1550 706 1550 c 0,0,1
868 500 m 2,8,-1
 868 717 l 2,9,10
 868 819 868 819 788 819 c 0,11,12
 703 819 703 819 626 687 c 0,13,14
 550 559 550 559 550 386 c 2,15,-1
 550 380 l 2,16,17
 550 265 550 265 713 265 c 0,18,19
 868 265 868 265 868 500 c 2,8,-1
130 1100 m 1,20,-1
 500 1100 l 1,21,22
 514 1065 514 1065 530 992 c 1,23,24
 672 1120 672 1120 839 1120 c 0,25,26
 1218 1120 1218 1120 1218 788 c 2,27,-1
 1218 495 l 2,28,29
 1218 -20 1218 -20 720 -20 c 0,30,31
 631 -20 631 -20 550 1 c 1,32,-1
 550 -410 l 25,33,-1
 200 -410 l 25,34,-1
 200 799 l 2,35,36
 200 1000 200 1000 130 1100 c 1,20,-1
EndSplineSet
Validated: 3073
EndChar

StartChar: uni1E60
Encoding: 7776 7776 213
Width: 1538
Flags: W
HStem: -20 274<608.9 925.644> 1256 274<607.617 918.742> 1566 381<668.341 938.224>
VStem: 200 350<1018.45 1197.94> 615 376<1617.84 1896.48> 1028 350<357.831 621.195>
LayerCount: 2
Fore
SplineSet
804 1947 m 0,0,1
 991 1947 991 1947 991 1757 c 0,2,3
 991 1566 991 1566 802 1566 c 0,4,5
 615 1566 615 1566 615 1761 c 0,6,7
 615 1947 615 1947 804 1947 c 0,0,1
160 440 m 9,8,-1
 510 536 l 17,9,10
 510 254 510 254 762 254 c 0,11,12
 1028 254 1028 254 1028 530 c 2,13,-1
 1028 532 l 2,14,15
 1028 667 1028 667 776 670 c 0,16,17
 200 677 200 677 200 1024 c 2,18,-1
 200 1027 l 2,19,20
 200 1530 200 1530 878 1530 c 0,21,22
 1329 1530 1329 1530 1337 1108 c 9,23,-1
 987 1012 l 17,24,25
 985 1256 985 1256 784 1256 c 0,26,27
 550 1256 550 1256 550 1097 c 2,28,-1
 550 1094 l 2,29,30
 550 984 550 984 799 971 c 0,31,32
 1378 941 1378 941 1378 577 c 2,33,-1
 1378 575 l 2,34,35
 1378 -20 1378 -20 660 -20 c 0,36,37
 160 -20 160 -20 160 440 c 9,8,-1
EndSplineSet
Validated: 3073
EndChar

StartChar: uni1E61
Encoding: 7777 7777 214
Width: 1318
Flags: W
HStem: -20 274<339.5 784.11> 846 274<549.041 840.143> 1169 381<570.341 840.224>
VStem: 517 376<1220.84 1499.48>
LayerCount: 2
Fore
SplineSet
706 1550 m 0,0,1
 893 1550 893 1550 893 1360 c 0,2,3
 893 1169 893 1169 704 1169 c 0,4,5
 517 1169 517 1169 517 1364 c 0,6,7
 517 1550 517 1550 706 1550 c 0,0,1
150 330 m 9,8,-1
 500 428 l 17,9,10
 500 254 500 254 662 254 c 0,11,12
 818 254 818 254 818 385 c 2,13,-1
 818 387 l 2,14,15
 818 441 818 441 665 453 c 0,16,17
 190 490 190 490 190 733 c 2,18,-1
 190 734 l 2,19,20
 190 1120 190 1120 789 1120 c 0,21,22
 1124 1120 1124 1120 1128 834 c 1,23,24
 1072 819 1072 819 778 736 c 1,25,26
 778 846 778 846 654 846 c 0,27,28
 536 846 536 846 536 770 c 2,29,-1
 536 768 l 2,30,31
 536 721 536 721 668 711 c 0,32,33
 1168 672 1168 672 1168 395 c 2,34,-1
 1168 394 l 2,35,36
 1168 -20 1168 -20 529 -20 c 0,37,38
 150 -20 150 -20 150 330 c 9,8,-1
EndSplineSet
Validated: 3073
EndChar

StartChar: uni1E6A
Encoding: 7786 7786 215
Width: 1190
Flags: W
HStem: 0 21G<420 770> 1233 277<59.2188 420 770 1180> 1566 381<456.341 726.224>
VStem: 403 376<1617.84 1896.48> 420 350<0 1233>
LayerCount: 2
Fore
SplineSet
592 1947 m 0,0,1
 779 1947 779 1947 779 1757 c 0,2,3
 779 1566 779 1566 590 1566 c 0,4,5
 403 1566 403 1566 403 1761 c 0,6,7
 403 1947 403 1947 592 1947 c 0,0,1
420 0 m 1,8,-1
 420 1233 l 1,9,-1
 310 1233 l 2,10,11
 122 1233 122 1233 10 1163 c 1,12,-1
 10 1460 l 1,13,14
 112 1510 112 1510 310 1510 c 2,15,-1
 1180 1510 l 1,16,-1
 1180 1233 l 1,17,-1
 770 1233 l 1,18,-1
 770 0 l 1,19,-1
 420 0 l 1,8,-1
EndSplineSet
Validated: 3073
EndChar

StartChar: uni1E6B
Encoding: 7787 7787 216
Width: 969
Flags: W
HStem: 0 21G<335 730> 823 277<62.7271 310 660 959> 1490 20G<240 635> 1566 381<328.341 598.224>
VStem: 275 376<1617.84 1896.48> 310 350<46.3696 823 1100 1457.27>
LayerCount: 2
Fore
SplineSet
464 1947 m 0,0,1
 651 1947 651 1947 651 1757 c 0,2,3
 651 1566 651 1566 462 1566 c 0,4,5
 275 1566 275 1566 275 1761 c 0,6,7
 275 1947 275 1947 464 1947 c 0,0,1
360 0 m 1,8,9
 310 80 310 80 310 300 c 2,10,-1
 310 823 l 1,11,12
 129 823 129 823 10 753 c 1,13,-1
 10 1050 l 1,14,15
 111 1100 111 1100 310 1100 c 1,16,-1
 310 1210 l 2,17,18
 310 1391 310 1391 240 1510 c 1,19,-1
 610 1510 l 1,20,21
 660 1409 660 1409 660 1210 c 2,22,-1
 660 1100 l 1,23,-1
 959 1100 l 1,24,-1
 959 823 l 1,25,-1
 660 823 l 1,26,-1
 660 300 l 2,27,28
 660 105 660 105 730 0 c 1,29,-1
 360 0 l 1,8,9
EndSplineSet
Validated: 3073
EndChar

StartChar: Wgrave
Encoding: 7808 7808 217
Width: 2045
Flags: W
HStem: -20 300<563.249 726.549> -20 256<1239.54 1427.19> 1490 20G<130 525 1515 1865>
VStem: 199 350<289.781 1459.5> 867 350<553.065 1250> 1515 350<348.122 1510>
LayerCount: 2
Fore
SplineSet
1040 1540 m 1,0,-1
 622 1677 l 1,1,-1
 753 1947 l 1,2,-1
 1139 1741 l 1,3,-1
 1040 1540 l 1,0,-1
130 1510 m 1,4,-1
 500 1510 l 1,5,6
 550 1409 550 1409 550 1210 c 2,7,-1
 549 395 l 2,8,9
 549 280 549 280 629 280 c 0,10,11
 867 280 867 280 867 1097 c 2,12,-1
 867 1250 l 1,13,-1
 1217 1250 l 1,14,-1
 1217 410 l 2,15,16
 1217 236 1217 236 1308 236 c 0,17,18
 1515 236 1515 236 1515 583 c 2,19,-1
 1515 1510 l 1,20,-1
 1865 1510 l 1,21,-1
 1865 608 l 2,22,23
 1865 -20 1865 -20 1246 -20 c 0,24,25
 1032 -20 1032 -20 917 140 c 1,26,27
 768 -20 768 -20 578 -20 c 0,28,29
 199 -20 199 -20 199 321 c 2,30,-1
 199 1212 l 2,31,32
 199 1392 199 1392 130 1510 c 1,4,-1
EndSplineSet
Validated: 3073
EndChar

StartChar: wgrave
Encoding: 7809 7809 218
Width: 2046
Flags: W
HStem: -20 300<564.249 734.178 1231.03 1413.57> 1080 20G<130 525 868 1218 1466 1861>
VStem: 200 350<289.781 1043.59> 868 350<510.952 1100> 1536 350<457.152 1043.59>
CounterMasks: 1 38
LayerCount: 2
Fore
SplineSet
1044 1143 m 1,0,-1
 626 1280 l 1,1,-1
 757 1550 l 1,2,-1
 1143 1344 l 1,3,-1
 1044 1143 l 1,0,-1
130 1100 m 1,4,-1
 500 1100 l 1,5,6
 550 964 550 964 550 800 c 2,7,-1
 550 395 l 2,8,9
 550 280 550 280 630 280 c 0,10,11
 868 280 868 280 868 971 c 2,12,-1
 868 1100 l 1,13,-1
 1218 1100 l 1,14,-1
 1218 395 l 2,15,16
 1218 280 1218 280 1298 280 c 0,17,18
 1536 280 1536 280 1536 796 c 2,19,-1
 1536 800 l 2,20,21
 1536 971 1536 971 1466 1100 c 1,22,-1
 1836 1100 l 1,23,24
 1886 964 1886 964 1886 800 c 10,25,-1
 1886 794 l 18,26,27
 1886 -20 1886 -20 1247 -20 c 0,28,29
 1018 -20 1018 -20 914 136 c 1,30,31
 775 -20 775 -20 579 -20 c 0,32,33
 200 -20 200 -20 200 321 c 2,34,-1
 200 800 l 2,35,36
 200 971 200 971 130 1100 c 1,4,-1
EndSplineSet
Validated: 3073
EndChar

StartChar: Wacute
Encoding: 7810 7810 219
Width: 2045
Flags: W
HStem: -20 300<563.249 726.549> -20 256<1239.54 1427.19> 1490 20G<130 525 1515 1865>
VStem: 199 350<289.781 1459.5> 867 350<553.065 1250> 1515 350<348.122 1510>
LayerCount: 2
Fore
SplineSet
1036 1540 m 1,0,-1
 937 1741 l 1,1,-1
 1323 1947 l 1,2,-1
 1454 1677 l 1,3,-1
 1036 1540 l 1,0,-1
130 1510 m 1,4,-1
 500 1510 l 1,5,6
 550 1409 550 1409 550 1210 c 2,7,-1
 549 395 l 2,8,9
 549 280 549 280 629 280 c 0,10,11
 867 280 867 280 867 1097 c 2,12,-1
 867 1250 l 1,13,-1
 1217 1250 l 1,14,-1
 1217 410 l 2,15,16
 1217 236 1217 236 1308 236 c 0,17,18
 1515 236 1515 236 1515 583 c 2,19,-1
 1515 1510 l 1,20,-1
 1865 1510 l 1,21,-1
 1865 608 l 2,22,23
 1865 -20 1865 -20 1246 -20 c 0,24,25
 1032 -20 1032 -20 917 140 c 1,26,27
 768 -20 768 -20 578 -20 c 0,28,29
 199 -20 199 -20 199 321 c 2,30,-1
 199 1212 l 2,31,32
 199 1392 199 1392 130 1510 c 1,4,-1
EndSplineSet
Validated: 3073
EndChar

StartChar: wacute
Encoding: 7811 7811 220
Width: 2046
Flags: W
HStem: -20 300<564.249 734.178 1231.03 1413.57> 1080 20G<130 525 868 1218 1466 1861>
VStem: 200 350<289.781 1043.59> 868 350<510.952 1100> 1536 350<457.152 1043.59>
CounterMasks: 1 38
LayerCount: 2
Fore
SplineSet
1031 1143 m 1,0,-1
 932 1344 l 1,1,-1
 1318 1550 l 1,2,-1
 1449 1280 l 1,3,-1
 1031 1143 l 1,0,-1
130 1100 m 1,4,-1
 500 1100 l 1,5,6
 550 964 550 964 550 800 c 2,7,-1
 550 395 l 2,8,9
 550 280 550 280 630 280 c 0,10,11
 868 280 868 280 868 971 c 2,12,-1
 868 1100 l 1,13,-1
 1218 1100 l 1,14,-1
 1218 395 l 2,15,16
 1218 280 1218 280 1298 280 c 0,17,18
 1536 280 1536 280 1536 796 c 2,19,-1
 1536 800 l 2,20,21
 1536 971 1536 971 1466 1100 c 1,22,-1
 1836 1100 l 1,23,24
 1886 964 1886 964 1886 800 c 10,25,-1
 1886 794 l 18,26,27
 1886 -20 1886 -20 1247 -20 c 0,28,29
 1018 -20 1018 -20 914 136 c 1,30,31
 775 -20 775 -20 579 -20 c 0,32,33
 200 -20 200 -20 200 321 c 2,34,-1
 200 800 l 2,35,36
 200 971 200 971 130 1100 c 1,4,-1
EndSplineSet
Validated: 3073
EndChar

StartChar: Wdieresis
Encoding: 7812 7812 221
Width: 2045
Flags: W
HStem: -20 300<563.249 726.549> -20 256<1239.54 1427.19> 1490 20G<130 525 1515 1865> 1593 335<726.25 971.75 1119.25 1364.75>
VStem: 199 350<289.781 1459.5> 685 328<1633.35 1889.05> 867 350<553.065 1250> 1078 328<1633.35 1889.05> 1515 350<348.122 1510>
LayerCount: 2
Fore
SplineSet
1243 1928 m 0,0,1
 1406 1928 1406 1928 1406 1762 c 0,2,3
 1406 1594 1406 1594 1241 1593 c 0,4,5
 1078 1593 1078 1593 1078 1765 c 0,6,7
 1078 1928 1078 1928 1243 1928 c 0,0,1
850 1928 m 0,8,9
 1013 1928 1013 1928 1013 1762 c 0,10,11
 1013 1594 1013 1594 848 1593 c 0,12,13
 685 1593 685 1593 685 1765 c 0,14,15
 685 1928 685 1928 850 1928 c 0,8,9
130 1510 m 1,16,-1
 500 1510 l 1,17,18
 550 1409 550 1409 550 1210 c 2,19,-1
 549 395 l 2,20,21
 549 280 549 280 629 280 c 0,22,23
 867 280 867 280 867 1097 c 2,24,-1
 867 1250 l 1,25,-1
 1217 1250 l 1,26,-1
 1217 410 l 2,27,28
 1217 236 1217 236 1308 236 c 0,29,30
 1515 236 1515 236 1515 583 c 2,31,-1
 1515 1510 l 1,32,-1
 1865 1510 l 1,33,-1
 1865 608 l 2,34,35
 1865 -20 1865 -20 1246 -20 c 0,36,37
 1032 -20 1032 -20 917 140 c 1,38,39
 768 -20 768 -20 578 -20 c 0,40,41
 199 -20 199 -20 199 321 c 2,42,-1
 199 1212 l 2,43,44
 199 1392 199 1392 130 1510 c 1,16,-1
EndSplineSet
Validated: 3073
EndChar

StartChar: wdieresis
Encoding: 7813 7813 222
Width: 2046
Flags: W
HStem: -20 300<564.249 734.178 1231.03 1413.57> 1080 20G<130 525 868 1218 1466 1861> 1195 335<720.25 965.75 1113.25 1358.75>
VStem: 200 350<289.781 1043.59> 679 328<1235.35 1491.05> 868 350<510.952 1100> 1072 328<1235.35 1491.05> 1536 350<457.152 1043.59>
LayerCount: 2
Fore
SplineSet
1237 1530 m 0,0,1
 1400 1530 1400 1530 1400 1364 c 0,2,3
 1400 1196 1400 1196 1235 1195 c 0,4,5
 1072 1195 1072 1195 1072 1367 c 0,6,7
 1072 1530 1072 1530 1237 1530 c 0,0,1
844 1530 m 0,8,9
 1007 1530 1007 1530 1007 1364 c 0,10,11
 1007 1196 1007 1196 842 1195 c 0,12,13
 679 1195 679 1195 679 1367 c 0,14,15
 679 1530 679 1530 844 1530 c 0,8,9
130 1100 m 1,16,-1
 500 1100 l 1,17,18
 550 964 550 964 550 800 c 2,19,-1
 550 395 l 2,20,21
 550 280 550 280 630 280 c 0,22,23
 868 280 868 280 868 971 c 2,24,-1
 868 1100 l 1,25,-1
 1218 1100 l 1,26,-1
 1218 395 l 2,27,28
 1218 280 1218 280 1298 280 c 0,29,30
 1536 280 1536 280 1536 796 c 2,31,-1
 1536 800 l 2,32,33
 1536 971 1536 971 1466 1100 c 1,34,-1
 1836 1100 l 1,35,36
 1886 964 1886 964 1886 800 c 10,37,-1
 1886 794 l 18,38,39
 1886 -20 1886 -20 1247 -20 c 0,40,41
 1018 -20 1018 -20 914 136 c 1,42,43
 775 -20 775 -20 579 -20 c 0,44,45
 200 -20 200 -20 200 321 c 2,46,-1
 200 800 l 2,47,48
 200 971 200 971 130 1100 c 1,16,-1
EndSplineSet
Validated: 3073
EndChar

StartChar: Ygrave
Encoding: 7922 7922 223
Width: 1486
Flags: W
HStem: 0 740<565.044 867.903> 1490 20G<100 495 976 1326>
VStem: 170 350<786.605 1449.06> 558 350<0 480.854> 976 350<868.875 1510>
LayerCount: 2
Fore
SplineSet
816 1540 m 1,0,-1
 398 1677 l 1,1,-1
 529 1947 l 1,2,-1
 915 1741 l 1,3,-1
 816 1540 l 1,0,-1
558 0 m 1,4,-1
 558 476 l 1,5,6
 170 520 170 520 170 896 c 2,7,-1
 170 1210 l 2,8,9
 170 1361 170 1361 100 1510 c 1,10,-1
 470 1510 l 1,11,12
 520 1360 520 1360 520 1210 c 2,13,-1
 520 895 l 2,14,15
 520 740 520 740 725 740 c 0,16,17
 976 740 976 740 976 1092 c 2,18,-1
 976 1510 l 1,19,-1
 1326 1510 l 1,20,-1
 1326 1093 l 2,21,22
 1326 595 1326 595 908 495 c 1,23,-1
 908 0 l 1,24,-1
 558 0 l 1,4,-1
EndSplineSet
Validated: 3073
EndChar

StartChar: ygrave
Encoding: 7923 7923 224
Width: 1418
Flags: W
HStem: -430 257<472.821 736.937> -20 300<564.249 734.042> 1080 20G<130 525 868 1218>
VStem: 200 350<289.781 1043.59> 868 350<510.952 1100>
LayerCount: 2
Fore
SplineSet
773 1143 m 1,0,-1
 355 1280 l 1,1,-1
 486 1550 l 1,2,-1
 872 1344 l 1,3,-1
 773 1143 l 1,0,-1
130 1100 m 1,4,-1
 500 1100 l 1,5,6
 550 964 550 964 550 800 c 2,7,-1
 550 395 l 2,8,9
 550 280 550 280 630 280 c 0,10,11
 868 280 868 280 868 971 c 2,12,-1
 868 1100 l 1,13,-1
 1218 1100 l 1,14,-1
 1218 412 l 2,15,16
 1218 -430 1218 -430 579 -430 c 0,17,18
 319 -430 319 -430 223 -220 c 9,19,-1
 566 -122 l 17,20,21
 586 -173 586 -173 630 -173 c 0,22,23
 793 -173 793 -173 851 96 c 1,24,25
 736 -20 736 -20 579 -20 c 0,26,27
 200 -20 200 -20 200 321 c 2,28,-1
 200 800 l 2,29,30
 200 971 200 971 130 1100 c 1,4,-1
EndSplineSet
Validated: 3073
EndChar

StartChar: Agrave
Encoding: 192 192 225
Width: 1536
Flags: W
HStem: 0 21G<180 530 1011 1406> 621 277<530 986> 1260 270<642.556 940.175>
VStem: 180 350<0 621 898 1134.39> 986 350<52.875 621 898 1214.65>
LayerCount: 2
Fore
SplineSet
816 1540 m 1,0,-1
 398 1677 l 1,1,-1
 529 1947 l 1,2,-1
 915 1741 l 1,3,-1
 816 1540 l 1,0,-1
530 898 m 9,4,-1
 986 898 l 1,5,-1
 986 1104 l 2,6,7
 986 1260 986 1260 781 1260 c 0,8,9
 530 1260 530 1260 530 898 c 9,4,-1
180 0 m 1,10,-1
 180 907 l 2,11,12
 180 1530 180 1530 836 1530 c 0,13,14
 1336 1530 1336 1530 1336 1103 c 2,15,-1
 1336 300 l 2,16,17
 1336 119 1336 119 1406 0 c 1,18,-1
 1036 0 l 1,19,20
 986 91 986 91 986 300 c 2,21,-1
 986 621 l 1,22,-1
 530 621 l 1,23,-1
 530 0 l 1,24,-1
 180 0 l 1,10,-1
EndSplineSet
Validated: 3073
EndChar

StartChar: Aacute
Encoding: 193 193 226
Width: 1536
Flags: W
HStem: 0 21G<180 530 1011 1406> 621 277<530 986> 1260 270<642.556 940.175>
VStem: 180 350<0 621 898 1134.39> 986 350<52.875 621 898 1214.65>
LayerCount: 2
Fore
SplineSet
729 1540 m 1,0,-1
 630 1741 l 1,1,-1
 1016 1947 l 1,2,-1
 1147 1677 l 1,3,-1
 729 1540 l 1,0,-1
530 898 m 9,4,-1
 986 898 l 1,5,-1
 986 1104 l 2,6,7
 986 1260 986 1260 781 1260 c 0,8,9
 530 1260 530 1260 530 898 c 9,4,-1
180 0 m 1,10,-1
 180 907 l 2,11,12
 180 1530 180 1530 836 1530 c 0,13,14
 1336 1530 1336 1530 1336 1103 c 2,15,-1
 1336 300 l 2,16,17
 1336 119 1336 119 1406 0 c 1,18,-1
 1036 0 l 1,19,20
 986 91 986 91 986 300 c 2,21,-1
 986 621 l 1,22,-1
 530 621 l 1,23,-1
 530 0 l 1,24,-1
 180 0 l 1,10,-1
EndSplineSet
Validated: 3073
EndChar

StartChar: Acircumflex
Encoding: 194 194 227
Width: 1536
Flags: W
HStem: 0 21G<180 530 1011 1406> 621 277<530 986> 1260 270<642.556 940.175> 1665 282<668 950>
VStem: 180 350<0 621 898 1134.39> 986 350<52.875 621 898 1214.65>
LayerCount: 2
Fore
SplineSet
578 1540 m 1,0,-1
 479 1741 l 1,1,-1
 809 1947 l 1,2,-1
 1139 1741 l 1,3,-1
 1040 1540 l 1,4,-1
 809 1665 l 1,5,-1
 578 1540 l 1,0,-1
530 898 m 9,6,-1
 986 898 l 1,7,-1
 986 1104 l 2,8,9
 986 1260 986 1260 781 1260 c 0,10,11
 530 1260 530 1260 530 898 c 9,6,-1
180 0 m 1,12,-1
 180 907 l 2,13,14
 180 1530 180 1530 836 1530 c 0,15,16
 1336 1530 1336 1530 1336 1103 c 2,17,-1
 1336 300 l 2,18,19
 1336 119 1336 119 1406 0 c 1,20,-1
 1036 0 l 1,21,22
 986 91 986 91 986 300 c 2,23,-1
 986 621 l 1,24,-1
 530 621 l 1,25,-1
 530 0 l 1,26,-1
 180 0 l 1,12,-1
EndSplineSet
Validated: 3073
EndChar

StartChar: Atilde
Encoding: 195 195 228
Width: 1536
Flags: W
HStem: 0 21G<180 530 1011 1406> 621 277<530 986> 1260 270<642.556 940.175> 1610 230<781.436 1072.19> 1672 230<538.885 851.576>
VStem: 180 350<0 621 898 1134.39> 986 350<52.875 621 898 1214.65>
LayerCount: 2
Fore
SplineSet
1093 1672 m 1,0,1
 1028 1610 1028 1610 959 1610 c 0,2,3
 893 1610 893 1610 803 1647 c 0,4,5
 742 1672 742 1672 651 1672 c 0,6,7
 575 1672 575 1672 521 1609 c 1,8,-1
 521 1839 l 1,9,10
 572 1902 572 1902 651 1902 c 0,11,12
 732 1902 732 1902 808 1872 c 0,13,14
 892 1840 892 1840 959 1840 c 0,15,16
 1025 1840 1025 1840 1093 1902 c 1,17,-1
 1093 1672 l 1,0,1
530 898 m 9,18,-1
 986 898 l 1,19,-1
 986 1104 l 2,20,21
 986 1260 986 1260 781 1260 c 0,22,23
 530 1260 530 1260 530 898 c 9,18,-1
180 0 m 1,24,-1
 180 907 l 2,25,26
 180 1530 180 1530 836 1530 c 0,27,28
 1336 1530 1336 1530 1336 1103 c 2,29,-1
 1336 300 l 2,30,31
 1336 119 1336 119 1406 0 c 1,32,-1
 1036 0 l 1,33,34
 986 91 986 91 986 300 c 2,35,-1
 986 621 l 1,36,-1
 530 621 l 1,37,-1
 530 0 l 1,38,-1
 180 0 l 1,24,-1
EndSplineSet
Validated: 3073
EndChar

StartChar: Adieresis
Encoding: 196 196 229
Width: 1536
Flags: W
HStem: 0 21G<180 530 1011 1406> 621 277<530 986> 1260 270<642.556 940.175> 1593 335<480.25 725.75 873.25 1118.75>
VStem: 180 350<0 621 898 1134.39> 439 328<1633.35 1889.05> 832 328<1633.35 1889.05> 986 350<52.875 621 898 1214.65>
LayerCount: 2
Fore
SplineSet
997 1928 m 0,0,1
 1160 1928 1160 1928 1160 1762 c 0,2,3
 1160 1594 1160 1594 995 1593 c 0,4,5
 832 1593 832 1593 832 1765 c 0,6,7
 832 1928 832 1928 997 1928 c 0,0,1
604 1928 m 0,8,9
 767 1928 767 1928 767 1762 c 0,10,11
 767 1594 767 1594 602 1593 c 0,12,13
 439 1593 439 1593 439 1765 c 0,14,15
 439 1928 439 1928 604 1928 c 0,8,9
530 898 m 9,16,-1
 986 898 l 1,17,-1
 986 1104 l 2,18,19
 986 1260 986 1260 781 1260 c 0,20,21
 530 1260 530 1260 530 898 c 9,16,-1
180 0 m 1,22,-1
 180 907 l 2,23,24
 180 1530 180 1530 836 1530 c 0,25,26
 1336 1530 1336 1530 1336 1103 c 2,27,-1
 1336 300 l 2,28,29
 1336 119 1336 119 1406 0 c 1,30,-1
 1036 0 l 1,31,32
 986 91 986 91 986 300 c 2,33,-1
 986 621 l 1,34,-1
 530 621 l 1,35,-1
 530 0 l 1,36,-1
 180 0 l 1,22,-1
EndSplineSet
Validated: 3073
EndChar

StartChar: Aring
Encoding: 197 197 230
Width: 1536
Flags: W
HStem: 0 21G<180 530 1011 1406> 621 277<530 986> 1260 270<642.556 940.175> 1566 114<733.524 862.566> 1823 124<734.147 863.24>
VStem: 180 350<0 621 898 1134.39> 615 115<1683.99 1819.76> 867 124<1682.54 1818.36> 986 350<52.875 621 898 1214.65>
LayerCount: 2
Fore
SplineSet
730 1752 m 0,0,1
 730 1680 730 1680 799 1680 c 0,2,3
 867 1680 867 1680 867 1751 c 0,4,5
 867 1823 867 1823 798.5 1823 c 128,-1,6
 730 1823 730 1823 730 1752 c 0,0,1
804 1947 m 0,7,8
 991 1947 991 1947 991 1757 c 0,9,10
 991 1566 991 1566 802 1566 c 0,11,12
 615 1566 615 1566 615 1761 c 0,13,14
 615 1947 615 1947 804 1947 c 0,7,8
530 898 m 9,15,-1
 986 898 l 1,16,-1
 986 1104 l 2,17,18
 986 1260 986 1260 781 1260 c 0,19,20
 530 1260 530 1260 530 898 c 9,15,-1
180 0 m 1,21,-1
 180 907 l 2,22,23
 180 1530 180 1530 836 1530 c 0,24,25
 1336 1530 1336 1530 1336 1103 c 2,26,-1
 1336 300 l 2,27,28
 1336 119 1336 119 1406 0 c 1,29,-1
 1036 0 l 1,30,31
 986 91 986 91 986 300 c 2,32,-1
 986 621 l 1,33,-1
 530 621 l 1,34,-1
 530 0 l 1,35,-1
 180 0 l 1,21,-1
EndSplineSet
Validated: 3073
EndChar

StartChar: AE
Encoding: 198 198 231
Width: 2121
Flags: W
HStem: 0 277<1337 1990.75> 621 277<530 986 1337 1902> 1233 277<1337 1902> 1260 270<642.556 941.108>
VStem: 180 350<0 621 898 1134.39> 986 351<277 621 898 1215.97>
LayerCount: 2
Fore
SplineSet
180 0 m 1,0,-1
 180 907 l 2,1,2
 180 1530 180 1530 836 1530 c 0,3,4
 944 1530 944 1530 1029 1510 c 1,5,-1
 1902 1510 l 1,6,-1
 1902 1233 l 1,7,-1
 1337 1233 l 1,8,-1
 1337 898 l 1,9,-1
 1902 898 l 1,10,-1
 1902 621 l 1,11,-1
 1337 621 l 1,12,-1
 1337 277 l 1,13,-1
 1741 277 l 2,14,15
 1924 277 1924 277 2041 347 c 1,16,-1
 2041 50 l 1,17,18
 1924 0 1924 0 1741 0 c 2,19,-1
 986 0 l 9,20,-1
 986 621 l 1,21,-1
 530 621 l 1,22,-1
 530 0 l 1,23,-1
 180 0 l 1,0,-1
530 898 m 1,24,-1
 986 898 l 1,25,-1
 986 1104 l 2,26,27
 986 1260 986 1260 781 1260 c 0,28,29
 530 1260 530 1260 530 898 c 1,24,-1
EndSplineSet
Validated: 3073
EndChar

StartChar: Amacron
Encoding: 256 256 232
Width: 1536
Flags: W
HStem: 0 21G<180 530 1011 1406> 621 277<530 986> 1260 270<642.556 940.175> 1638 230<526 1088>
VStem: 180 350<0 621 898 1134.39> 986 350<52.875 621 898 1214.65>
LayerCount: 2
Fore
SplineSet
526 1638 m 1,0,-1
 526 1868 l 1,1,-1
 1088 1868 l 1,2,-1
 1088 1638 l 1,3,-1
 526 1638 l 1,0,-1
530 898 m 9,4,-1
 986 898 l 1,5,-1
 986 1104 l 2,6,7
 986 1260 986 1260 781 1260 c 0,8,9
 530 1260 530 1260 530 898 c 9,4,-1
180 0 m 1,10,-1
 180 907 l 2,11,12
 180 1530 180 1530 836 1530 c 0,13,14
 1336 1530 1336 1530 1336 1103 c 2,15,-1
 1336 300 l 2,16,17
 1336 119 1336 119 1406 0 c 1,18,-1
 1036 0 l 1,19,20
 986 91 986 91 986 300 c 2,21,-1
 986 621 l 1,22,-1
 530 621 l 1,23,-1
 530 0 l 1,24,-1
 180 0 l 1,10,-1
EndSplineSet
Validated: 3073
EndChar

StartChar: Abreve
Encoding: 258 258 233
Width: 1536
Flags: W
HStem: 0 21G<180 530 1011 1406> 621 277<530 986> 1260 270<642.556 940.175> 1603 230<571.293 1041.93> 1671 230<526 756 858 1088>
VStem: 180 350<0 621 898 1134.39> 986 350<52.875 621 898 1214.65>
LayerCount: 2
Fore
SplineSet
526 1901 m 1,0,1
 642 1833 642 1833 809 1833 c 0,2,3
 969 1833 969 1833 1088 1901 c 1,4,-1
 1088 1671 l 1,5,6
 969 1603 969 1603 809 1603 c 0,7,8
 642 1603 642 1603 526 1671 c 1,9,-1
 526 1901 l 1,0,1
530 898 m 9,10,-1
 986 898 l 1,11,-1
 986 1104 l 2,12,13
 986 1260 986 1260 781 1260 c 0,14,15
 530 1260 530 1260 530 898 c 9,10,-1
180 0 m 1,16,-1
 180 907 l 2,17,18
 180 1530 180 1530 836 1530 c 0,19,20
 1336 1530 1336 1530 1336 1103 c 2,21,-1
 1336 300 l 2,22,23
 1336 119 1336 119 1406 0 c 1,24,-1
 1036 0 l 1,25,26
 986 91 986 91 986 300 c 2,27,-1
 986 621 l 1,28,-1
 530 621 l 1,29,-1
 530 0 l 1,30,-1
 180 0 l 1,16,-1
EndSplineSet
Validated: 3073
EndChar

StartChar: Aogonek
Encoding: 260 260 234
Width: 1536
Flags: W
HStem: -430 21G<1014 1156.32> 0 21G<180 530> 621 277<530 986> 1260 270<642.556 940.175>
VStem: 180 350<0 621 898 1134.39> 896 320<-168.312 -0.927246> 986 350<157.004 621 898 1214.65>
LayerCount: 2
Fore
SplineSet
180 0 m 1,0,-1
 180 907 l 2,1,2
 180 1530 180 1530 836 1530 c 0,3,4
 1336 1530 1336 1530 1336 1103 c 2,5,-1
 1336 300 l 2,6,7
 1336 119 1336 119 1406 0 c 1,8,-1
 1227 0 l 1,9,10
 1216 -29 1216 -29 1216 -66 c 0,11,12
 1216 -178 1216 -178 1374 -231 c 1,13,-1
 1132 -430 l 1,14,15
 896 -312 896 -312 896 -78 c 0,16,17
 896 67 896 67 994 155 c 1,18,19
 986 219 986 219 986 300 c 2,20,-1
 986 621 l 1,21,-1
 530 621 l 1,22,-1
 530 0 l 1,23,-1
 180 0 l 1,0,-1
530 898 m 1,24,-1
 986 898 l 1,25,-1
 986 1104 l 2,26,27
 986 1260 986 1260 781 1260 c 0,28,29
 530 1260 530 1260 530 898 c 1,24,-1
EndSplineSet
Validated: 3073
EndChar

StartChar: Ccedilla
Encoding: 199 199 235
Width: 1538
Flags: W
HStem: -430 21G<709.678 852> 1256 274<629.274 938.854>
VStem: 160 350<313.525 1118.06> 650 320<-168.312 -20.1595> 1028 350<352.95 507 1084 1163.71>
LayerCount: 2
Fore
SplineSet
1378 604 m 1,0,1
 1378 127 1378 127 958 15 c 1,2,3
 970 -28 970 -28 970 -78 c 0,4,5
 970 -312 970 -312 734 -430 c 1,6,-1
 492 -231 l 1,7,8
 650 -178 650 -178 650 -66 c 0,9,10
 650 -41 650 -41 645 -20 c 1,11,12
 160 -14 160 -14 160 399 c 2,13,-1
 160 906 l 2,14,15
 160 1530 160 1530 878 1530 c 0,16,17
 1378 1530 1378 1530 1378 1084 c 1,18,-1
 1028 988 l 1,19,20
 1028 1256 1028 1256 776 1256 c 0,21,22
 510 1256 510 1256 510 899 c 2,23,-1
 510 416 l 2,24,25
 510 254 510 254 762 254 c 0,26,27
 1028 254 1028 254 1028 507 c 1,28,-1
 1378 604 l 1,0,1
EndSplineSet
Validated: 3073
EndChar

StartChar: Cacute
Encoding: 262 262 236
Width: 1538
Flags: W
HStem: -20 274<569.884 930.579> 1256 274<629.274 938.854>
VStem: 160 350<312.356 1118.06> 1028 350<345.777 507 1084 1163.71>
LayerCount: 2
Fore
SplineSet
729 1540 m 1,0,-1
 630 1741 l 1,1,-1
 1016 1947 l 1,2,-1
 1147 1677 l 1,3,-1
 729 1540 l 1,0,-1
1378 604 m 1,4,5
 1378 -20 1378 -20 660 -20 c 0,6,7
 160 -20 160 -20 160 399 c 2,8,-1
 160 906 l 2,9,10
 160 1530 160 1530 878 1530 c 0,11,12
 1378 1530 1378 1530 1378 1084 c 1,13,-1
 1028 988 l 1,14,15
 1028 1256 1028 1256 776 1256 c 0,16,17
 510 1256 510 1256 510 899 c 2,18,-1
 510 416 l 2,19,20
 510 254 510 254 762 254 c 0,21,22
 1028 254 1028 254 1028 507 c 1,23,-1
 1378 604 l 1,4,5
EndSplineSet
Validated: 3073
EndChar

StartChar: Ccircumflex
Encoding: 264 264 237
Width: 1538
Flags: W
HStem: -20 274<569.884 930.579> 1256 274<629.274 938.854> 1665 282<668 950>
VStem: 160 350<312.356 1118.06> 1028 350<345.777 507 1084 1163.71>
LayerCount: 2
Fore
SplineSet
578 1540 m 1,0,-1
 479 1741 l 1,1,-1
 809 1947 l 1,2,-1
 1139 1741 l 1,3,-1
 1040 1540 l 1,4,-1
 809 1665 l 1,5,-1
 578 1540 l 1,0,-1
1378 604 m 1,6,7
 1378 -20 1378 -20 660 -20 c 0,8,9
 160 -20 160 -20 160 399 c 2,10,-1
 160 906 l 2,11,12
 160 1530 160 1530 878 1530 c 0,13,14
 1378 1530 1378 1530 1378 1084 c 1,15,-1
 1028 988 l 1,16,17
 1028 1256 1028 1256 776 1256 c 0,18,19
 510 1256 510 1256 510 899 c 2,20,-1
 510 416 l 2,21,22
 510 254 510 254 762 254 c 0,23,24
 1028 254 1028 254 1028 507 c 1,25,-1
 1378 604 l 1,6,7
EndSplineSet
Validated: 3073
EndChar

StartChar: Cdotaccent
Encoding: 266 266 238
Width: 1538
Flags: W
HStem: -20 274<569.884 930.579> 1256 274<629.274 938.854> 1566 381<668.341 938.224>
VStem: 160 350<312.356 1118.06> 615 376<1617.84 1896.48> 1028 350<345.777 507 1084 1163.71>
LayerCount: 2
Fore
SplineSet
804 1947 m 0,0,1
 991 1947 991 1947 991 1757 c 0,2,3
 991 1566 991 1566 802 1566 c 0,4,5
 615 1566 615 1566 615 1761 c 0,6,7
 615 1947 615 1947 804 1947 c 0,0,1
1378 604 m 1,8,9
 1378 -20 1378 -20 660 -20 c 0,10,11
 160 -20 160 -20 160 399 c 2,12,-1
 160 906 l 2,13,14
 160 1530 160 1530 878 1530 c 0,15,16
 1378 1530 1378 1530 1378 1084 c 1,17,-1
 1028 988 l 1,18,19
 1028 1256 1028 1256 776 1256 c 0,20,21
 510 1256 510 1256 510 899 c 2,22,-1
 510 416 l 2,23,24
 510 254 510 254 762 254 c 0,25,26
 1028 254 1028 254 1028 507 c 1,27,-1
 1378 604 l 1,8,9
EndSplineSet
Validated: 3073
EndChar

StartChar: Ccaron
Encoding: 268 268 239
Width: 1538
Flags: W
HStem: -20 274<569.884 930.579> 1256 274<629.274 938.854> 1540 282<668 950>
VStem: 160 350<312.356 1118.06> 1028 350<345.777 507 1084 1163.71>
LayerCount: 2
Fore
SplineSet
1040 1947 m 1,0,-1
 1139 1746 l 1,1,-1
 809 1540 l 1,2,-1
 479 1746 l 1,3,-1
 578 1947 l 1,4,-1
 809 1822 l 1,5,-1
 1040 1947 l 1,0,-1
1378 604 m 1,6,7
 1378 -20 1378 -20 660 -20 c 0,8,9
 160 -20 160 -20 160 399 c 2,10,-1
 160 906 l 2,11,12
 160 1530 160 1530 878 1530 c 0,13,14
 1378 1530 1378 1530 1378 1084 c 1,15,-1
 1028 988 l 1,16,17
 1028 1256 1028 1256 776 1256 c 0,18,19
 510 1256 510 1256 510 899 c 2,20,-1
 510 416 l 2,21,22
 510 254 510 254 762 254 c 0,23,24
 1028 254 1028 254 1028 507 c 1,25,-1
 1378 604 l 1,6,7
EndSplineSet
Validated: 3073
EndChar

StartChar: Eth
Encoding: 208 208 240
Width: 1538
Flags: W
HStem: 0 277<550 904.668> 621 277<90 200 550 840> 1233 277<550 967.355>
VStem: 200 350<277 621 898 1232.38> 1028 350<410.617 1178.44>
LayerCount: 2
Fore
SplineSet
550 277 m 1,0,-1
 763 277 l 2,1,2
 1028 277 1028 277 1028 629 c 2,3,-1
 1028 1075 l 2,4,5
 1028 1233 1028 1233 775 1233 c 2,6,-1
 550 1233 l 1,7,-1
 550 898 l 1,8,-1
 840 898 l 1,9,-1
 840 621 l 1,10,-1
 550 621 l 1,11,-1
 550 277 l 1,0,-1
200 0 m 1,12,-1
 200 621 l 1,13,-1
 90 621 l 1,14,-1
 90 898 l 1,15,-1
 200 898 l 1,16,-1
 200 1210 l 2,17,18
 200 1391 200 1391 130 1510 c 1,19,-1
 878 1510 l 2,20,21
 1378 1510 1378 1510 1378 1092 c 2,22,-1
 1378 622 l 2,23,24
 1378 0 1378 0 661 0 c 2,25,-1
 200 0 l 1,12,-1
EndSplineSet
Validated: 3073
EndChar

StartChar: Dcaron
Encoding: 270 270 241
Width: 1538
Flags: W
HStem: 0 277<550 904.668> 1233 277<550 967.355> 1540 282<614 896>
VStem: 200 350<277 1232.38> 1028 350<410.617 1178.44>
LayerCount: 2
Fore
SplineSet
986 1947 m 1,0,-1
 1085 1746 l 1,1,-1
 755 1540 l 1,2,-1
 425 1746 l 1,3,-1
 524 1947 l 1,4,-1
 755 1822 l 1,5,-1
 986 1947 l 1,0,-1
200 0 m 1,6,-1
 200 1210 l 2,7,8
 200 1391 200 1391 130 1510 c 1,9,-1
 878 1510 l 2,10,11
 1378 1510 1378 1510 1378 1092 c 2,12,-1
 1378 622 l 2,13,14
 1378 0 1378 0 661 0 c 2,15,-1
 200 0 l 1,6,-1
550 277 m 1,16,-1
 763 277 l 2,17,18
 1028 277 1028 277 1028 629 c 2,19,-1
 1028 1075 l 2,20,21
 1028 1233 1028 1233 775 1233 c 2,22,-1
 550 1233 l 9,23,-1
 550 277 l 1,16,-1
EndSplineSet
Validated: 3073
EndChar

StartChar: Dcroat
Encoding: 272 272 242
Width: 1538
Flags: W
HStem: 0 277<550 904.668> 621 277<90 200 550 840> 1233 277<550 967.355>
VStem: 200 350<277 621 898 1232.38> 1028 350<410.617 1178.44>
LayerCount: 2
Fore
SplineSet
550 277 m 1,0,-1
 763 277 l 2,1,2
 1028 277 1028 277 1028 629 c 2,3,-1
 1028 1075 l 2,4,5
 1028 1233 1028 1233 775 1233 c 2,6,-1
 550 1233 l 1,7,-1
 550 898 l 1,8,-1
 840 898 l 1,9,-1
 840 621 l 1,10,-1
 550 621 l 1,11,-1
 550 277 l 1,0,-1
200 0 m 1,12,-1
 200 621 l 1,13,-1
 90 621 l 1,14,-1
 90 898 l 1,15,-1
 200 898 l 1,16,-1
 200 1210 l 2,17,18
 200 1391 200 1391 130 1510 c 1,19,-1
 878 1510 l 2,20,21
 1378 1510 1378 1510 1378 1092 c 2,22,-1
 1378 622 l 2,23,24
 1378 0 1378 0 661 0 c 2,25,-1
 200 0 l 1,12,-1
EndSplineSet
Validated: 3073
EndChar

StartChar: Egrave
Encoding: 200 200 243
Width: 1334
Flags: W
HStem: 0 277<550 1203.75> 621 277<550 1115> 1233 277<550 1115>
VStem: 200 350<277 621 898 1232.27>
LayerCount: 2
Fore
SplineSet
816 1540 m 1,0,-1
 398 1677 l 1,1,-1
 529 1947 l 1,2,-1
 915 1741 l 1,3,-1
 816 1540 l 1,0,-1
200 0 m 1,4,-1
 200 1210 l 2,5,6
 200 1390 200 1390 130 1510 c 1,7,-1
 1115 1510 l 1,8,-1
 1115 1233 l 1,9,-1
 550 1233 l 25,10,-1
 550 898 l 1,11,-1
 1115 898 l 1,12,-1
 1115 621 l 1,13,-1
 550 621 l 1,14,-1
 550 277 l 1,15,-1
 954 277 l 2,16,17
 1137 277 1137 277 1254 347 c 1,18,-1
 1254 50 l 1,19,20
 1137 0 1137 0 954 0 c 2,21,-1
 200 0 l 1,4,-1
EndSplineSet
Validated: 3073
EndChar

StartChar: Eacute
Encoding: 201 201 244
Width: 1334
Flags: W
HStem: 0 277<550 1203.75> 621 277<550 1115> 1233 277<550 1115>
VStem: 200 350<277 621 898 1232.27>
LayerCount: 2
Fore
SplineSet
614 1540 m 1,0,-1
 515 1741 l 1,1,-1
 901 1947 l 1,2,-1
 1032 1677 l 1,3,-1
 614 1540 l 1,0,-1
200 0 m 1,4,-1
 200 1210 l 2,5,6
 200 1390 200 1390 130 1510 c 1,7,-1
 1115 1510 l 1,8,-1
 1115 1233 l 1,9,-1
 550 1233 l 25,10,-1
 550 898 l 1,11,-1
 1115 898 l 1,12,-1
 1115 621 l 1,13,-1
 550 621 l 1,14,-1
 550 277 l 1,15,-1
 954 277 l 2,16,17
 1137 277 1137 277 1254 347 c 1,18,-1
 1254 50 l 1,19,20
 1137 0 1137 0 954 0 c 2,21,-1
 200 0 l 1,4,-1
EndSplineSet
Validated: 3073
EndChar

StartChar: Ecircumflex
Encoding: 202 202 245
Width: 1334
Flags: W
HStem: 0 277<550 1203.75> 621 277<550 1115> 1233 277<550 1115> 1665 282<552 834>
VStem: 200 350<277 621 898 1232.27>
LayerCount: 2
Fore
SplineSet
462 1540 m 1,0,-1
 363 1741 l 1,1,-1
 693 1947 l 1,2,-1
 1023 1741 l 1,3,-1
 924 1540 l 1,4,-1
 693 1665 l 1,5,-1
 462 1540 l 1,0,-1
200 0 m 1,6,-1
 200 1210 l 2,7,8
 200 1390 200 1390 130 1510 c 1,9,-1
 1115 1510 l 1,10,-1
 1115 1233 l 1,11,-1
 550 1233 l 25,12,-1
 550 898 l 1,13,-1
 1115 898 l 1,14,-1
 1115 621 l 1,15,-1
 550 621 l 1,16,-1
 550 277 l 1,17,-1
 954 277 l 2,18,19
 1137 277 1137 277 1254 347 c 1,20,-1
 1254 50 l 1,21,22
 1137 0 1137 0 954 0 c 2,23,-1
 200 0 l 1,6,-1
EndSplineSet
Validated: 3073
EndChar

StartChar: Edieresis
Encoding: 203 203 246
Width: 1334
Flags: W
HStem: 0 277<550 1203.75> 621 277<550 1115> 1233 277<550 1115> 1593 335<345.25 590.75 738.25 983.75>
VStem: 200 350<277 621 898 1232.27> 304 328<1633.35 1889.05> 697 328<1633.35 1889.05>
LayerCount: 2
Fore
SplineSet
862 1928 m 0,0,1
 1025 1928 1025 1928 1025 1762 c 0,2,3
 1025 1594 1025 1594 860 1593 c 0,4,5
 697 1593 697 1593 697 1765 c 0,6,7
 697 1928 697 1928 862 1928 c 0,0,1
469 1928 m 0,8,9
 632 1928 632 1928 632 1762 c 0,10,11
 632 1594 632 1594 467 1593 c 0,12,13
 304 1593 304 1593 304 1765 c 0,14,15
 304 1928 304 1928 469 1928 c 0,8,9
200 0 m 1,16,-1
 200 1210 l 2,17,18
 200 1390 200 1390 130 1510 c 1,19,-1
 1115 1510 l 1,20,-1
 1115 1233 l 1,21,-1
 550 1233 l 25,22,-1
 550 898 l 1,23,-1
 1115 898 l 1,24,-1
 1115 621 l 1,25,-1
 550 621 l 1,26,-1
 550 277 l 1,27,-1
 954 277 l 2,28,29
 1137 277 1137 277 1254 347 c 1,30,-1
 1254 50 l 1,31,32
 1137 0 1137 0 954 0 c 2,33,-1
 200 0 l 1,16,-1
EndSplineSet
Validated: 3073
EndChar

StartChar: Emacron
Encoding: 274 274 247
Width: 1334
Flags: W
HStem: 0 277<550 1203.75> 621 277<550 1115> 1233 277<550 1115> 1638 230<406 968>
VStem: 200 350<277 621 898 1232.27>
LayerCount: 2
Fore
SplineSet
406 1638 m 1,0,-1
 406 1868 l 1,1,-1
 968 1868 l 1,2,-1
 968 1638 l 1,3,-1
 406 1638 l 1,0,-1
200 0 m 1,4,-1
 200 1210 l 2,5,6
 200 1390 200 1390 130 1510 c 1,7,-1
 1115 1510 l 1,8,-1
 1115 1233 l 1,9,-1
 550 1233 l 25,10,-1
 550 898 l 1,11,-1
 1115 898 l 1,12,-1
 1115 621 l 1,13,-1
 550 621 l 1,14,-1
 550 277 l 1,15,-1
 954 277 l 2,16,17
 1137 277 1137 277 1254 347 c 1,18,-1
 1254 50 l 1,19,20
 1137 0 1137 0 954 0 c 2,21,-1
 200 0 l 1,4,-1
EndSplineSet
Validated: 3073
EndChar

StartChar: Ebreve
Encoding: 276 276 248
Width: 1334
Flags: W
HStem: 0 277<550 1203.75> 621 277<550 1115> 1233 277<550 1115> 1603 230<466.293 936.934> 1671 230<421 651 753 983>
VStem: 200 350<277 621 898 1232.27>
LayerCount: 2
Fore
SplineSet
421 1901 m 1,0,1
 537 1833 537 1833 704 1833 c 0,2,3
 864 1833 864 1833 983 1901 c 1,4,-1
 983 1671 l 1,5,6
 864 1603 864 1603 704 1603 c 0,7,8
 537 1603 537 1603 421 1671 c 1,9,-1
 421 1901 l 1,0,1
200 0 m 1,10,-1
 200 1210 l 2,11,12
 200 1390 200 1390 130 1510 c 1,13,-1
 1115 1510 l 1,14,-1
 1115 1233 l 1,15,-1
 550 1233 l 25,16,-1
 550 898 l 1,17,-1
 1115 898 l 1,18,-1
 1115 621 l 1,19,-1
 550 621 l 1,20,-1
 550 277 l 1,21,-1
 954 277 l 2,22,23
 1137 277 1137 277 1254 347 c 1,24,-1
 1254 50 l 1,25,26
 1137 0 1137 0 954 0 c 2,27,-1
 200 0 l 1,10,-1
EndSplineSet
Validated: 3073
EndChar

StartChar: Edotaccent
Encoding: 278 278 249
Width: 1334
Flags: W
HStem: 0 277<550 1203.75> 621 277<550 1115> 1233 277<550 1115> 1566 381<541.341 811.224>
VStem: 200 350<277 621 898 1232.27> 488 376<1617.84 1896.48>
LayerCount: 2
Fore
SplineSet
677 1947 m 0,0,1
 864 1947 864 1947 864 1757 c 0,2,3
 864 1566 864 1566 675 1566 c 0,4,5
 488 1566 488 1566 488 1761 c 0,6,7
 488 1947 488 1947 677 1947 c 0,0,1
200 0 m 1,8,-1
 200 1210 l 2,9,10
 200 1390 200 1390 130 1510 c 1,11,-1
 1115 1510 l 1,12,-1
 1115 1233 l 1,13,-1
 550 1233 l 25,14,-1
 550 898 l 1,15,-1
 1115 898 l 1,16,-1
 1115 621 l 1,17,-1
 550 621 l 1,18,-1
 550 277 l 1,19,-1
 954 277 l 2,20,21
 1137 277 1137 277 1254 347 c 1,22,-1
 1254 50 l 1,23,24
 1137 0 1137 0 954 0 c 2,25,-1
 200 0 l 1,8,-1
EndSplineSet
Validated: 3073
EndChar

StartChar: Eogonek
Encoding: 280 280 250
Width: 1334
Flags: W
HStem: -430 21G<916 1058.32> -0 277<550 806> 621 277<550 1115> 1233 277<550 1115>
VStem: 200 350<277 621 898 1232.27> 798 320<-168.312 -1.68408>
LayerCount: 2
Fore
SplineSet
200 0 m 1,0,-1
 200 1210 l 2,1,2
 200 1390 200 1390 130 1510 c 1,3,-1
 1115 1510 l 1,4,-1
 1115 1233 l 1,5,-1
 550 1233 l 1,6,-1
 550 898 l 1,7,-1
 1115 898 l 1,8,-1
 1115 621 l 1,9,-1
 550 621 l 1,10,-1
 550 277 l 1,11,-1
 954 277 l 2,12,13
 1137 277 1137 277 1254 347 c 1,14,-1
 1254 50 l 1,15,16
 1118 40 1118 40 1118 -66 c 0,17,18
 1118 -178 1118 -178 1276 -231 c 1,19,-1
 1034 -430 l 1,20,21
 798 -312 798 -312 798 -78 c 0,22,23
 798 -37 798 -37 806 -0 c 1,24,-1
 200 0 l 1,0,-1
EndSplineSet
Validated: 3073
EndChar

StartChar: Ecaron
Encoding: 282 282 251
Width: 1334
Flags: W
HStem: 0 277<550 1203.75> 621 277<550 1115> 1233 277<550 1115> 1540 282<543 825>
VStem: 200 350<277 621 898 1232.27>
LayerCount: 2
Fore
SplineSet
915 1947 m 1,0,-1
 1014 1746 l 1,1,-1
 684 1540 l 1,2,-1
 354 1746 l 1,3,-1
 453 1947 l 1,4,-1
 684 1822 l 1,5,-1
 915 1947 l 1,0,-1
200 0 m 1,6,-1
 200 1210 l 2,7,8
 200 1390 200 1390 130 1510 c 1,9,-1
 1115 1510 l 1,10,-1
 1115 1233 l 1,11,-1
 550 1233 l 25,12,-1
 550 898 l 1,13,-1
 1115 898 l 1,14,-1
 1115 621 l 1,15,-1
 550 621 l 1,16,-1
 550 277 l 1,17,-1
 954 277 l 2,18,19
 1137 277 1137 277 1254 347 c 1,20,-1
 1254 50 l 1,21,22
 1137 0 1137 0 954 0 c 2,23,-1
 200 0 l 1,6,-1
EndSplineSet
Validated: 3073
EndChar

StartChar: Gcircumflex
Encoding: 284 284 252
Width: 1538
Flags: W
HStem: -20 274<569.884 930.579> 621 277<749.341 1028> 1256 274<629.274 938.854> 1665 282<668 950>
VStem: 160 350<312.356 1118.06> 1028 350<345.777 621 1084 1163.71>
LayerCount: 2
Fore
SplineSet
578 1540 m 1,0,-1
 479 1741 l 1,1,-1
 809 1947 l 1,2,-1
 1139 1741 l 1,3,-1
 1040 1540 l 1,4,-1
 809 1665 l 1,5,-1
 578 1540 l 1,0,-1
1378 898 m 1,6,-1
 1378 604 l 18,7,8
 1378 -20 1378 -20 660 -20 c 0,9,10
 160 -20 160 -20 160 399 c 2,11,-1
 160 906 l 2,12,13
 160 1530 160 1530 878 1530 c 0,14,15
 1378 1530 1378 1530 1378 1084 c 1,16,-1
 1028 988 l 1,17,18
 1028 1256 1028 1256 776 1256 c 0,19,20
 510 1256 510 1256 510 899 c 2,21,-1
 510 416 l 2,22,23
 510 254 510 254 762 254 c 0,24,25
 1028 254 1028 254 1028 507 c 10,26,-1
 1028 621 l 1,27,-1
 1002 621 l 2,28,29
 810 621 810 621 702 551 c 1,30,-1
 702 848 l 1,31,32
 821 898 821 898 1002 898 c 2,33,-1
 1378 898 l 1,6,-1
EndSplineSet
Validated: 3073
EndChar

StartChar: Gbreve
Encoding: 286 286 253
Width: 1538
Flags: W
HStem: -20 274<569.884 930.579> 621 277<749.341 1028> 1256 274<629.274 938.854> 1603 230<571.293 1041.93> 1671 230<526 756 858 1088>
VStem: 160 350<312.356 1118.06> 1028 350<345.777 621 1084 1163.71>
LayerCount: 2
Fore
SplineSet
526 1901 m 1,0,1
 642 1833 642 1833 809 1833 c 0,2,3
 969 1833 969 1833 1088 1901 c 1,4,-1
 1088 1671 l 1,5,6
 969 1603 969 1603 809 1603 c 0,7,8
 642 1603 642 1603 526 1671 c 1,9,-1
 526 1901 l 1,0,1
1378 898 m 1,10,-1
 1378 604 l 18,11,12
 1378 -20 1378 -20 660 -20 c 0,13,14
 160 -20 160 -20 160 399 c 2,15,-1
 160 906 l 2,16,17
 160 1530 160 1530 878 1530 c 0,18,19
 1378 1530 1378 1530 1378 1084 c 1,20,-1
 1028 988 l 1,21,22
 1028 1256 1028 1256 776 1256 c 0,23,24
 510 1256 510 1256 510 899 c 2,25,-1
 510 416 l 2,26,27
 510 254 510 254 762 254 c 0,28,29
 1028 254 1028 254 1028 507 c 10,30,-1
 1028 621 l 1,31,-1
 1002 621 l 2,32,33
 810 621 810 621 702 551 c 1,34,-1
 702 848 l 1,35,36
 821 898 821 898 1002 898 c 2,37,-1
 1378 898 l 1,10,-1
EndSplineSet
Validated: 3073
EndChar

StartChar: Gdotaccent
Encoding: 288 288 254
Width: 1538
Flags: W
HStem: -20 274<569.884 930.579> 621 277<749.341 1028> 1256 274<629.274 938.854> 1566 381<668.341 938.224>
VStem: 160 350<312.356 1118.06> 615 376<1617.84 1896.48> 1028 350<345.777 621 1084 1163.71>
LayerCount: 2
Fore
SplineSet
804 1947 m 0,0,1
 991 1947 991 1947 991 1757 c 0,2,3
 991 1566 991 1566 802 1566 c 0,4,5
 615 1566 615 1566 615 1761 c 0,6,7
 615 1947 615 1947 804 1947 c 0,0,1
1378 898 m 1,8,-1
 1378 604 l 18,9,10
 1378 -20 1378 -20 660 -20 c 0,11,12
 160 -20 160 -20 160 399 c 2,13,-1
 160 906 l 2,14,15
 160 1530 160 1530 878 1530 c 0,16,17
 1378 1530 1378 1530 1378 1084 c 1,18,-1
 1028 988 l 1,19,20
 1028 1256 1028 1256 776 1256 c 0,21,22
 510 1256 510 1256 510 899 c 2,23,-1
 510 416 l 2,24,25
 510 254 510 254 762 254 c 0,26,27
 1028 254 1028 254 1028 507 c 10,28,-1
 1028 621 l 1,29,-1
 1002 621 l 2,30,31
 810 621 810 621 702 551 c 1,32,-1
 702 848 l 1,33,34
 821 898 821 898 1002 898 c 2,35,-1
 1378 898 l 1,8,-1
EndSplineSet
Validated: 3073
EndChar

StartChar: Gcommaaccent
Encoding: 290 290 255
Width: 1538
Flags: W
HStem: -430 21G<556.296 603.476> -20 274<569.884 930.579> 621 277<749.341 1028> 1256 274<629.274 938.854>
VStem: 160 350<312.356 1118.06> 1028 350<345.777 621 1084 1163.71>
LayerCount: 2
Fore
SplineSet
853 -23 m 1,0,-1
 952 -224 l 1,1,-1
 566 -430 l 1,2,-1
 435 -160 l 1,3,-1
 853 -23 l 1,0,-1
1378 898 m 1,4,-1
 1378 604 l 18,5,6
 1378 -20 1378 -20 660 -20 c 0,7,8
 160 -20 160 -20 160 399 c 2,9,-1
 160 906 l 2,10,11
 160 1530 160 1530 878 1530 c 0,12,13
 1378 1530 1378 1530 1378 1084 c 1,14,-1
 1028 988 l 1,15,16
 1028 1256 1028 1256 776 1256 c 0,17,18
 510 1256 510 1256 510 899 c 2,19,-1
 510 416 l 2,20,21
 510 254 510 254 762 254 c 0,22,23
 1028 254 1028 254 1028 507 c 10,24,-1
 1028 621 l 1,25,-1
 1002 621 l 2,26,27
 810 621 810 621 702 551 c 1,28,-1
 702 848 l 1,29,30
 821 898 821 898 1002 898 c 2,31,-1
 1378 898 l 1,4,-1
EndSplineSet
Validated: 3073
EndChar

StartChar: Hcircumflex
Encoding: 292 292 256
Width: 1556
Flags: W
HStem: 0 21G<200 550 1031 1426> 621 277<550 1006> 1490 20G<130 525 1006 1356> 1665 282<616 898>
VStem: 200 350<0 621 898 1457.27> 1006 350<52.7271 621 898 1510>
LayerCount: 2
Fore
SplineSet
526 1540 m 1,0,-1
 427 1741 l 1,1,-1
 757 1947 l 1,2,-1
 1087 1741 l 1,3,-1
 988 1540 l 1,4,-1
 757 1665 l 1,5,-1
 526 1540 l 1,0,-1
200 0 m 1,6,-1
 200 1210 l 2,7,8
 200 1391 200 1391 130 1510 c 1,9,-1
 500 1510 l 1,10,11
 550 1409 550 1409 550 1210 c 2,12,-1
 550 898 l 1,13,-1
 1006 898 l 1,14,-1
 1006 1510 l 1,15,-1
 1356 1510 l 1,16,-1
 1356 300 l 2,17,18
 1356 119 1356 119 1426 0 c 1,19,-1
 1056 0 l 1,20,21
 1006 101 1006 101 1006 300 c 2,22,-1
 1006 621 l 1,23,-1
 550 621 l 1,24,-1
 550 0 l 1,25,-1
 200 0 l 1,6,-1
EndSplineSet
Validated: 3073
EndChar

StartChar: Hbar
Encoding: 294 294 257
Width: 1556
Flags: W
HStem: 0 21G<200 550 1031 1426> 621 277<550 1006> 1190 230<90 170 550 1006 1356 1466> 1490 20G<130 509.5 1006 1356>
VStem: 200 350<0 621 898 1190> 1006 350<52.7271 621 898 1190 1420 1510>
LayerCount: 2
Fore
SplineSet
200 0 m 1,0,-1
 200 1190 l 1,1,-1
 90 1190 l 1,2,-1
 90 1420 l 1,3,-1
 170 1420 l 1,4,5
 154 1469 154 1469 130 1510 c 1,6,-1
 500 1510 l 1,7,8
 519 1472 519 1472 531 1420 c 1,9,-1
 1006 1420 l 1,10,-1
 1006 1510 l 1,11,-1
 1356 1510 l 1,12,-1
 1356 1420 l 1,13,-1
 1466 1420 l 1,14,-1
 1466 1190 l 1,15,-1
 1356 1190 l 1,16,-1
 1356 300 l 2,17,18
 1356 119 1356 119 1426 0 c 1,19,-1
 1056 0 l 1,20,21
 1006 101 1006 101 1006 300 c 2,22,-1
 1006 621 l 1,23,-1
 550 621 l 1,24,-1
 550 0 l 1,25,-1
 200 0 l 1,0,-1
1006 1190 m 1,26,-1
 550 1190 l 1,27,-1
 550 898 l 1,28,-1
 1006 898 l 1,29,-1
 1006 1190 l 1,26,-1
EndSplineSet
Validated: 3073
EndChar

StartChar: uni01E4
Encoding: 484 484 258
Width: 1538
Flags: W
HStem: -20 274<569.884 935.613> 334 230<810 977 1377 1448> 621 277<749.341 1028> 1256 274<629.274 938.854>
VStem: 160 350<312.356 1118.06>
LayerCount: 2
Fore
SplineSet
1378 898 m 1,0,-1
 1378 604 l 2,1,2
 1378 584 1378 584 1377 564 c 1,3,-1
 1448 564 l 1,4,-1
 1448 334 l 1,5,-1
 1334 334 l 1,6,7
 1201 -20 1201 -20 660 -20 c 0,8,9
 160 -20 160 -20 160 399 c 2,10,-1
 160 906 l 2,11,12
 160 1530 160 1530 878 1530 c 0,13,14
 1378 1530 1378 1530 1378 1084 c 1,15,-1
 1028 988 l 1,16,17
 1028 1256 1028 1256 776 1256 c 0,18,19
 510 1256 510 1256 510 899 c 2,20,-1
 510 416 l 2,21,22
 510 254 510 254 762 254 c 0,23,24
 912 254 912 254 977 334 c 1,25,-1
 810 334 l 1,26,-1
 810 564 l 1,27,-1
 1028 564 l 1,28,-1
 1028 621 l 1,29,-1
 1002 621 l 2,30,31
 810 621 810 621 702 551 c 1,32,-1
 702 848 l 1,33,34
 821 898 821 898 1002 898 c 2,35,-1
 1378 898 l 1,0,-1
EndSplineSet
Validated: 3073
EndChar

StartChar: Igrave
Encoding: 204 204 259
Width: 750
Flags: W
HStem: 0 21G<200 550> 1490 20G<130 525>
VStem: 200 350<0 1457.27>
LayerCount: 2
Fore
SplineSet
424 1540 m 1,0,-1
 6 1677 l 1,1,-1
 137 1947 l 1,2,-1
 523 1741 l 1,3,-1
 424 1540 l 1,0,-1
200 0 m 1,4,-1
 200 1210 l 2,5,6
 200 1391 200 1391 130 1510 c 1,7,-1
 500 1510 l 1,8,9
 550 1409 550 1409 550 1210 c 2,10,-1
 550 0 l 1,11,-1
 200 0 l 1,4,-1
EndSplineSet
Validated: 3073
EndChar

StartChar: Iacute
Encoding: 205 205 260
Width: 750
Flags: W
HStem: 0 21G<200 550> 1490 20G<130 525>
VStem: 200 350<0 1457.27>
LayerCount: 2
Fore
SplineSet
326 1540 m 1,0,-1
 227 1741 l 1,1,-1
 613 1947 l 1,2,-1
 744 1677 l 1,3,-1
 326 1540 l 1,0,-1
200 0 m 1,4,-1
 200 1210 l 2,5,6
 200 1391 200 1391 130 1510 c 1,7,-1
 500 1510 l 1,8,9
 550 1409 550 1409 550 1210 c 2,10,-1
 550 0 l 1,11,-1
 200 0 l 1,4,-1
EndSplineSet
Validated: 3073
EndChar

StartChar: Icircumflex
Encoding: 206 206 261
Width: 750
Flags: W
HStem: 0 21G<200 550> 1490 20G<130 525> 1665 282<234 516>
VStem: 200 350<0 1457.27>
LayerCount: 2
Fore
SplineSet
144 1540 m 1,0,-1
 45 1741 l 1,1,-1
 375 1947 l 1,2,-1
 705 1741 l 1,3,-1
 606 1540 l 1,4,-1
 375 1665 l 1,5,-1
 144 1540 l 1,0,-1
200 0 m 1,6,-1
 200 1210 l 2,7,8
 200 1391 200 1391 130 1510 c 1,9,-1
 500 1510 l 1,10,11
 550 1409 550 1409 550 1210 c 2,12,-1
 550 0 l 1,13,-1
 200 0 l 1,6,-1
EndSplineSet
Validated: 3073
EndChar

StartChar: Idieresis
Encoding: 207 207 262
Width: 750
Flags: W
HStem: 0 21G<200 550> 1490 20G<130 525> 1593 335<55.25 300.75 448.25 693.75>
VStem: 14 328<1633.35 1889.05> 200 350<0 1457.27> 407 328<1633.35 1889.05>
LayerCount: 2
Fore
SplineSet
572 1928 m 0,0,1
 735 1928 735 1928 735 1762 c 0,2,3
 735 1594 735 1594 570 1593 c 0,4,5
 407 1593 407 1593 407 1765 c 0,6,7
 407 1928 407 1928 572 1928 c 0,0,1
200 0 m 1,8,-1
 200 1210 l 2,9,10
 200 1391 200 1391 130 1510 c 1,11,-1
 500 1510 l 1,12,13
 550 1409 550 1409 550 1210 c 2,14,-1
 550 0 l 1,15,-1
 200 0 l 1,8,-1
179 1928 m 0,16,17
 342 1928 342 1928 342 1762 c 0,18,19
 342 1594 342 1594 177 1593 c 0,20,21
 14 1593 14 1593 14 1765 c 0,22,23
 14 1928 14 1928 179 1928 c 0,16,17
EndSplineSet
Validated: 3073
EndChar

StartChar: Itilde
Encoding: 296 296 263
Width: 750
Flags: W
HStem: 0 21G<200 550> 1490 20G<130 525> 1610 230<349.436 640.194> 1672 230<106.885 419.576>
VStem: 200 350<0 1457.27>
LayerCount: 2
Fore
SplineSet
200 0 m 1,0,-1
 200 1210 l 2,1,2
 200 1391 200 1391 130 1510 c 1,3,-1
 500 1510 l 1,4,5
 550 1409 550 1409 550 1210 c 2,6,-1
 550 0 l 1,7,-1
 200 0 l 1,0,-1
661 1672 m 1,8,9
 596 1610 596 1610 527 1610 c 0,10,11
 461 1610 461 1610 371 1647 c 0,12,13
 310 1672 310 1672 219 1672 c 0,14,15
 143 1672 143 1672 89 1609 c 1,16,-1
 89 1839 l 1,17,18
 140 1902 140 1902 219 1902 c 0,19,20
 300 1902 300 1902 376 1872 c 0,21,22
 460 1840 460 1840 527 1840 c 0,23,24
 593 1840 593 1840 661 1902 c 1,25,-1
 661 1672 l 1,8,9
EndSplineSet
Validated: 3073
EndChar

StartChar: Imacron
Encoding: 298 298 264
Width: 750
Flags: W
HStem: 0 21G<200 550> 1490 20G<130 525> 1638 230<94 656>
VStem: 200 350<0 1457.27>
LayerCount: 2
Fore
SplineSet
200 0 m 1,0,-1
 200 1210 l 2,1,2
 200 1391 200 1391 130 1510 c 1,3,-1
 500 1510 l 1,4,5
 550 1409 550 1409 550 1210 c 2,6,-1
 550 0 l 1,7,-1
 200 0 l 1,0,-1
94 1638 m 1,8,-1
 94 1868 l 1,9,-1
 656 1868 l 1,10,-1
 656 1638 l 1,11,-1
 94 1638 l 1,8,-1
EndSplineSet
Validated: 3073
EndChar

StartChar: Ibreve
Encoding: 300 300 265
Width: 750
Flags: W
HStem: 0 21G<200 550> 1490 20G<130 525> 1603 230<139.293 609.934> 1671 230<94 324 426 656>
VStem: 200 350<0 1457.27>
LayerCount: 2
Fore
SplineSet
94 1901 m 1,0,1
 210 1833 210 1833 377 1833 c 0,2,3
 537 1833 537 1833 656 1901 c 1,4,-1
 656 1671 l 1,5,6
 537 1603 537 1603 377 1603 c 0,7,8
 210 1603 210 1603 94 1671 c 1,9,-1
 94 1901 l 1,0,1
200 0 m 1,10,-1
 200 1210 l 2,11,12
 200 1391 200 1391 130 1510 c 1,13,-1
 500 1510 l 1,14,15
 550 1409 550 1409 550 1210 c 2,16,-1
 550 0 l 1,17,-1
 200 0 l 1,10,-1
EndSplineSet
Validated: 3073
EndChar

StartChar: Iogonek
Encoding: 302 302 266
Width: 750
Flags: W
HStem: -430 21G<180 322.322> 1490 20G<130 525>
VStem: 62 320<-168.312 -1.3114> 200 350<152.698 1457.27>
LayerCount: 2
Fore
SplineSet
550 0 m 1,0,-1
 393 -0 l 1,1,2
 382 -29 382 -29 382 -66 c 0,3,4
 382 -178 382 -178 540 -231 c 1,5,-1
 298 -430 l 1,6,7
 62 -312 62 -312 62 -78 c 0,8,9
 62 94 62 94 200 187 c 1,10,-1
 200 1210 l 2,11,12
 200 1391 200 1391 130 1510 c 1,13,-1
 500 1510 l 1,14,15
 550 1409 550 1409 550 1210 c 2,16,-1
 550 0 l 1,0,-1
EndSplineSet
Validated: 3073
EndChar

StartChar: Idotaccent
Encoding: 304 304 267
Width: 750
Flags: W
HStem: 0 21G<200 550> 1490 20G<130 525> 1566 381<238.341 508.224>
VStem: 185 376<1617.84 1896.48> 200 350<0 1457.27>
LayerCount: 2
Fore
SplineSet
374 1947 m 0,0,1
 561 1947 561 1947 561 1757 c 0,2,3
 561 1566 561 1566 372 1566 c 0,4,5
 185 1566 185 1566 185 1761 c 0,6,7
 185 1947 185 1947 374 1947 c 0,0,1
200 0 m 1,8,-1
 200 1210 l 2,9,10
 200 1391 200 1391 130 1510 c 1,11,-1
 500 1510 l 1,12,13
 550 1409 550 1409 550 1210 c 2,14,-1
 550 0 l 1,15,-1
 200 0 l 1,8,-1
EndSplineSet
Validated: 3073
EndChar

StartChar: IJ
Encoding: 306 306 268
Width: 1829
Flags: W
HStem: -20 278<800.5 1213.64> 0 21G<200 550> 1233 277<877.328 1279>
VStem: 200 350<0 1457.27> 1279 350<324.81 1233>
LayerCount: 2
Fore
SplineSet
829 1460 m 1,0,1
 953 1510 953 1510 1129 1510 c 2,2,-1
 1629 1510 l 1,3,-1
 1629 523 l 2,4,5
 1629 -20 1629 -20 990 -20 c 0,6,7
 611 -20 611 -20 611 411 c 9,8,-1
 961 507 l 17,9,10
 962 258 962 258 1112 258 c 0,11,12
 1279 258 1279 258 1279 518 c 2,13,-1
 1279 1233 l 1,14,-1
 1129 1233 l 2,15,16
 937 1233 937 1233 829 1163 c 1,17,-1
 829 1460 l 1,0,1
200 0 m 1,18,-1
 200 1210 l 2,19,20
 200 1391 200 1391 130 1510 c 1,21,-1
 500 1510 l 1,22,23
 550 1409 550 1409 550 1210 c 2,24,-1
 550 0 l 1,25,-1
 200 0 l 1,18,-1
EndSplineSet
Validated: 3073
EndChar

StartChar: Jcircumflex
Encoding: 308 308 269
Width: 1278
Flags: W
HStem: -20 278<249.5 662.643> 1233 277<326.328 728> 1665 282<572 854>
VStem: 728 350<324.81 1233>
LayerCount: 2
Fore
SplineSet
482 1540 m 1,0,-1
 383 1741 l 1,1,-1
 713 1947 l 1,2,-1
 1043 1741 l 1,3,-1
 944 1540 l 1,4,-1
 713 1665 l 1,5,-1
 482 1540 l 1,0,-1
278 1460 m 1,6,7
 402 1510 402 1510 578 1510 c 2,8,-1
 1078 1510 l 1,9,-1
 1078 523 l 2,10,11
 1078 -20 1078 -20 439 -20 c 0,12,13
 60 -20 60 -20 60 411 c 9,14,-1
 410 507 l 17,15,16
 411 258 411 258 561 258 c 0,17,18
 728 258 728 258 728 518 c 2,19,-1
 728 1233 l 1,20,-1
 578 1233 l 2,21,22
 386 1233 386 1233 278 1163 c 1,23,-1
 278 1460 l 1,6,7
EndSplineSet
Validated: 3073
EndChar

StartChar: Kcommaaccent
Encoding: 310 310 270
Width: 1428
Flags: W
HStem: -430 21G<556.296 603.476> 0 21G<200 550 903 1298> 621 277<550 795.485> 1490 20G<130 525 860 1210>
VStem: 200 350<0 621 898 1457.27> 860 350<980.073 1510> 878 350<53.0859 534.921>
LayerCount: 2
Fore
SplineSet
853 -23 m 1,0,-1
 952 -224 l 1,1,-1
 566 -430 l 1,2,-1
 435 -160 l 1,3,-1
 853 -23 l 1,0,-1
200 0 m 1,4,-1
 200 1210 l 2,5,6
 200 1391 200 1391 130 1510 c 1,7,-1
 500 1510 l 1,8,9
 550 1409 550 1409 550 1210 c 2,10,-1
 550 898 l 1,11,-1
 677 898 l 2,12,13
 860 898 860 898 860 1162 c 2,14,-1
 860 1510 l 1,15,-1
 1210 1510 l 1,16,-1
 1210 1250 l 2,17,18
 1210 922 1210 922 1017 765 c 1,19,20
 1228 617 1228 617 1228 317 c 2,21,-1
 1228 300 l 2,22,23
 1228 119 1228 119 1298 0 c 1,24,-1
 928 0 l 1,25,26
 878 102 878 102 878 300 c 2,27,-1
 878 316 l 2,28,29
 878 621 878 621 677 621 c 2,30,-1
 550 621 l 1,31,-1
 550 0 l 1,32,-1
 200 0 l 1,4,-1
EndSplineSet
Validated: 3073
EndChar

StartChar: Lacute
Encoding: 313 313 271
Width: 1191
Flags: W
HStem: 0 277<550 1130.75> 1490 20G<130 525>
VStem: 200 350<277 1458.05>
LayerCount: 2
Fore
SplineSet
326 1540 m 1,0,-1
 227 1741 l 1,1,-1
 613 1947 l 1,2,-1
 744 1677 l 1,3,-1
 326 1540 l 1,0,-1
1181 347 m 1,4,-1
 1181 50 l 1,5,6
 1064 0 1064 0 881 0 c 2,7,-1
 200 0 l 1,8,-1
 200 1210 l 2,9,10
 200 1390 200 1390 130 1510 c 1,11,-1
 500 1510 l 1,12,13
 550 1400 550 1400 550 1210 c 2,14,-1
 550 277 l 1,15,-1
 881 277 l 2,16,17
 1064 277 1064 277 1181 347 c 1,4,-1
EndSplineSet
Validated: 3073
EndChar

StartChar: Lcommaaccent
Encoding: 315 315 272
Width: 1191
Flags: W
HStem: -430 21G<470.296 517.476> 0 277<550 1130.75> 1490 20G<130 525>
VStem: 200 350<277 1458.05>
LayerCount: 2
Fore
SplineSet
767 -23 m 1,0,-1
 866 -224 l 1,1,-1
 480 -430 l 1,2,-1
 349 -160 l 1,3,-1
 767 -23 l 1,0,-1
1181 347 m 1,4,-1
 1181 50 l 1,5,6
 1064 0 1064 0 881 0 c 2,7,-1
 200 0 l 1,8,-1
 200 1210 l 2,9,10
 200 1390 200 1390 130 1510 c 1,11,-1
 500 1510 l 1,12,13
 550 1400 550 1400 550 1210 c 2,14,-1
 550 277 l 1,15,-1
 881 277 l 2,16,17
 1064 277 1064 277 1181 347 c 1,4,-1
EndSplineSet
Validated: 3073
EndChar

StartChar: Lcaron
Encoding: 317 317 273
Width: 1191
Flags: W
HStem: 0 277<550 1130.75> 1510 0G<130 525 661.794 746>
VStem: 200 350<277 1458.05>
LayerCount: 2
Fore
SplineSet
793 1049 m 1,0,-1
 576 1102 l 1,1,-1
 666 1530 l 1,2,-1
 958 1457 l 1,3,-1
 793 1049 l 1,0,-1
1181 347 m 1,4,-1
 1181 50 l 1,5,6
 1064 0 1064 0 881 0 c 2,7,-1
 200 0 l 1,8,-1
 200 1210 l 2,9,10
 200 1390 200 1390 130 1510 c 1,11,-1
 500 1510 l 1,12,13
 550 1400 550 1400 550 1210 c 2,14,-1
 550 277 l 1,15,-1
 881 277 l 2,16,17
 1064 277 1064 277 1181 347 c 1,4,-1
EndSplineSet
Validated: 3073
EndChar

StartChar: Ldot
Encoding: 319 319 274
Width: 1191
Flags: W
HStem: 0 277<550 1130.75> 789 381<652.341 922.224> 1490 20G<130 525>
VStem: 200 350<277 1458.05> 599 376<840.844 1119.48>
LayerCount: 2
Fore
SplineSet
788 1170 m 0,0,1
 975 1170 975 1170 975 980 c 0,2,3
 975 789 975 789 786 789 c 0,4,5
 599 789 599 789 599 984 c 0,6,7
 599 1170 599 1170 788 1170 c 0,0,1
1181 347 m 1,8,-1
 1181 50 l 1,9,10
 1064 0 1064 0 881 0 c 2,11,-1
 200 0 l 1,12,-1
 200 1210 l 2,13,14
 200 1390 200 1390 130 1510 c 1,15,-1
 500 1510 l 1,16,17
 550 1400 550 1400 550 1210 c 2,18,-1
 550 277 l 1,19,-1
 881 277 l 2,20,21
 1064 277 1064 277 1181 347 c 1,8,-1
EndSplineSet
Validated: 3073
EndChar

StartChar: Lslash
Encoding: 321 321 275
Width: 1191
Flags: W
HStem: 0 277<550 1130.75> 1100 20G<809.352 849> 1490 20G<130 525>
VStem: 200 350<277 440 836 1458.05>
DStem2: 550 836 550 440 0.70044 0.713711<0 395.516>
LayerCount: 2
Fore
SplineSet
200 0 m 1,0,-1
 200 1210 l 2,1,2
 200 1390 200 1390 130 1510 c 1,3,-1
 500 1510 l 1,4,5
 550 1400 550 1400 550 1210 c 2,6,-1
 550 836 l 1,7,-1
 829 1120 l 1,8,-1
 1025 924 l 1,9,-1
 550 440 l 1,10,-1
 550 277 l 1,11,-1
 881 277 l 2,12,13
 1064 277 1064 277 1181 347 c 1,14,-1
 1181 50 l 1,15,16
 1064 0 1064 0 881 0 c 2,17,-1
 200 0 l 1,0,-1
EndSplineSet
Validated: 3073
EndChar

StartChar: Nacute
Encoding: 323 323 276
Width: 1556
Flags: W
HStem: 0 21G<200 550 1005 1355.01> 1490 20G<130 636 1006 1356>
VStem: 200 350<0 1170> 1006 350<0 490.957 1080 1510>
LayerCount: 2
Fore
SplineSet
729 1540 m 1,0,-1
 630 1741 l 1,1,-1
 1016 1947 l 1,2,-1
 1147 1677 l 1,3,-1
 729 1540 l 1,0,-1
200 0 m 1,4,-1
 200 1210 l 2,5,6
 200 1391 200 1391 130 1510 c 1,7,-1
 458 1510 l 2,8,9
 814 1510 814 1510 998 1080 c 9,10,-1
 1006 1080 l 17,11,-1
 1006 1510 l 1,12,-1
 1356 1510 l 1,13,-1
 1355 0 l 1,14,-1
 1005 0 l 1,15,16
 1005 929 1005 929 550 1170 c 9,17,-1
 550 0 l 1,18,-1
 200 0 l 1,4,-1
EndSplineSet
Validated: 3073
EndChar

StartChar: Ncommaaccent
Encoding: 325 325 277
Width: 1556
Flags: W
HStem: -430 21G<556.296 603.476> 0 21G<200 550 1005 1355.01> 1490 20G<130 636 1006 1356>
VStem: 200 350<0 1170> 1006 350<0 490.957 1080 1510>
LayerCount: 2
Fore
SplineSet
853 -23 m 1,0,-1
 952 -224 l 1,1,-1
 566 -430 l 1,2,-1
 435 -160 l 1,3,-1
 853 -23 l 1,0,-1
200 0 m 1,4,-1
 200 1210 l 2,5,6
 200 1391 200 1391 130 1510 c 1,7,-1
 458 1510 l 2,8,9
 814 1510 814 1510 998 1080 c 9,10,-1
 1006 1080 l 17,11,-1
 1006 1510 l 1,12,-1
 1356 1510 l 1,13,-1
 1355 0 l 1,14,-1
 1005 0 l 1,15,16
 1005 929 1005 929 550 1170 c 9,17,-1
 550 0 l 1,18,-1
 200 0 l 1,4,-1
EndSplineSet
Validated: 3073
EndChar

StartChar: Ncaron
Encoding: 327 327 278
Width: 1556
Flags: W
HStem: 0 21G<200 550 1005 1355.01> 1490 20G<130 636 1006 1356> 1540 282<668 950>
VStem: 200 350<0 1170> 1006 350<0 490.957 1080 1510>
LayerCount: 2
Fore
SplineSet
1040 1947 m 1,0,-1
 1139 1746 l 1,1,-1
 809 1540 l 1,2,-1
 479 1746 l 1,3,-1
 578 1947 l 1,4,-1
 809 1822 l 1,5,-1
 1040 1947 l 1,0,-1
200 0 m 1,6,-1
 200 1210 l 2,7,8
 200 1391 200 1391 130 1510 c 1,9,-1
 458 1510 l 2,10,11
 814 1510 814 1510 998 1080 c 9,12,-1
 1006 1080 l 17,13,-1
 1006 1510 l 1,14,-1
 1356 1510 l 1,15,-1
 1355 0 l 1,16,-1
 1005 0 l 1,17,18
 1005 929 1005 929 550 1170 c 9,19,-1
 550 0 l 1,20,-1
 200 0 l 1,6,-1
EndSplineSet
Validated: 3073
EndChar

StartChar: Eng
Encoding: 330 330 279
Width: 1556
Flags: W
HStem: -430 21G<816 1086> 0 21G<200 550> 1490 20G<130 636 1006 1356>
VStem: 200 350<0 1170> 1006 350<29 654.805 1080 1510>
LayerCount: 2
Fore
SplineSet
200 0 m 1,0,-1
 200 1210 l 2,1,2
 200 1391 200 1391 130 1510 c 1,3,-1
 458 1510 l 2,4,5
 814 1510 814 1510 998 1080 c 9,6,-1
 1006 1080 l 17,7,-1
 1006 1510 l 1,8,-1
 1356 1510 l 1,9,-1
 1356 300 l 2,10,11
 1356 -301 1356 -301 816 -430 c 1,12,-1
 816 -164 l 1,13,14
 1006 -30 1006 -30 1006 300 c 0,15,16
 1006 928 1006 928 550 1170 c 9,17,-1
 550 0 l 1,18,-1
 200 0 l 1,0,-1
EndSplineSet
Validated: 3073
EndChar

StartChar: Ograve
Encoding: 210 210 280
Width: 1538
Flags: W
HStem: -20 274<569.884 908.726> 1256 274<629.274 968.116>
VStem: 160 350<312.356 1118.06> 1028 350<391.938 1197.64>
LayerCount: 2
Fore
SplineSet
816 1540 m 1,0,-1
 398 1677 l 1,1,-1
 529 1947 l 1,2,-1
 915 1741 l 1,3,-1
 816 1540 l 1,0,-1
510 416 m 2,4,5
 510 254 510 254 762 254 c 0,6,7
 1028 254 1028 254 1028 611 c 2,8,-1
 1028 1094 l 2,9,10
 1028 1256 1028 1256 776 1256 c 0,11,12
 510 1256 510 1256 510 899 c 2,13,-1
 510 416 l 2,4,5
160 399 m 2,14,-1
 160 906 l 2,15,16
 160 1530 160 1530 878 1530 c 0,17,18
 1378 1530 1378 1530 1378 1111 c 2,19,-1
 1378 604 l 2,20,21
 1378 -20 1378 -20 660 -20 c 0,22,23
 160 -20 160 -20 160 399 c 2,14,-1
EndSplineSet
Validated: 3073
EndChar

StartChar: Oacute
Encoding: 211 211 281
Width: 1538
Flags: W
HStem: -20 274<569.884 908.726> 1256 274<629.274 968.116>
VStem: 160 350<312.356 1118.06> 1028 350<391.938 1197.64>
LayerCount: 2
Fore
SplineSet
729 1540 m 1,0,-1
 630 1741 l 1,1,-1
 1016 1947 l 1,2,-1
 1147 1677 l 1,3,-1
 729 1540 l 1,0,-1
510 416 m 2,4,5
 510 254 510 254 762 254 c 0,6,7
 1028 254 1028 254 1028 611 c 2,8,-1
 1028 1094 l 2,9,10
 1028 1256 1028 1256 776 1256 c 0,11,12
 510 1256 510 1256 510 899 c 2,13,-1
 510 416 l 2,4,5
160 399 m 2,14,-1
 160 906 l 2,15,16
 160 1530 160 1530 878 1530 c 0,17,18
 1378 1530 1378 1530 1378 1111 c 2,19,-1
 1378 604 l 2,20,21
 1378 -20 1378 -20 660 -20 c 0,22,23
 160 -20 160 -20 160 399 c 2,14,-1
EndSplineSet
Validated: 3073
EndChar

StartChar: Ocircumflex
Encoding: 212 212 282
Width: 1538
Flags: W
HStem: -20 274<569.884 908.726> 1256 274<629.274 968.116> 1665 282<668 950>
VStem: 160 350<312.356 1118.06> 1028 350<391.938 1197.64>
LayerCount: 2
Fore
SplineSet
160 399 m 2,0,-1
 160 906 l 2,1,2
 160 1530 160 1530 878 1530 c 0,3,4
 1378 1530 1378 1530 1378 1111 c 2,5,-1
 1378 604 l 2,6,7
 1378 -20 1378 -20 660 -20 c 0,8,9
 160 -20 160 -20 160 399 c 2,0,-1
510 416 m 2,10,11
 510 254 510 254 762 254 c 0,12,13
 1028 254 1028 254 1028 611 c 2,14,-1
 1028 1094 l 2,15,16
 1028 1256 1028 1256 776 1256 c 0,17,18
 510 1256 510 1256 510 899 c 2,19,-1
 510 416 l 2,10,11
578 1540 m 1,20,-1
 479 1741 l 1,21,-1
 809 1947 l 1,22,-1
 1139 1741 l 1,23,-1
 1040 1540 l 1,24,-1
 809 1665 l 1,25,-1
 578 1540 l 1,20,-1
EndSplineSet
Validated: 3073
EndChar

StartChar: Otilde
Encoding: 213 213 283
Width: 1538
Flags: W
HStem: -20 274<569.884 908.726> 1256 274<629.274 968.116> 1610 230<781.436 1072.19> 1672 230<538.885 851.576>
VStem: 160 350<312.356 1118.06> 1028 350<391.938 1197.64>
LayerCount: 2
Fore
SplineSet
1093 1672 m 1,0,1
 1028 1610 1028 1610 959 1610 c 0,2,3
 893 1610 893 1610 803 1647 c 0,4,5
 742 1672 742 1672 651 1672 c 0,6,7
 575 1672 575 1672 521 1609 c 1,8,-1
 521 1839 l 1,9,10
 572 1902 572 1902 651 1902 c 0,11,12
 732 1902 732 1902 808 1872 c 0,13,14
 892 1840 892 1840 959 1840 c 0,15,16
 1025 1840 1025 1840 1093 1902 c 1,17,-1
 1093 1672 l 1,0,1
510 416 m 2,18,19
 510 254 510 254 762 254 c 0,20,21
 1028 254 1028 254 1028 611 c 2,22,-1
 1028 1094 l 2,23,24
 1028 1256 1028 1256 776 1256 c 0,25,26
 510 1256 510 1256 510 899 c 2,27,-1
 510 416 l 2,18,19
160 399 m 2,28,-1
 160 906 l 2,29,30
 160 1530 160 1530 878 1530 c 0,31,32
 1378 1530 1378 1530 1378 1111 c 2,33,-1
 1378 604 l 2,34,35
 1378 -20 1378 -20 660 -20 c 0,36,37
 160 -20 160 -20 160 399 c 2,28,-1
EndSplineSet
Validated: 3073
EndChar

StartChar: Odieresis
Encoding: 214 214 284
Width: 1538
Flags: W
HStem: -20 274<569.884 908.726> 1256 274<629.274 968.116> 1593 335<480.25 725.75 873.25 1118.75>
VStem: 160 350<312.356 1118.06> 439 328<1633.35 1889.05> 832 328<1633.35 1889.05> 1028 350<391.938 1197.64>
LayerCount: 2
Fore
SplineSet
997 1928 m 0,0,1
 1160 1928 1160 1928 1160 1762 c 0,2,3
 1160 1594 1160 1594 995 1593 c 0,4,5
 832 1593 832 1593 832 1765 c 0,6,7
 832 1928 832 1928 997 1928 c 0,0,1
604 1928 m 0,8,9
 767 1928 767 1928 767 1762 c 0,10,11
 767 1594 767 1594 602 1593 c 0,12,13
 439 1593 439 1593 439 1765 c 0,14,15
 439 1928 439 1928 604 1928 c 0,8,9
510 416 m 2,16,17
 510 254 510 254 762 254 c 0,18,19
 1028 254 1028 254 1028 611 c 2,20,-1
 1028 1094 l 2,21,22
 1028 1256 1028 1256 776 1256 c 0,23,24
 510 1256 510 1256 510 899 c 2,25,-1
 510 416 l 2,16,17
160 399 m 2,26,-1
 160 906 l 2,27,28
 160 1530 160 1530 878 1530 c 0,29,30
 1378 1530 1378 1530 1378 1111 c 2,31,-1
 1378 604 l 2,32,33
 1378 -20 1378 -20 660 -20 c 0,34,35
 160 -20 160 -20 160 399 c 2,26,-1
EndSplineSet
Validated: 3073
EndChar

StartChar: Omacron
Encoding: 332 332 285
Width: 1538
Flags: W
HStem: -20 274<569.884 908.726> 1256 274<629.274 968.116> 1638 230<526 1088>
VStem: 160 350<312.356 1118.06> 1028 350<391.938 1197.64>
LayerCount: 2
Fore
SplineSet
526 1638 m 1,0,-1
 526 1868 l 1,1,-1
 1088 1868 l 1,2,-1
 1088 1638 l 1,3,-1
 526 1638 l 1,0,-1
510 416 m 2,4,5
 510 254 510 254 762 254 c 0,6,7
 1028 254 1028 254 1028 611 c 2,8,-1
 1028 1094 l 2,9,10
 1028 1256 1028 1256 776 1256 c 0,11,12
 510 1256 510 1256 510 899 c 2,13,-1
 510 416 l 2,4,5
160 399 m 2,14,-1
 160 906 l 2,15,16
 160 1530 160 1530 878 1530 c 0,17,18
 1378 1530 1378 1530 1378 1111 c 2,19,-1
 1378 604 l 2,20,21
 1378 -20 1378 -20 660 -20 c 0,22,23
 160 -20 160 -20 160 399 c 2,14,-1
EndSplineSet
Validated: 3073
EndChar

StartChar: Obreve
Encoding: 334 334 286
Width: 1538
Flags: W
HStem: -20 274<569.884 908.726> 1256 274<629.274 968.116> 1603 230<571.293 1041.93> 1671 230<526 756 858 1088>
VStem: 160 350<312.356 1118.06> 1028 350<391.938 1197.64>
LayerCount: 2
Fore
SplineSet
526 1901 m 1,0,1
 642 1833 642 1833 809 1833 c 0,2,3
 969 1833 969 1833 1088 1901 c 1,4,-1
 1088 1671 l 1,5,6
 969 1603 969 1603 809 1603 c 0,7,8
 642 1603 642 1603 526 1671 c 1,9,-1
 526 1901 l 1,0,1
510 416 m 2,10,11
 510 254 510 254 762 254 c 0,12,13
 1028 254 1028 254 1028 611 c 2,14,-1
 1028 1094 l 2,15,16
 1028 1256 1028 1256 776 1256 c 0,17,18
 510 1256 510 1256 510 899 c 2,19,-1
 510 416 l 2,10,11
160 399 m 2,20,-1
 160 906 l 2,21,22
 160 1530 160 1530 878 1530 c 0,23,24
 1378 1530 1378 1530 1378 1111 c 2,25,-1
 1378 604 l 2,26,27
 1378 -20 1378 -20 660 -20 c 0,28,29
 160 -20 160 -20 160 399 c 2,20,-1
EndSplineSet
Validated: 3073
EndChar

StartChar: Ohungarumlaut
Encoding: 336 336 287
Width: 1538
Flags: W
HStem: -20 274<569.884 908.726> 1256 274<629.274 968.116>
VStem: 160 350<312.356 1118.06> 1028 350<391.938 1197.64>
LayerCount: 2
Fore
SplineSet
437 1540 m 1,0,-1
 338 1741 l 1,1,-1
 724 1947 l 1,2,-1
 855 1677 l 1,3,-1
 437 1540 l 1,0,-1
936 1540 m 1,4,-1
 837 1741 l 1,5,-1
 1223 1947 l 1,6,-1
 1354 1677 l 1,7,-1
 936 1540 l 1,4,-1
510 416 m 2,8,9
 510 254 510 254 762 254 c 0,10,11
 1028 254 1028 254 1028 611 c 2,12,-1
 1028 1094 l 2,13,14
 1028 1256 1028 1256 776 1256 c 0,15,16
 510 1256 510 1256 510 899 c 2,17,-1
 510 416 l 2,8,9
160 399 m 2,18,-1
 160 906 l 2,19,20
 160 1530 160 1530 878 1530 c 0,21,22
 1378 1530 1378 1530 1378 1111 c 2,23,-1
 1378 604 l 2,24,25
 1378 -20 1378 -20 660 -20 c 0,26,27
 160 -20 160 -20 160 399 c 2,18,-1
EndSplineSet
Validated: 3073
EndChar

